<?xml version="1.0" encoding="UTF-8" ?>
<!DOCTYPE svg PUBLIC "-//W3C//DTD SVG 1.1//EN" "http://www.w3.org/Graphics/SVG/1.1/DTD/svg11.dtd">
<svg width="634pt" height="563pt" viewBox="0 0 634 563" version="1.1" xmlns="http://www.w3.org/2000/svg">
<g id="#3380ffff">
<path fill="#3380ff" opacity="1.00" d=" M 0.00 0.00 L 0.26 0.00 C 0.20 0.06 0.07 0.19 0.00 0.26 L 0.00 0.00 Z" />
<path fill="#3380ff" opacity="1.00" d=" M 541.98 179.00 C 555.98 178.99 569.99 179.00 583.99 179.00 C 583.99 179.75 583.99 181.25 583.99 182.00 C 584.01 204.98 584.00 227.97 584.00 250.95 C 570.00 250.91 556.00 251.04 542.00 250.95 C 541.96 238.63 542.06 226.31 541.94 213.99 C 541.89 202.33 541.94 190.66 541.98 179.00 Z" />
<path fill="#3380ff" opacity="1.00" d=" M 500.15 324.15 C 514.10 323.78 528.06 324.10 542.02 324.00 C 541.94 336.25 542.51 348.51 541.77 360.75 C 527.86 361.50 513.92 360.91 500.00 361.02 C 500.09 348.73 499.77 336.43 500.15 324.15 Z" />
<path fill="#3380ff" opacity="1.00" d=" M 334.00 470.00 C 347.67 469.96 361.33 470.08 375.00 469.93 C 375.11 481.95 375.03 493.98 375.03 506.00 C 361.36 506.01 347.69 506.00 334.01 506.00 C 333.97 494.00 334.02 482.00 334.00 470.00 Z" />
</g>
<g id="#ffffffff">
<path fill="#ffffff" opacity="1.00" d=" M 127.01 251.02 C 140.00 250.99 152.99 250.98 165.99 251.02 C 165.96 275.33 166.00 299.65 165.95 323.96 C 152.98 324.01 140.01 323.96 127.03 323.98 C 126.97 299.66 127.05 275.34 127.01 251.02 Z" />
<path fill="#ffffff" opacity="1.00" d=" M 209.04 251.01 C 237.02 251.00 265.00 250.99 292.98 251.01 C 293.02 275.33 292.93 299.65 292.99 323.97 C 265.00 323.99 237.00 323.98 209.01 323.97 C 209.07 299.65 208.95 275.33 209.04 251.01 Z" />
<path fill="#ffffff" opacity="1.00" d=" M 417.04 251.01 C 431.02 250.99 445.00 250.98 458.99 251.02 C 459.01 263.67 458.93 276.33 459.02 288.98 C 472.67 289.04 486.33 288.96 499.99 289.02 C 500.01 300.66 500.00 312.31 499.95 323.96 C 472.31 324.00 444.67 323.97 417.03 323.98 C 417.01 299.66 417.00 275.33 417.04 251.01 Z" />
<path fill="#ffffff" opacity="1.00" d=" M 209.01 361.02 C 222.00 360.98 234.99 360.99 247.98 361.01 C 248.00 372.66 247.97 384.31 247.97 395.96 C 234.99 396.00 222.00 395.96 209.02 395.98 C 208.98 384.32 209.06 372.67 209.01 361.02 Z" />
<path fill="#ffffff" opacity="1.00" d=" M 334.01 361.02 C 361.67 360.99 389.32 360.99 416.98 361.02 C 417.00 372.67 416.98 384.32 416.98 395.97 C 402.99 396.03 389.00 395.92 375.02 396.00 C 374.90 408.33 375.04 420.65 374.99 432.98 C 361.34 432.96 347.69 433.00 334.03 432.96 C 333.97 408.98 334.06 385.00 334.01 361.02 Z" />
</g>
<g id="#000000ff">
<path fill="#000000" opacity="1.00" d=" M 165.99 0.00 L 329.99 0.00 C 329.99 4.33 329.99 8.65 330.02 12.98 C 359.01 13.05 388.00 12.95 416.98 13.02 C 417.01 20.01 416.98 26.99 417.02 33.98 C 444.00 34.05 470.99 33.95 497.98 34.02 C 497.96 46.05 498.17 58.08 497.82 70.10 C 484.89 69.88 471.96 70.03 459.03 70.02 C 445.00 70.04 430.98 70.07 416.96 70.00 C 416.96 58.04 417.13 46.08 416.88 34.12 C 402.92 33.83 388.96 34.07 375.00 34.01 C 323.67 34.03 272.34 33.97 221.00 34.01 C 217.26 34.02 213.53 33.91 209.79 33.84 C 210.35 26.92 209.85 19.96 209.98 13.02 C 195.33 12.94 180.67 13.06 166.02 12.98 C 165.99 8.65 165.99 4.33 165.99 0.00 Z" />
<path fill="#000000" opacity="1.00" d=" M 128.03 35.02 C 152.02 34.95 176.01 35.04 200.00 34.98 C 203.11 34.97 206.23 35.06 209.34 35.30 C 208.52 46.84 209.23 58.45 209.01 70.02 C 194.68 70.12 180.34 70.10 166.00 70.02 C 153.27 69.93 140.55 70.08 127.83 69.94 C 128.30 58.31 127.81 46.66 128.03 35.02 Z" />
<path fill="#000000" opacity="1.00" d=" M 499.90 72.16 C 513.92 71.83 527.95 72.05 541.98 72.02 C 542.04 83.68 541.98 95.34 542.00 107.00 C 528.05 107.00 514.09 106.99 500.14 107.01 C 499.79 95.39 500.19 83.77 499.90 72.16 Z" />
<path fill="#000000" opacity="1.00" d=" M 86.02 73.03 C 99.82 73.07 113.62 72.77 127.40 73.21 C 126.45 84.44 127.26 95.74 127.00 107.00 C 113.41 107.15 99.81 106.70 86.23 107.20 C 85.81 95.81 86.04 84.42 86.02 73.03 Z" />
<path fill="#000000" opacity="1.00" d=" M 165.98 106.96 C 193.32 106.85 220.66 106.79 248.00 106.99 C 248.24 130.99 248.12 155.00 248.03 179.00 C 220.69 179.12 193.34 179.13 166.00 179.00 C 165.80 154.99 165.91 130.97 165.98 106.96 Z" />
<path fill="#000000" opacity="1.00" d=" M 375.03 107.01 C 389.03 106.89 403.02 107.01 417.02 106.97 C 431.00 107.01 444.99 106.98 458.98 106.97 C 459.03 118.31 458.96 129.66 459.01 141.00 C 459.00 153.67 458.99 166.34 459.02 179.02 C 445.01 179.06 431.00 179.03 416.99 179.04 C 403.01 178.97 389.02 179.11 375.04 178.98 C 374.97 154.99 374.98 131.00 375.03 107.01 Z" />
<path fill="#000000" opacity="1.00" d=" M 542.00 108.00 C 555.99 108.02 569.98 107.96 583.98 108.02 C 584.03 131.68 583.99 155.34 583.99 179.00 C 569.99 179.00 555.98 178.99 541.98 179.00 C 541.98 166.34 542.01 153.67 541.99 141.00 C 542.00 130.00 541.99 119.00 542.00 108.00 Z" />
<path fill="#000000" opacity="1.00" d=" M 46.02 109.02 C 58.03 108.94 70.03 109.03 82.03 109.04 C 81.95 119.67 82.02 130.30 82.00 140.94 C 81.99 153.63 82.03 166.32 81.98 179.01 C 69.99 178.99 58.00 179.00 46.02 179.00 C 46.00 155.67 45.97 132.35 46.02 109.02 Z" />
<path fill="#000000" opacity="1.00" d=" M 583.99 182.00 C 598.32 182.03 612.65 181.95 626.98 182.02 C 627.01 241.76 627.03 301.50 626.97 361.24 C 612.71 361.44 598.45 361.31 584.20 361.29 C 583.72 385.18 584.16 409.08 583.98 432.98 C 570.08 433.16 556.18 432.74 542.29 433.20 C 542.31 445.45 542.44 457.71 542.25 469.96 C 528.26 470.17 514.27 469.73 500.29 470.20 C 500.31 481.79 500.44 493.38 500.24 504.97 C 491.15 505.07 482.03 504.60 473.00 505.89 C 455.34 506.19 437.67 505.88 420.01 506.01 C 419.27 506.02 417.78 506.03 417.04 506.03 C 416.93 518.35 417.04 530.66 416.99 542.98 C 348.34 543.01 279.68 543.02 211.02 542.98 C 210.93 530.95 211.08 518.93 210.96 506.91 C 203.68 505.92 196.32 506.42 189.00 506.34 C 169.35 506.27 149.69 506.46 130.03 506.25 C 129.94 494.16 130.02 482.08 130.02 469.99 C 156.34 470.04 182.65 469.94 208.96 470.04 C 209.19 481.98 208.82 493.92 209.12 505.87 C 222.10 506.14 235.08 505.88 248.06 505.98 C 276.71 506.03 305.36 505.98 334.01 506.00 C 347.69 506.00 361.36 506.01 375.03 506.00 C 388.97 505.89 402.91 506.23 416.85 505.84 C 417.27 493.91 416.81 481.98 417.04 470.05 C 444.64 469.81 472.25 470.27 499.84 469.84 C 500.27 457.58 499.80 445.31 500.05 433.04 C 513.98 432.82 527.91 433.27 541.84 432.84 C 542.26 408.91 541.81 384.98 542.05 361.04 C 555.98 360.81 569.92 361.27 583.85 360.84 C 584.21 324.22 583.90 287.58 584.00 250.95 C 584.00 227.97 584.01 204.98 583.99 182.00 Z" />
<path fill="#000000" opacity="1.00" d=" M 0.00 183.00 C 14.00 183.02 28.00 182.96 42.00 183.04 C 42.04 241.64 41.90 300.24 42.07 358.84 C 28.05 359.15 14.02 358.94 0.00 359.00 L 0.00 183.00 Z" />
<path fill="#000000" opacity="1.00" d=" M 81.99 213.97 C 97.01 214.00 112.03 214.05 127.05 213.95 C 182.36 213.85 237.68 213.85 293.00 213.94 C 334.33 214.08 375.66 213.93 416.98 213.97 C 430.99 214.01 445.00 213.96 459.00 213.98 C 486.65 214.07 514.29 213.91 541.94 213.99 C 542.06 226.31 541.96 238.63 542.00 250.95 C 542.00 275.30 541.98 299.65 542.02 324.00 C 528.06 324.10 514.10 323.78 500.15 324.15 C 499.77 336.43 500.09 348.73 500.00 361.02 C 499.95 372.66 500.09 384.31 499.95 395.95 C 486.32 396.13 472.68 395.87 459.04 396.04 C 458.87 408.35 459.13 420.65 458.96 432.96 C 444.95 433.09 430.94 432.95 416.94 433.00 C 403.01 433.09 389.07 432.79 375.15 433.14 C 374.81 445.40 375.09 457.67 375.00 469.93 C 361.33 470.08 347.67 469.96 334.00 470.00 C 305.34 470.00 276.68 469.98 248.02 470.01 C 247.94 457.68 248.09 445.36 247.96 433.03 C 220.65 432.93 193.33 433.05 166.01 432.98 C 165.94 420.66 166.05 408.35 165.97 396.04 C 152.97 395.89 139.97 396.12 126.98 395.94 C 126.92 372.00 127.16 348.05 126.89 324.11 C 111.94 323.81 96.99 324.14 82.03 323.97 C 81.94 287.30 82.05 250.64 81.99 213.97 M 127.01 251.02 C 127.05 275.34 126.97 299.66 127.03 323.98 C 140.01 323.96 152.98 324.01 165.95 323.96 C 166.00 299.65 165.96 275.33 165.99 251.02 C 152.99 250.98 140.00 250.99 127.01 251.02 M 209.04 251.01 C 208.95 275.33 209.07 299.65 209.01 323.97 C 237.00 323.98 265.00 323.99 292.99 323.97 C 292.93 299.65 293.02 275.33 292.98 251.01 C 265.00 250.99 237.02 251.00 209.04 251.01 M 417.04 251.01 C 417.00 275.33 417.01 299.66 417.03 323.98 C 444.67 323.97 472.31 324.00 499.95 323.96 C 500.00 312.31 500.01 300.66 499.99 289.02 C 486.33 288.96 472.67 289.04 459.02 288.98 C 458.93 276.33 459.01 263.67 458.99 251.02 C 445.00 250.98 431.02 250.99 417.04 251.01 M 209.01 361.02 C 209.06 372.67 208.98 384.32 209.02 395.98 C 222.00 395.96 234.99 396.00 247.97 395.96 C 247.97 384.31 248.00 372.66 247.98 361.01 C 234.99 360.99 222.00 360.98 209.01 361.02 M 334.01 361.02 C 334.06 385.00 333.97 408.98 334.03 432.96 C 347.69 433.00 361.34 432.96 374.99 432.98 C 375.04 420.65 374.90 408.33 375.02 396.00 C 389.00 395.92 402.99 396.03 416.98 395.97 C 416.98 384.32 417.00 372.67 416.98 361.02 C 389.32 360.99 361.67 360.99 334.01 361.02 Z" />
<path fill="#000000" opacity="1.00" d=" M 45.26 360.83 C 57.50 361.21 69.75 360.86 81.99 361.04 C 82.08 372.67 82.00 384.30 82.03 395.93 C 82.00 407.93 81.99 419.92 81.98 431.92 C 69.66 432.03 57.34 432.03 45.02 431.98 C 45.12 408.26 44.69 384.54 45.26 360.83 Z" />
<path fill="#000000" opacity="1.00" d=" M 83.08 433.02 C 97.72 433.00 112.36 432.95 127.00 433.00 C 126.99 443.67 126.99 454.34 127.00 465.01 C 112.34 464.95 97.68 465.06 83.02 464.98 C 82.95 454.33 82.99 443.67 83.08 433.02 Z" />
</g>
<g id="#99d5ffff">
<path fill="#99d5ff" opacity="1.00" d=" M 209.79 33.84 C 213.53 33.91 217.26 34.02 221.00 34.01 C 272.34 33.97 323.67 34.03 375.00 34.01 C 374.99 45.97 374.77 57.93 374.99 69.88 C 388.98 70.12 402.97 69.91 416.96 70.00 C 416.97 82.32 416.80 94.65 417.02 106.97 C 403.02 107.01 389.03 106.89 375.03 107.01 C 374.98 131.00 374.97 154.99 375.04 178.98 C 389.02 179.11 403.01 178.97 416.99 179.04 C 416.94 190.68 416.98 202.33 416.98 213.97 C 375.66 213.93 334.33 214.08 293.00 213.94 C 292.90 165.97 292.97 118.00 292.97 70.03 C 264.98 69.88 237.00 69.91 209.01 70.02 C 209.23 58.45 208.52 46.84 209.34 35.30 C 209.45 34.94 209.68 34.21 209.79 33.84 Z" />
<path fill="#99d5ff" opacity="1.00" d=" M 127.83 69.94 C 140.55 70.08 153.27 69.93 166.00 70.02 C 166.15 82.33 166.05 94.65 165.98 106.96 C 152.99 107.06 139.99 106.98 127.00 107.00 C 127.26 95.74 126.45 84.44 127.40 73.21 C 127.55 72.12 127.69 71.03 127.83 69.94 Z" />
<path fill="#99d5ff" opacity="1.00" d=" M 86.23 107.20 C 99.81 106.70 113.41 107.15 127.00 107.00 C 127.15 118.31 127.01 129.62 127.06 140.93 C 112.04 140.96 97.02 140.65 82.00 140.94 C 82.02 130.30 81.95 119.67 82.03 109.04 C 83.11 108.94 84.19 108.81 85.26 108.63 C 85.50 108.27 85.99 107.56 86.23 107.20 Z" />
<path fill="#99d5ff" opacity="1.00" d=" M 46.02 179.00 C 58.00 179.00 69.99 178.99 81.98 179.01 C 81.87 190.66 81.87 202.31 81.99 213.97 C 82.05 250.64 81.94 287.30 82.03 323.97 C 96.99 324.14 111.94 323.81 126.89 324.11 C 127.16 348.05 126.92 372.00 126.98 395.94 C 112.00 395.71 97.01 395.70 82.03 395.93 C 82.00 384.30 82.08 372.67 81.99 361.04 C 69.75 360.86 57.50 361.21 45.26 360.83 C 44.27 360.06 43.19 359.41 42.07 358.84 C 41.90 300.24 42.04 241.64 42.00 183.04 C 43.33 183.04 44.66 183.05 45.99 183.05 C 46.00 181.70 46.01 180.35 46.02 179.00 Z" />
</g>
<g id="#99aaffff">
<path fill="#99aaff" opacity="1.00" d=" M 375.00 34.01 C 388.96 34.07 402.92 33.83 416.88 34.12 C 417.13 46.08 416.96 58.04 416.96 70.00 C 402.97 69.91 388.98 70.12 374.99 69.88 C 374.77 57.93 374.99 45.97 375.00 34.01 Z" />
<path fill="#99aaff" opacity="1.00" d=" M 416.96 70.00 C 430.98 70.07 445.00 70.04 459.03 70.02 C 458.78 82.34 458.81 94.65 458.98 106.97 C 444.99 106.98 431.00 107.01 417.02 106.97 C 416.80 94.65 416.97 82.32 416.96 70.00 Z" />
<path fill="#99aaff" opacity="1.00" d=" M 459.01 141.00 C 472.68 140.91 486.34 141.16 500.01 140.91 C 499.29 153.55 499.91 166.22 499.74 178.88 C 486.17 179.24 472.60 178.86 459.02 179.02 C 458.99 166.34 459.00 153.67 459.01 141.00 Z" />
<path fill="#99aaff" opacity="1.00" d=" M 416.99 179.04 C 431.00 179.03 445.01 179.06 459.02 179.02 C 458.98 190.67 458.99 202.33 459.00 213.98 C 445.00 213.96 430.99 214.01 416.98 213.97 C 416.98 202.33 416.94 190.68 416.99 179.04 Z" />
<path fill="#99aaff" opacity="1.00" d=" M 82.03 395.93 C 97.01 395.70 112.00 395.71 126.98 395.94 C 139.97 396.12 152.97 395.89 165.97 396.04 C 166.05 408.35 165.94 420.66 166.01 432.98 C 153.01 432.87 140.00 433.11 127.00 433.00 C 112.36 432.95 97.72 433.00 83.08 433.02 C 82.81 432.75 82.26 432.20 81.98 431.92 C 81.99 419.92 82.00 407.93 82.03 395.93 Z" />
</g>
<g id="#cc00ccff">
<path fill="#cc00cc" opacity="1.00" d=" M 166.00 70.02 C 180.34 70.10 194.68 70.12 209.01 70.02 C 237.00 69.91 264.98 69.88 292.97 70.03 C 292.97 118.00 292.90 165.97 293.00 213.94 C 237.68 213.85 182.36 213.85 127.05 213.95 C 127.03 189.61 127.07 165.27 127.06 140.93 C 127.01 129.62 127.15 118.31 127.00 107.00 C 139.99 106.98 152.99 107.06 165.98 106.96 C 165.91 130.97 165.80 154.99 166.00 179.00 C 193.34 179.13 220.69 179.12 248.03 179.00 C 248.12 155.00 248.24 130.99 248.00 106.99 C 220.66 106.79 193.32 106.85 165.98 106.96 C 166.05 94.65 166.15 82.33 166.00 70.02 Z" />
</g>
<g id="#66aaffff">
<path fill="#66aaff" opacity="1.00" d=" M 459.03 70.02 C 471.96 70.03 484.89 69.88 497.82 70.10 C 498.51 70.79 499.20 71.48 499.90 72.16 C 500.19 83.77 499.79 95.39 500.14 107.01 C 500.39 118.30 500.61 129.62 500.01 140.91 C 486.34 141.16 472.68 140.91 459.01 141.00 C 458.96 129.66 459.03 118.31 458.98 106.97 C 458.81 94.65 458.78 82.34 459.03 70.02 Z" />
<path fill="#66aaff" opacity="1.00" d=" M 500.01 140.91 C 514.00 140.85 527.99 140.87 541.99 141.00 C 542.01 153.67 541.98 166.34 541.98 179.00 C 541.94 190.66 541.89 202.33 541.94 213.99 C 514.29 213.91 486.65 214.07 459.00 213.98 C 458.99 202.33 458.98 190.67 459.02 179.02 C 472.60 178.86 486.17 179.24 499.74 178.88 C 499.91 166.22 499.29 153.55 500.01 140.91 Z" />
<path fill="#66aaff" opacity="1.00" d=" M 127.00 433.00 C 140.00 433.11 153.01 432.87 166.01 432.98 C 193.33 433.05 220.65 432.93 247.96 433.03 C 248.09 445.36 247.94 457.68 248.02 470.01 C 248.09 482.00 247.96 493.99 248.06 505.98 C 235.08 505.88 222.10 506.14 209.12 505.87 C 208.82 493.92 209.19 481.98 208.96 470.04 C 182.65 469.94 156.34 470.04 130.02 469.99 C 130.01 468.34 129.99 466.69 129.97 465.05 C 129.23 465.04 127.74 465.02 127.00 465.01 C 126.99 454.34 126.99 443.67 127.00 433.00 Z" />
</g>
<g id="#6680ffff">
<path fill="#6680ff" opacity="1.00" d=" M 500.14 107.01 C 514.09 106.99 528.05 107.00 542.00 107.00 L 542.00 108.00 C 541.99 119.00 542.00 130.00 541.99 141.00 C 527.99 140.87 514.00 140.85 500.01 140.91 C 500.61 129.62 500.39 118.30 500.14 107.01 Z" />
<path fill="#6680ff" opacity="1.00" d=" M 375.15 433.14 C 389.07 432.79 403.01 433.09 416.94 433.00 C 416.62 445.20 416.99 457.41 416.62 469.61 C 402.75 469.95 388.87 469.51 375.00 469.93 C 375.09 457.67 374.81 445.40 375.15 433.14 Z" />
<path fill="#6680ff" opacity="1.00" d=" M 248.02 470.01 C 276.68 469.98 305.34 470.00 334.00 470.00 C 334.02 482.00 333.97 494.00 334.01 506.00 C 305.36 505.98 276.71 506.03 248.06 505.98 C 247.96 493.99 248.09 482.00 248.02 470.01 Z" />
</g>
<g id="#ccd5ffff">
<path fill="#ccd5ff" opacity="1.00" d=" M 82.00 140.94 C 97.02 140.65 112.04 140.96 127.06 140.93 C 127.07 165.27 127.03 189.61 127.05 213.95 C 112.03 214.05 97.01 214.00 81.99 213.97 C 81.87 202.31 81.87 190.66 81.98 179.01 C 82.03 166.32 81.99 153.63 82.00 140.94 Z" />
</g>
<g id="#0080ffff">
<path fill="#0080ff" opacity="1.00" d=" M 542.00 250.95 C 556.00 251.04 570.00 250.91 584.00 250.95 C 583.90 287.58 584.21 324.22 583.85 360.84 C 569.92 361.27 555.98 360.81 542.05 361.04 C 541.81 384.98 542.26 408.91 541.84 432.84 C 527.91 433.27 513.98 432.82 500.05 433.04 C 499.80 445.31 500.27 457.58 499.84 469.84 C 472.25 470.27 444.64 469.81 417.04 470.05 C 416.81 481.98 417.27 493.91 416.85 505.84 C 402.91 506.23 388.97 505.89 375.03 506.00 C 375.03 493.98 375.11 481.95 375.00 469.93 C 388.87 469.51 402.75 469.95 416.62 469.61 C 416.99 457.41 416.62 445.20 416.94 433.00 C 430.94 432.95 444.95 433.09 458.96 432.96 C 459.13 420.65 458.87 408.35 459.04 396.04 C 472.68 395.87 486.32 396.13 499.95 395.95 C 500.09 384.31 499.95 372.66 500.00 361.02 C 513.92 360.91 527.86 361.50 541.77 360.75 C 542.51 348.51 541.94 336.25 542.02 324.00 C 541.98 299.65 542.00 275.30 542.00 250.95 Z" />
</g>
<g id="#ff00ffff">
<path fill="#ff00ff" opacity="1.00" d=" M 417.04 506.03 C 417.78 506.03 419.27 506.02 420.01 506.01 C 419.94 518.32 420.10 530.63 419.95 542.95 C 419.21 542.96 417.73 542.97 416.99 542.98 C 417.04 530.66 416.93 518.35 417.04 506.03 Z" />
</g>
</svg>