<svg version="1.2" xmlns="http://www.w3.org/2000/svg" viewBox="0 0 350 680" width="350" height="680">
	<title>Pharaoh (3) (1)</title>
	<style>
		.s0 { fill: #fac53a;stroke: #c13c1b;stroke-width: .4 } 
		.s1 { fill: none;stroke: #000000;stroke-width: .4 } 
		.s2 { fill: #a13c2a;stroke: #000000;stroke-linecap: round;stroke-linejoin: round;stroke-width: .4 } 
		.s3 { fill: #fac53a;stroke: #000000;stroke-linecap: round;stroke-linejoin: round;stroke-width: .4 } 
		.s4 { fill: #0044aa;stroke: #000000;stroke-linecap: round;stroke-linejoin: round;stroke-width: .4 } 
		.s5 { fill: #ffffff;stroke: #000000;stroke-width: .4 } 
		.s6 { fill: #fac53a;stroke: #000000;stroke-width: .4 } 
		.s7 { fill: #ffffff;stroke: #000000;stroke-linecap: round;stroke-linejoin: round;stroke-width: .4 } 
		.s8 { fill: none;stroke: #0044aa;stroke-linejoin: round;stroke-width: 4.8 } 
		.s9 { fill: none;stroke: #308d57;stroke-width: 3.7 } 
		.s10 { fill: none;stroke: #c13c1b;stroke-width: 3 } 
		.s11 { fill: none;stroke: #0044aa;stroke-width: 4.4 } 
		.s12 { fill: none;stroke: #fac53a;stroke-width: 10.9 } 
		.s13 { fill: none;stroke: #000000;stroke-linecap: round;stroke-linejoin: round;stroke-width: .5 } 
		.s14 { fill: none;stroke: #c13c1b;stroke-width: .4 } 
		.s15 { fill: none;stroke: #c13c1b;stroke-linecap: round;stroke-linejoin: round;stroke-width: .4 } 
		.s16 { fill: #0044aa;stroke: #000000;stroke-width: .4 } 
		.s17 { fill: #002255;stroke: #000000;stroke-linecap: round;stroke-linejoin: round;stroke-width: .4 } 
		.s18 { fill: #0044aa;stroke: #0044aa;stroke-width: .4 } 
		.s19 { fill: #c13c1b;stroke: #c13c1b;stroke-width: .4 } 
		.s20 { fill: #308d57 } 
		.s21 { fill: none;stroke: #000000;stroke-linecap: round;stroke-linejoin: round;stroke-width: .4 } 
		.s22 { opacity: .7;fill: #000000 } 
		.s23 { fill: none;stroke: #000000;stroke-width: .5 } 
		.s24 { fill: #000000;stroke: #000000;stroke-width: .4 } 
		.s25 { fill: #a13c2a;stroke: #000000;stroke-width: .4 } 
		.s26 { fill: none;stroke: #000000;stroke-width: 1.5 } 
		.s27 { opacity: .7;fill: #000000;stroke: #000000;stroke-width: .4 } 
		.s28 { fill: #0044aa } 
		.s29 { fill: #c13c1b } 
		.s30 { fill: #000000;stroke: #000000;stroke-linecap: round;stroke-linejoin: round;stroke-width: .4 } 
		.s31 { fill: none;stroke: #000000;stroke-linecap: round;stroke-linejoin: round;stroke-width: .4;stroke-dasharray: 0.360570229637464,0.7211404689096601 } 
		.s32 { fill: none;stroke: #000000;stroke-linecap: round;stroke-linejoin: round;stroke-width: .4;stroke-dasharray: 0.072114051708332,0.8653685723263239 } 
		.s33 { fill: #a13c2a } 
		.s34 { fill: none;stroke: #000000;stroke-width: .7 } 
		.s35 { fill: none;stroke: #000000;stroke-linecap: round;stroke-linejoin: round;stroke-width: .4;stroke-dasharray: 0.546852637521544,1.0937052902094162 } 
		.s36 { fill: none;stroke: #000000;stroke-linecap: round;stroke-linejoin: round;stroke-width: .4;stroke-dasharray: 0.10937053357083999,1.312446357351096 } 
		.s37 { fill: #c13c1b;stroke: #000000;stroke-width: .4 } 
		.s38 { fill: #308d57;stroke: #000000;stroke-width: .4 } 
		.s39 { fill: #fac53a;stroke: #c13c1b;stroke-linecap: round;stroke-linejoin: round;stroke-width: .4 } 
		.s40 { fill: #fac53a;stroke: #fac53a;stroke-linecap: round;stroke-linejoin: round;stroke-width: 3.2 } 
		.s41 { fill: none;stroke: #ffffff;stroke-linecap: round;stroke-linejoin: round;stroke-width: .6 } 
		.s42 { fill: none;stroke: #000000;stroke-linecap: round;stroke-linejoin: round;stroke-width: .7 } 
		.s43 { fill: none;stroke: #fac53a;stroke-linecap: round;stroke-linejoin: round;stroke-width: .6 } 
		.s44 { fill: #000000 } 
	</style>
	<g id="layer1">
		<g id="g58036">
			<path id="path22350" fill-rule="evenodd" class="s0" d="m279.5 465.3l-0.3 12.3c0.1 17.8 0.5 36.6 4.2 49.6l19.3 143.7 11.1-1.2c-8.4-48.1-10.1-94.9-15.2-142.4-3-31.1-9.4-22.2-19.1-62z"/>
			<path id="path5160" fill-rule="evenodd" class="s1" d="m310.8 188.2h-30.2"/>
			<path id="path5162" fill-rule="evenodd" class="s1" d="m311.3 197.3l-30.2 0.4"/>
			<path id="path16040" fill-rule="evenodd" class="s2" d="m229.4 127.3l39.8 0.6c19.4 6.1 34.7 13.6 40.8 34.7 2.1 12.1 0.1 16.4 0.9 25.6l0.6 9.6c1.3 20.6 1.9 41.4 0.3 62.6-1.2 18.5 2.7 38.1 3.1 56.6-0.6 15.4-4.4 26.9-5.1 40.4l-19.3-1.5c-8.9-50-3.7-66.3-5.9-89.3-3.2-28-3.2-55.2-4.3-82.7-11.9 21.4-24.3 42.2-31.2 70.4v4.6l6.5 30c3.5 4.8 13.5 27 6.2 39.6 8.3 48.4 12.2 97.9 11.7 146.3l0.6 15.7c1.4 21.5 10 42.9 9.6 66.4-0.4 23.5-4.6 46.5-7.7 68.9-1.2 25.8 2.4 30.4 1.5 39.8-0.9 9.4-6.2 9-11.5 8.9-5.5 0-10.8-0.9-11-4.6-5.7-1.5-13.7 5-72.3 2.7-2.5-0.3-2.7-4.1-2.9-6.7 2.6-0.7 5.3-1.1 8.2-0.6 19.5-9.5 38.6-13.6 58.7-31.5 0.9-1 1.7-2.3 1.5-5.9-2.5-35.3-10.2-72-13.3-107.4l-0.9-5.6c-2.7-6.9-5.1-15.7-8.3-19.5-1.4-7.2-1.9-14.4-6.5-21.6l-15-0.3c-6.7 19.2-7.7 26.9-11.7 39.9-3.1 18.8-0.3 26.9-4.8 42-4.6 15.2-14.3 34.9-22 49.7-4.7 12.6-11.1 26-13.3 37.7-0.6 7.6 0.7 13.4-0.2 22.8-0.9 9.4-6.2 9-11.6 8.9-5.4 0-10.8-0.9-10.9-4.6-5.7-1.5-13.7 5-72.3 2.7-2.5-0.3-2.7-4.1-3-6.7 2.6-0.7 5.4-1.1 8.3-0.6 19.5-9.5 43.9-14.9 63.9-32.7 1.9-2.2 2.5-4.6 3.2-6.9l22.7-109.3c0-11-1.4-21.5 3.7-34.5l0.3-8.7 18.7-170.8-2.1-7.3c-2.7-6.1-0.8-12.5-0.9-18.3-2.2-17.2-5.7-34.1-9.5-50.9-2.5-5.7-4.7-12.5-6.5-19.7-1.8-0.7-2.4-2.7-1.1-4.6-1.2-5.4-2.2-11-2.7-16.3l-0.9-0.2-1.2 11c-0.5 2.7-0.4 5.3-0.8 8-3.5 19.6-7 39.1-19 73.8l-4 8.7c-9 26.1-22.2 46.4-35.9 66l-17-12.3c9.8-24.3 16.8-49.6 31.6-72.3l2.7-6.5c1-18.8 3.4-45.4 8.4-66.3l2-15.6c-5.6-25.9 6.4-43.2 29.3-47l37.9-7.4"/>
			<g id="g10379">
				<path id="path10381" fill-rule="evenodd" class="s3" d="m280.4 186l30.3-0.6 1.1 17.3-31-0.1z"/>
				<path id="path10383" fill-rule="evenodd" class="s4" d="m280.4 187.9l30.4-0.1 0.3 5.1-30.5 0.2z"/>
				<path id="path10385" fill-rule="evenodd" class="s4" d="m280.7 195l30.5 0.1 0.5 5.4-30.9 0.1z"/>
			</g>
			<path id="path10177" fill-rule="evenodd" class="s3" d="m282.1 475.6c-0.4-2.7-1.6-5.5-2-8.6-4.3-34.2-4.9-92.6-15.1-137.4 2.9-8.2 1.8-17.4-0.4-25.1-2.1-7.6-5.2-13.6-6.8-15.8-1.1-5.3-4.5-21.1-5.6-32.3-0.1-0.6-0.6-1-1.1-1-0.3 0-0.6 0.2-0.8 0.4-0.2 0.2-0.3 0.5-0.3 0.8 1.2 11.5 4.6 27.5 5.7 32.7q0.1 0.2 0.2 0.4c1.2 1.6 4.5 7.8 6.6 15.4 2.2 7.5 3.2 16.5 0.4 24.1q-0.1 0.3-0.1 0.6c8.6 37.5 10.5 84.9 13.4 119.6 0.9 10.1 2.8 19.2 3.1 26.5"/>
			<path id="path16018" fill-rule="evenodd" class="s5" d="m156.3 474.2l16.8-171.1 88.4-0.9c1.1 4.7 6 14.4 0.5 26.6 7.6 48.3 12.4 97.3 11.3 145.3z"/>
			<path id="path10201" fill-rule="evenodd" class="s6" d="m273.3 474.4c-90.4-15.2-106.9-83.4-100.2-171.3l82.4-14.5c7.8 13 12.4 30.6 6.5 40.1 7.6 48.5 12.4 97.6 11.3 145.7z"/>
			<g id="g5548">
				<g id="g6641">
					<path id="path6643" fill-rule="evenodd" class="s7" d="m152.7 131.5l32.9-6.6 46.5-3.7 35.8 7.4c-6.7 34-29.8 46.2-56.5 46.8-25.2 0.5-37.1-6-45.3-14.7-7.9-8.4-12-21.4-13.4-29.2z"/>
					<path id="path6645" fill-rule="evenodd" class="s8" d="m166.4 128.8c5 24.5 19.3 33.6 45.6 32.5 26.4-1 39.6-18 41.2-34.4 0-0.3 0-0.6 0.1-1.2"/>
					<path id="path6647" fill-rule="evenodd" class="s9" d="m179 126.4c4.8 18.7 15.3 22.7 32.5 22 16.1-0.6 28-11.1 27.9-24.3-0.1-0.5 0.1-0.9 0.1-1.2"/>
					<path id="path6649" fill-rule="evenodd" class="s10" d="m170.7 128.2c3.7 17.1 12.8 30 41 28.7 24.6-1 36.4-17.7 36.8-31.5 0-0.1 0-0.4 0.1-0.7"/>
					<path id="path6651" fill-rule="evenodd" class="s11" d="m183 125.5c2.5 8.1 5.2 20.3 28.5 18.6 15.3-1.2 22.6-10.3 23.2-18.8 0.1-1 0-3.1 0.2-3.4"/>
					<path id="path6653" fill-rule="evenodd" class="s11" d="m174.7 127.1c4.9 23.2 22.1 26.5 37.3 25.6 20.5-1.2 31.6-13.9 32.2-27.4 0-0.3 0-1.2 0.1-1.6"/>
					<path id="path6655" fill-rule="evenodd" class="s12" d="m158.2 130.6c5.4 26 19.9 40.2 52.7 39q0.2 0 0.4 0c43.6-1.7 49.1-34.3 50.7-41.9"/>
					<path id="path6657" fill-rule="evenodd" class="s13" d="m152.7 131.5l32.9-6.6 46.5-3.7 35.8 7.4c-6.7 34-29.8 46.2-56.5 46.8-25.2 0.5-37.1-6-45.3-14.7-7.9-8.4-12-21.4-13.4-29.2z"/>
					<g id="g6659">
						<path id="path6661" fill-rule="evenodd" class="s14" d="m224.2 170.6c-0.7-1.9-0.3-5.3 0.2-7.5 1.6 1.6 3.8 4.3 4.3 6.1 1.1 3.5-3.5 4.7-4.5 1.4z"/>
						<path id="path6663" fill-rule="evenodd" class="s14" d="m224.7 170.4c-0.4-1.4-0.1-3.9 0.2-5.6 1.2 1.2 2.8 3.2 3.2 4.5 0.8 2.6-2.6 3.5-3.4 1.1z"/>
						<path id="path6665" fill-rule="evenodd" class="s15" d="m224.7 170.3c0.2-0.3 0.7-0.9 1.5-1.1 0.8-0.3 1.4-0.1 1.8 0.1"/>
						<path id="path6667" fill-rule="evenodd" class="s15" d="m224.6 167.8c0.2-0.3 0.8-0.6 1-0.7 0.3-0.1 0.9-0.1 1.2 0"/>
					</g>
					<g id="g6669">
						<g id="g6671">
							<path id="path6673" fill-rule="evenodd" class="s14" d="m218.4 171.5c-0.4-2 0.3-5.3 1-7.5 1.4 1.8 3.4 4.6 3.7 6.5 0.8 3.6-3.9 4.4-4.7 1z"/>
							<path id="path6675" fill-rule="evenodd" class="s14" d="m219.1 171.3c-0.4-1.4 0.2-3.9 0.7-5.5 1 1.3 2.4 3.4 2.7 4.8 0.5 2.7-2.9 3.2-3.4 0.7z"/>
							<path id="path6677" fill-rule="evenodd" class="s15" d="m219.1 171.3c0.2-0.3 0.7-0.9 1.5-1 0.9-0.2 1.4 0 1.8 0.2"/>
							<path id="path6679" fill-rule="evenodd" class="s15" d="m219.1 168.7c0.3-0.3 0.9-0.5 1.1-0.6 0.3 0 0.9 0 1.2 0.1"/>
						</g>
					</g>
					<g id="g6681">
						<path id="path6683" fill-rule="evenodd" class="s14" d="m230 169.1c-0.8-1.9-0.8-5.3-0.5-7.6 1.7 1.5 4.2 3.9 4.9 5.7 1.4 3.4-3 5-4.4 1.9z"/>
						<path id="path6685" fill-rule="evenodd" class="s14" d="m230.5 168.8c-0.6-1.4-0.5-3.9-0.3-5.6 1.3 1.1 3.1 2.9 3.6 4.2 1 2.5-2.2 3.7-3.3 1.4z"/>
						<path id="path6687" fill-rule="evenodd" class="s15" d="m230.5 168.7c0.2-0.3 0.6-1 1.4-1.3 0.8-0.3 1.3-0.2 1.8-0.1"/>
						<path id="path6689" fill-rule="evenodd" class="s15" d="m230.1 166.2c0.2-0.4 0.7-0.7 1-0.8 0.2-0.1 0.8-0.2 1.1-0.1"/>
					</g>
					<g id="g6691">
						<path id="path6693" fill-rule="evenodd" class="s14" d="m207 172c0-2 1.3-5.1 2.5-7.1 1 2 2.3 5.2 2.3 7.1 0 3.7-4.7 3.5-4.8 0z"/>
						<path id="path6695" fill-rule="evenodd" class="s14" d="m207.6 172c0-1.5 1-3.8 1.8-5.3 0.8 1.5 1.8 3.8 1.8 5.3-0.1 2.7-3.5 2.5-3.6 0z"/>
						<path id="path6697" fill-rule="evenodd" class="s15" d="m207.6 171.9c0.3-0.2 0.9-0.7 1.8-0.7 0.8 0 1.3 0.3 1.7 0.7"/>
						<path id="path6699" fill-rule="evenodd" class="s15" d="m208.2 169.4c0.4-0.2 1-0.3 1.2-0.3 0.3 0 0.9 0.2 1.1 0.3"/>
					</g>
					<g id="g6701">
						<path id="path6703" fill-rule="evenodd" class="s14" d="m201.5 171.9c0-2 1.5-5.1 2.7-7 1 2 2.1 5.3 2.1 7.2-0.2 3.6-4.9 3.3-4.8-0.2z"/>
						<path id="path6705" fill-rule="evenodd" class="s14" d="m202.1 171.9c0-1.5 1.1-3.8 2-5.2 0.7 1.5 1.6 3.9 1.5 5.3-0.1 2.7-3.6 2.5-3.5-0.1z"/>
						<path id="path6707" fill-rule="evenodd" class="s15" d="m202.1 171.8c0.3-0.2 0.9-0.6 1.8-0.6 0.8 0.1 1.3 0.4 1.7 0.7"/>
						<path id="path6709" fill-rule="evenodd" class="s15" d="m202.8 169.4c0.4-0.3 1-0.4 1.2-0.3 0.3 0 0.9 0.2 1.1 0.4"/>
					</g>
					<g id="g6711">
						<g id="g6713">
							<path id="path6715" fill-rule="evenodd" class="s14" d="m212.8 172c-0.3-2 0.7-5.3 1.6-7.4 1.3 1.9 2.9 4.9 3.1 6.8 0.4 3.7-4.3 4-4.7 0.6z"/>
							<path id="path6717" fill-rule="evenodd" class="s14" d="m213.4 171.9c-0.2-1.5 0.5-3.9 1.2-5.5 0.9 1.4 2.2 3.7 2.3 5.1 0.3 2.7-3.2 2.9-3.5 0.4z"/>
							<path id="path6719" fill-rule="evenodd" class="s15" d="m213.4 171.8c0.2-0.3 0.8-0.8 1.7-0.9 0.8-0.1 1.3 0.2 1.7 0.5"/>
							<path id="path6721" fill-rule="evenodd" class="s15" d="m213.7 169.2c0.3-0.2 0.9-0.4 1.2-0.4 0.3-0.1 0.8 0.1 1.1 0.2"/>
						</g>
					</g>
					<g id="g6723">
						<path id="path6725" fill-rule="evenodd" class="s14" d="m163.8 152c1.6-1.2 5-1.8 7.3-1.9-1.1 2-3.1 4.8-4.7 5.8-3 2-5.5-2-2.6-3.9z"/>
						<path id="path6727" fill-rule="evenodd" class="s14" d="m164.2 152.5c1.2-0.9 3.7-1.3 5.4-1.4-0.8 1.4-2.3 3.5-3.5 4.3-2.2 1.5-4-1.5-1.9-2.9z"/>
						<path id="path6729" fill-rule="evenodd" class="s15" d="m164.2 152.4c0.4 0.1 1.1 0.4 1.5 1.1 0.5 0.7 0.5 1.3 0.5 1.8"/>
						<path id="path6731" fill-rule="evenodd" class="s15" d="m166.7 151.6c0.3 0.1 0.8 0.5 0.9 0.8 0.2 0.2 0.3 0.8 0.3 1.1"/>
					</g>
					<g id="g6733">
						<path id="path6735" fill-rule="evenodd" class="s14" d="m161.1 147.2c1.8-1 5.2-1.2 7.5-1.1-1.3 1.8-3.5 4.5-5.2 5.3-3.2 1.7-5.3-2.5-2.3-4.2z"/>
						<path id="path6737" fill-rule="evenodd" class="s14" d="m161.5 147.8c1.3-0.8 3.8-1 5.5-0.9-0.9 1.4-2.6 3.3-3.9 4-2.4 1.2-3.9-1.9-1.6-3.1z"/>
						<path id="path6739" fill-rule="evenodd" class="s15" d="m161.6 147.7c0.3 0.2 1 0.5 1.4 1.3 0.4 0.7 0.3 1.3 0.2 1.8"/>
						<path id="path6741" fill-rule="evenodd" class="s15" d="m164.1 147.1c0.3 0.2 0.7 0.7 0.8 0.9 0.1 0.3 0.2 0.8 0.2 1.1"/>
					</g>
					<g id="g6743">
						<path id="path6745" fill-rule="evenodd" class="s14" d="m167 156.5c1.5-1.3 4.7-2.4 6.9-2.9-0.8 2.1-2.3 5.2-3.7 6.5-2.7 2.4-5.7-1.2-3.2-3.6z"/>
						<path id="path6747" fill-rule="evenodd" class="s14" d="m167.4 157c1.1-1.1 3.5-1.8 5.2-2.2-0.6 1.6-1.7 3.8-2.8 4.8-2 1.8-4.2-0.9-2.4-2.6z"/>
						<path id="path6749" fill-rule="evenodd" class="s15" d="m167.5 156.9c0.3 0.1 1.1 0.2 1.7 0.9 0.5 0.6 0.6 1.2 0.6 1.7"/>
						<path id="path6751" fill-rule="evenodd" class="s15" d="m169.8 155.7c0.3 0.1 0.8 0.5 1 0.7 0.2 0.2 0.4 0.7 0.5 1"/>
					</g>
					<g id="g6753">
						<path id="path6755" fill-rule="evenodd" class="s14" d="m157.3 136.9c1.9-0.5 5.3 0 7.5 0.5-1.6 1.6-4.4 3.7-6.2 4.1-3.6 1-4.6-3.6-1.3-4.6z"/>
						<path id="path6757" fill-rule="evenodd" class="s14" d="m157.5 137.5c1.4-0.4 3.9 0 5.6 0.4-1.3 1.1-3.3 2.7-4.7 3-2.6 0.7-3.4-2.7-0.9-3.4z"/>
						<path id="path6759" fill-rule="evenodd" class="s15" d="m157.6 137.5c0.3 0.2 0.8 0.7 1.1 1.5 0.2 0.8 0 1.4-0.2 1.8"/>
						<path id="path6761" fill-rule="evenodd" class="s15" d="m160.2 137.4c0.2 0.3 0.5 0.8 0.6 1.1 0.1 0.3 0 0.9-0.1 1.2"/>
					</g>
					<g id="g6763">
						<path id="path6765" fill-rule="evenodd" class="s14" d="m155.9 131.6c2-0.5 5.4 0.1 7.5 0.8-1.7 1.5-4.5 3.4-6.4 3.9-3.6 0.7-4.4-3.9-1.1-4.7z"/>
						<path id="path6767" fill-rule="evenodd" class="s14" d="m156.1 132.2c1.5-0.4 4 0.1 5.6 0.6-1.3 1.1-3.4 2.5-4.8 2.8-2.6 0.6-3.3-2.8-0.8-3.4z"/>
						<path id="path6769" fill-rule="evenodd" class="s15" d="m156.2 132.2c0.3 0.2 0.8 0.7 1 1.5 0.2 0.9 0 1.4-0.2 1.9"/>
						<path id="path6771" fill-rule="evenodd" class="s15" d="m158.8 132.2c0.3 0.3 0.5 0.8 0.6 1.1 0 0.3 0 0.9-0.1 1.2"/>
					</g>
					<g id="g6773">
						<path id="path6775" fill-rule="evenodd" class="s14" d="m159 142.2c1.8-0.7 5.2-0.5 7.5-0.2-1.5 1.7-4 4-5.8 4.7-3.5 1.3-4.9-3.2-1.7-4.5z"/>
						<path id="path6777" fill-rule="evenodd" class="s14" d="m159.2 142.8c1.4-0.5 3.9-0.4 5.6-0.2-1.1 1.3-3 3-4.3 3.5-2.5 1-3.6-2.3-1.3-3.3z"/>
						<path id="path6779" fill-rule="evenodd" class="s15" d="m159.3 142.8c0.3 0.2 0.9 0.6 1.2 1.4 0.3 0.8 0.2 1.3 0 1.8"/>
						<path id="path6781" fill-rule="evenodd" class="s15" d="m161.9 142.5c0.3 0.2 0.6 0.7 0.7 1 0.1 0.2 0.1 0.8 0.1 1.1"/>
					</g>
					<g id="g6783">
						<path id="path6785" fill-rule="evenodd" class="s14" d="m175.2 164c1.1-1.7 3.9-3.7 5.9-4.8-0.2 2.3-0.8 5.7-1.8 7.3-1.9 3.1-5.8 0.5-4.1-2.5z"/>
						<path id="path6787" fill-rule="evenodd" class="s14" d="m175.8 164.3c0.8-1.3 2.8-2.7 4.3-3.5-0.1 1.6-0.5 4.1-1.3 5.3-1.4 2.3-4.3 0.4-3-1.8z"/>
						<path id="path6789" fill-rule="evenodd" class="s15" d="m175.8 164.3c0.4-0.1 1.1-0.2 1.9 0.3 0.7 0.4 0.9 1 1.1 1.4"/>
						<path id="path6791" fill-rule="evenodd" class="s15" d="m177.7 162.4c0.4 0 0.9 0.2 1.2 0.4 0.2 0.1 0.6 0.6 0.7 0.8"/>
					</g>
					<g id="g6793">
						<path id="path6795" fill-rule="evenodd" class="s14" d="m170.8 160.5c1.3-1.5 4.4-3 6.5-3.7-0.5 2.2-1.6 5.4-2.9 6.9-2.4 2.7-5.8-0.5-3.6-3.2z"/>
						<path id="path6797" fill-rule="evenodd" class="s14" d="m171.3 160.9c1-1.1 3.3-2.2 4.8-2.8-0.3 1.6-1.2 4.1-2.1 5.1-1.8 2.1-4.3-0.3-2.7-2.3z"/>
						<path id="path6799" fill-rule="evenodd" class="s15" d="m171.4 160.9c0.3 0 1.1 0.1 1.7 0.6 0.7 0.6 0.8 1.1 0.9 1.6"/>
						<path id="path6801" fill-rule="evenodd" class="s15" d="m173.5 159.4c0.4 0 0.9 0.3 1.1 0.5 0.2 0.2 0.5 0.7 0.6 1"/>
					</g>
					<g id="g6803">
						<path id="path6805" fill-rule="evenodd" class="s14" d="m180.1 166.7c0.8-1.8 3.4-4 5.3-5.3 0 2.2-0.1 5.7-1 7.4-1.5 3.3-5.7 1.1-4.3-2.1z"/>
						<path id="path6807" fill-rule="evenodd" class="s14" d="m180.7 167c0.6-1.4 2.5-3.1 3.9-4 0 1.6-0.1 4.2-0.7 5.5-1.2 2.4-4.3 0.8-3.2-1.5z"/>
						<path id="path6809" fill-rule="evenodd" class="s15" d="m180.7 166.9c0.4-0.1 1.1-0.2 1.9 0.2 0.8 0.3 1.1 0.8 1.3 1.3"/>
						<path id="path6811" fill-rule="evenodd" class="s15" d="m182.4 164.9c0.3-0.1 0.9 0.1 1.2 0.2 0.2 0.1 0.7 0.6 0.8 0.8"/>
					</g>
					<g id="g6813">
						<path id="path6815" fill-rule="evenodd" class="s14" d="m190.6 170.4c0.4-2 2.4-4.8 3.9-6.5 0.6 2.2 1.2 5.6 0.8 7.5-0.8 3.5-5.4 2.4-4.7-1z"/>
						<path id="path6817" fill-rule="evenodd" class="s14" d="m191.2 170.5c0.3-1.5 1.8-3.5 2.9-4.8 0.4 1.6 0.9 4.1 0.6 5.5-0.6 2.7-4 1.8-3.5-0.7z"/>
						<path id="path6819" fill-rule="evenodd" class="s15" d="m191.3 170.4c0.3-0.2 1-0.4 1.8-0.3 0.8 0.2 1.2 0.6 1.5 1"/>
						<path id="path6821" fill-rule="evenodd" class="s15" d="m192.4 168.1c0.3-0.2 0.9-0.2 1.2-0.1 0.3 0.1 0.8 0.4 1 0.6"/>
					</g>
					<g id="g6823">
						<path id="path6825" fill-rule="evenodd" class="s14" d="m185.3 168.9c0.6-1.9 2.8-4.5 4.5-6.1 0.4 2.3 0.6 5.7 0.1 7.5-1.2 3.5-5.6 1.9-4.6-1.4z"/>
						<path id="path6827" fill-rule="evenodd" class="s14" d="m185.9 169c0.4-1.4 2.1-3.3 3.3-4.4 0.3 1.6 0.5 4.1 0.1 5.5-0.8 2.6-4.1 1.4-3.4-1.1z"/>
						<path id="path6829" fill-rule="evenodd" class="s15" d="m185.9 169c0.4-0.2 1.1-0.4 1.9-0.1 0.8 0.2 1.2 0.7 1.4 1.1"/>
						<path id="path6831" fill-rule="evenodd" class="s15" d="m187.3 166.8c0.3-0.1 1-0.1 1.2 0 0.3 0.1 0.8 0.5 1 0.7"/>
					</g>
					<g id="g6833">
						<path id="path6835" fill-rule="evenodd" class="s14" d="m195.9 171.4c0.2-2 1.9-5 3.2-6.8 0.8 2 1.8 5.4 1.6 7.3-0.4 3.6-5.1 2.9-4.8-0.5z"/>
						<path id="path6837" fill-rule="evenodd" class="s14" d="m196.6 171.4c0.1-1.5 1.3-3.7 2.3-5.1 0.6 1.6 1.3 4 1.2 5.5-0.3 2.6-3.8 2.2-3.5-0.4z"/>
						<path id="path6839" fill-rule="evenodd" class="s15" d="m196.6 171.3c0.3-0.2 0.9-0.5 1.8-0.4 0.8 0 1.3 0.4 1.6 0.8"/>
						<path id="path6841" fill-rule="evenodd" class="s15" d="m197.4 168.9c0.4-0.2 1-0.2 1.3-0.2 0.2 0 0.8 0.3 1 0.5"/>
					</g>
					<g id="g6843">
						<path id="path6845" fill-rule="evenodd" class="s14" d="m240.6 164.5c-1.1-1.6-1.8-5-2-7.3 2 1.1 4.9 3 6 4.5 2 3-1.9 5.6-4 2.8z"/>
						<path id="path6847" fill-rule="evenodd" class="s14" d="m241.1 164.1c-0.8-1.2-1.3-3.7-1.5-5.4 1.5 0.8 3.6 2.2 4.4 3.3 1.6 2.3-1.4 4.2-2.9 2.1z"/>
						<path id="path6849" fill-rule="evenodd" class="s15" d="m241.1 164c0.1-0.3 0.4-1 1.1-1.5 0.6-0.5 1.2-0.5 1.7-0.5"/>
						<path id="path6851" fill-rule="evenodd" class="s15" d="m240.2 161.6c0.1-0.3 0.5-0.8 0.7-0.9 0.3-0.2 0.9-0.4 1.1-0.4"/>
					</g>
					<g id="g6853">
						<path id="path6855" fill-rule="evenodd" class="s14" d="m235.6 167.1c-1.1-1.7-1.5-5.1-1.5-7.4 1.9 1.2 4.7 3.3 5.6 5 1.8 3.2-2.4 5.4-4.1 2.4z"/>
						<path id="path6857" fill-rule="evenodd" class="s14" d="m236.1 166.8c-0.8-1.3-1.1-3.8-1.1-5.5 1.4 0.9 3.4 2.4 4.1 3.7 1.4 2.3-1.7 3.9-3 1.8z"/>
						<path id="path6859" fill-rule="evenodd" class="s15" d="m236.1 166.7c0.1-0.3 0.4-1 1.1-1.5 0.8-0.4 1.3-0.4 1.8-0.3"/>
						<path id="path6861" fill-rule="evenodd" class="s15" d="m235.3 164.2c0.2-0.3 0.7-0.7 0.9-0.9 0.2-0.1 0.8-0.2 1.1-0.2"/>
					</g>
					<g id="g6863">
						<g id="g6865">
							<path id="path6867" fill-rule="evenodd" class="s14" d="m245.5 161.3c-1.4-1.4-2.6-4.6-3.1-6.9 2.1 0.8 5.2 2.2 6.6 3.6 2.5 2.6-1.1 5.8-3.5 3.3z"/>
							<path id="path6869" fill-rule="evenodd" class="s14" d="m245.9 160.8c-1-1-1.9-3.4-2.3-5 1.6 0.5 3.9 1.6 4.9 2.6 1.8 1.9-0.8 4.2-2.6 2.4z"/>
							<path id="path6871" fill-rule="evenodd" class="s15" d="m245.9 160.8c0-0.4 0.2-1.1 0.8-1.7 0.6-0.6 1.2-0.7 1.7-0.7"/>
							<path id="path6873" fill-rule="evenodd" class="s15" d="m244.6 158.5c0.1-0.3 0.4-0.8 0.6-1 0.2-0.2 0.8-0.5 1.1-0.5"/>
						</g>
					</g>
					<g id="g6875">
						<path id="path6877" fill-rule="evenodd" class="s14" d="m253.9 153.2c-1.8-1-3.8-3.7-4.9-5.7 2.2 0.1 5.6 0.6 7.3 1.6 3.1 1.9 0.6 5.8-2.4 4.1z"/>
						<path id="path6879" fill-rule="evenodd" class="s14" d="m254.1 152.7c-1.3-0.8-2.8-2.8-3.6-4.3 1.7 0.1 4.2 0.5 5.4 1.2 2.3 1.4 0.5 4.3-1.8 3.1z"/>
						<path id="path6881" fill-rule="evenodd" class="s15" d="m254.1 152.6c-0.1-0.3-0.1-1.1 0.3-1.8 0.4-0.8 0.9-1 1.4-1.2"/>
						<path id="path6883" fill-rule="evenodd" class="s15" d="m252.2 150.8c0-0.4 0.2-0.9 0.3-1.2 0.2-0.2 0.6-0.6 0.9-0.7"/>
					</g>
					<g id="g6885">
						<path id="path6887" fill-rule="evenodd" class="s14" d="m249.9 157.6c-1.6-1.3-3.1-4.3-4-6.4 2.3 0.4 5.6 1.4 7 2.6 2.9 2.3-0.2 5.9-3 3.8z"/>
						<path id="path6889" fill-rule="evenodd" class="s14" d="m250.3 157c-1.2-0.9-2.3-3.1-3-4.7 1.7 0.4 4.1 1.1 5.2 2 2.1 1.7-0.2 4.3-2.2 2.7z"/>
						<path id="path6891" fill-rule="evenodd" class="s15" d="m250.3 157c-0.1-0.4 0-1.1 0.5-1.8 0.6-0.6 1.1-0.8 1.6-0.9"/>
						<path id="path6893" fill-rule="evenodd" class="s15" d="m248.7 154.9c0-0.3 0.3-0.9 0.5-1.1 0.2-0.2 0.7-0.5 0.9-0.6"/>
					</g>
					<g id="g6895">
						<path id="path6897" fill-rule="evenodd" class="s14" d="m257 148.5c-1.8-0.9-4-3.5-5.2-5.5 2.3 0 5.7 0.4 7.4 1.3 3.2 1.7 0.8 5.8-2.2 4.2z"/>
						<path id="path6899" fill-rule="evenodd" class="s14" d="m257.2 148c-1.3-0.7-2.9-2.7-3.8-4.1 1.7 0 4.2 0.3 5.5 0.9 2.3 1.3 0.6 4.3-1.7 3.2z"/>
						<path id="path6901" fill-rule="evenodd" class="s15" d="m257.2 147.9c-0.1-0.3-0.2-1.1 0.2-1.8 0.4-0.8 0.9-1.1 1.4-1.2"/>
						<path id="path6903" fill-rule="evenodd" class="s15" d="m255.2 146.2c0-0.4 0.1-1 0.3-1.2 0.1-0.3 0.6-0.7 0.8-0.8"/>
					</g>
					<g id="g6905">
						<path id="path6907" fill-rule="evenodd" class="s14" d="m261.6 138.6c-2-0.6-4.5-2.9-6.1-4.6 2.2-0.3 5.7-0.6 7.5 0 3.5 1.1 1.9 5.6-1.4 4.6z"/>
						<path id="path6909" fill-rule="evenodd" class="s14" d="m261.7 137.9c-1.4-0.4-3.3-2.1-4.5-3.3 1.7-0.3 4.2-0.5 5.6 0 2.5 0.8 1.3 4.1-1.1 3.3z"/>
						<path id="path6911" fill-rule="evenodd" class="s15" d="m261.6 137.9c-0.1-0.3-0.3-1-0.1-1.9 0.3-0.8 0.7-1.1 1.2-1.4"/>
						<path id="path6913" fill-rule="evenodd" class="s15" d="m259.4 136.6c-0.1-0.4 0-1 0.1-1.3 0.1-0.2 0.4-0.7 0.7-0.9"/>
					</g>
					<g id="g6915">
						<path id="path6917" fill-rule="evenodd" class="s14" d="m259.6 143.6c-1.8-0.7-4.2-3.2-5.6-5 2.2-0.2 5.7-0.2 7.4 0.6 3.4 1.4 1.4 5.7-1.8 4.4z"/>
						<path id="path6919" fill-rule="evenodd" class="s14" d="m259.8 143c-1.4-0.5-3.1-2.4-4.1-3.7 1.6-0.1 4.2-0.1 5.5 0.4 2.5 1.1 1 4.2-1.4 3.3z"/>
						<path id="path6921" fill-rule="evenodd" class="s15" d="m259.8 143c-0.1-0.4-0.3-1.1 0-1.9 0.3-0.8 0.8-1.1 1.3-1.3"/>
						<path id="path6923" fill-rule="evenodd" class="s15" d="m257.7 141.4c-0.1-0.3 0-0.9 0.1-1.2 0.1-0.3 0.5-0.7 0.8-0.9"/>
					</g>
					<g id="g6925">
						<path id="path6927" fill-rule="evenodd" class="s14" d="m263.3 133.3c-2-0.4-4.8-2.3-6.5-3.9 2.2-0.6 5.6-1.2 7.4-0.8 3.6 0.8 2.5 5.4-0.9 4.7z"/>
						<path id="path6929" fill-rule="evenodd" class="s14" d="m263.4 132.7c-1.5-0.3-3.6-1.8-4.8-2.9 1.6-0.4 4.1-0.9 5.5-0.6 2.6 0.6 1.8 4-0.7 3.5z"/>
						<path id="path6931" fill-rule="evenodd" class="s15" d="m263.3 132.7c-0.2-0.3-0.5-1.1-0.3-1.9 0.2-0.8 0.6-1.2 1-1.5"/>
						<path id="path6933" fill-rule="evenodd" class="s15" d="m261 131.5c-0.2-0.3-0.2-0.9-0.1-1.2 0-0.3 0.3-0.8 0.5-1"/>
					</g>
				</g>
			</g>
			<path id="path26236" fill-rule="evenodd" class="s16" d="m279.5 464.2l-1.2 0.3 0.8 12c0.1 17.8 0.5 36.6 4.1 49.6l5.3-8.5 10 8.6c-3-31.1-9.3-22.2-19-62z"/>
			<path id="path6948" fill-rule="evenodd" class="s15" d="m284.6 533.5l5.9-8.3 7.8 6.6"/>
			<path id="path6950" fill-rule="evenodd" class="s15" d="m285.6 540.7l5.7-8 7.6 6.3"/>
			<path id="path6952" fill-rule="evenodd" class="s15" d="m286.6 548.2l5.5-7.7 7.4 6.2"/>
			<path id="path6954" fill-rule="evenodd" class="s15" d="m287.7 556.3l5.5-7.7 7.1 6"/>
			<path id="path6956" fill-rule="evenodd" class="s15" d="m288.7 563.7l5.3-7.6 7.1 6"/>
			<path id="path6958" fill-rule="evenodd" class="s15" d="m289.8 571.5l5-7.3 6.9 5.9"/>
			<path id="path6960" fill-rule="evenodd" class="s15" d="m291 579.2l4.9-7.1 6.7 5.7"/>
			<path id="path6962" fill-rule="evenodd" class="s15" d="m292 586.5l4.7-6.8 6.5 5.5"/>
			<path id="path6964" fill-rule="evenodd" class="s15" d="m292.9 593.4l4.6-6.6 6.3 5.3"/>
			<path id="path6966" fill-rule="evenodd" class="s15" d="m293.6 600.7l4.8-6.4 6.1 5"/>
			<path id="path6968" fill-rule="evenodd" class="s15" d="m294.5 608l4.9-6.2 5.8 4.9"/>
			<path id="path6970" fill-rule="evenodd" class="s15" d="m295.4 615.4l4.6-5.8 6.2 4.6"/>
			<path id="path6972" fill-rule="evenodd" class="s15" d="m296.5 622.7l4.6-5.7 5.7 4.2"/>
			<path id="path6974" fill-rule="evenodd" class="s15" d="m299.1 641.5l4.4-5.1 5.5 3.5"/>
			<path id="path27707" fill-rule="evenodd" class="s15" d="m298.2 635.7l4.4-5.6 5.7 3.9"/>
			<path id="path27709" fill-rule="evenodd" class="s15" d="m297.4 629l4.5-5.1 5.5 3.7"/>
			<path id="path27711" fill-rule="evenodd" class="s15" d="m300 648.1l4.5-5.3 5.3 4"/>
			<path id="path27713" fill-rule="evenodd" class="s15" d="m300.9 654.3l4.2-5.1 5.5 3.5"/>
			<path id="path27755" fill-rule="evenodd" class="s15" d="m302.4 666.5l4.4-5 5.7 3.5"/>
			<path id="path27757" fill-rule="evenodd" class="s15" d="m301.7 660.3l4.2-4.8 5.6 3.6"/>
			<path id="path27759" fill-rule="evenodd" class="s15" d="m302.7 668.7l10.2-1.5"/>
			<g id="g22363">
				<path id="path2718" fill-rule="evenodd" class="s17" d="m294.3 459.7c2.7-0.9 4.9-0.6 7.1 0l-1.3-33.7 16.1 1c-0.5-2.4-0.7-4.8 0-7.2l-16.1 1.1c3.4-6 8.1-11.3 9.8-20.1 3.4-17.8-5.6-17.1-11.9-17.1-6.9-0.1-17 1-12.8 17.8 2 7.8 6.7 13.9 10.5 19.4l-18.1-1.1q0.9 3.6 0 7.2l18.1-1z"/>
				<path id="path2720" fill-rule="evenodd" class="s7" d="m295.7 415.9c-3.5-4.7-6.8-9.3-7.7-15.3-1.7-12.3 4.7-13.7 9.9-13.7 4.6-0.1 11.3 0.6 8.3 13.5-1.4 6.1-3.6 11.6-6.1 15.5-1.5 2.1-3.2 1.8-4.4 0z"/>
			</g>
			<path id="path2716" fill-rule="evenodd" class="s2" d="m309.7 363.4l-19.8-0.5c-1 5-3.5 10.2-5.9 15.5-3.1 5-3.3 11.4-2.4 17.5l-0.4 5.7c8.9 1.1 0.3-10.8 6-15.2l0.8 8.2c1.7 1.5 3.3 2.7 4.6 0.3q2.4 2.7 4.8-0.3c1.9 2.5 3.5 0.7 5.1 0 1.8 1.4 3.7 1.9 4.9-1.3 0.4-8.7 3-17.1 2.3-29.9z"/>
			<g id="g13453">
				<g id="g31785">
					<path id="path31787" fill-rule="evenodd" class="s3" d="m289.7 351.7l20.8 0.2-0.8 13.1-19.9-0.8z"/>
					<path id="path31789" fill-rule="evenodd" class="s4" d="m289.7 353.6l20.7 0.3-0.2 4-20.4-0.3z"/>
				</g>
				<path id="path13439" fill-rule="evenodd" class="s3" d="m289.5 351.6l20.9 0.3-0.6 13-20.2-0.7z"/>
				<path id="path13441" fill-rule="evenodd" class="s4" d="m289.5 353.6l20.9 0.3-0.3 4-20.5-0.3z"/>
				<path id="path13451" fill-rule="evenodd" class="s4" d="m289.6 358.8l20.5 0.3-0.3 4.1-20.2-0.4z"/>
			</g>
			<path id="path2694" fill-rule="evenodd" class="s2" d="m78.2 339.6c-10.2 1.6-22.7 5.4-31 19l-5.1 3.1c2.7 6 8 2.6 9.7-0.5-1 2.7-0.4 4.5 2.8 4.5-0.7 2.5 0.2 4 3.2 4.1-1.6 2.5 0.3 4.7 3.1 4.2-1 3.2 0.8 4.6 2.5 4.6 4.6 2 25-23.4 27.1-25.6"/>
			<path id="path2722" fill-rule="evenodd" class="s17" d="m51.8 147.9c0.8-7.2-0.4-13.4 2.6-22.1 3.5-10.6 7.1-12.4 11.2-17.9 1.6-1.3 4.2 0 3.4 2.5-4.9 4.5-8.3 10.6-9.7 14.1 1.4-0.2 8.4-0.7 8.6 6.5l-0.1 492.8c7.8 8.9 1.1 15.8 1.5 23.5-0.7 0.4-1.4 0.1-1.5-0.5-1-8.5 1.9-12.2 0-16.6-0.9-2.1-2.6-2-3.6-0.2-2.1 3.9 0.8 6.2 0.1 16.7-0.1 0.8-1 1-1.4 0.5-0.5-7.8-5.9-14.3 1.3-23.4l-0.1-492.2c-0.4-4-4.7-4.5-6.9 0.1-2.5 5.3-1.4 10.8-2.1 16.3-1.1 3.5-3.5 2.1-3.3-0.1z"/>
			<path id="path2694 copy" fill-rule="evenodd" class="s2" d="m78.2 339.6c-10.2 1.6-22.7 5.4-31 19l-5.1 3.1c2.7 6 8 2.6 9.7-0.5-1 2.7-0.4 4.5 2.8 4.5-0.7 2.5 0.2 4 3.2 4.1-1.6 2.5 0.3 4.7 3.1 4.2"/>
			<g id="g31791">
				<path id="path31793" fill-rule="evenodd" class="s3" d="m78.6 326.4l21.4 12.6-9.2 14-17.6-12.8z"/>
				<path id="path31795" fill-rule="evenodd" class="s4" d="m77.9 328.1l20.9 13.1-2.7 3.9-19.7-13z"/>
				<path id="path13461" fill-rule="evenodd" class="s4" d="m75.6 334.2l18.9 13.1-2.9 4.4-17.7-13.1z"/>
			</g>
			<path id="path17387" fill-rule="evenodd" class="s2" d="m64.8 350.4q0.3-0.3 0.7-0.5c-0.3 1.3 0.9 2.9 3 3l-3-3c3.4-2.2 7.1-1.6 3.9 2.3 2.9-2.9 9-2.4 3 3.4q0.1 0 0.2-0.1c-1.2 1.5 0.6 4.7 3.2 3.4l-3.2-3.4c5.3-3.1 5.6 1.3 2.8 3.8 3.7-2.3 4.7 1.3 0.9 5-3.8 4.7-8.2 9.5-12.5 14.2q-0.1 0.1-0.4 0.1c-1.7 0-3.4-1.2-2.4-4.5-2.8 0.6-4.7-1.7-3.1-4.2-3 0-3.9-1.5-3.2-4.1-3.3 0-4.1-1.3-3.1-4q0.2-0.4 0.4-0.6c4.6-4.9 8.8-8.5 12.6-10.7m4.7 1.8c-0.8 1.4 1.6 3.4 3 3.3zm6 7.1c-0.8 1.6 0.5 3.3 2 3.6zm-17.4 10.6c0.5-0.4 14.5-14.3 14.5-14.3zm-3.2-4.2c0.8-0.7 14.6-13.5 14.6-13.5zm17.8-10.3q0 0 0-0.1zm-11.5 18.8l14.4-14.9"/>
			<path id="path17436" fill-rule="evenodd" class="s7" d="m69.3 352.3c-0.2 0.2-0.3 0.6-0.8 0.6-2.5 0-3.1-2.5-3-3 3.4-2.2 7.1-1.6 3.9 2.3 3-2.8 9-2.4 3 3.4 5.5-3.3 5.9 1.1 3.1 3.6 3.3-2.1 4.4 0.7 1.9 3.8-1.5-0.4-2.8-2-1.9-3.8-2.5 1.2-4.1-2.2-3.1-3.6-1.5 0.2-3.9-1.8-3.1-3.3z"/>
			<g id="g10371">
				<path id="path10373" fill-rule="evenodd" class="s3" d="m117.5 185.1l33.9 1.3-1.8 17.6-34.7-2.4z"/>
				<path id="path10375" fill-rule="evenodd" class="s4" d="m117.2 187l34 1.8-0.6 5.1-34.2-1.7z"/>
				<path id="path10377" fill-rule="evenodd" class="s4" d="m116.2 194l34.2 2-0.6 5.5-34.5-1.9z"/>
			</g>
			<g id="g10395">
			</g>
			<path id="path10403" fill-rule="evenodd" class="s6" d="m273.3 474.4c-90.4-15.2-106.9-83.4-100.2-171.3l82.4-14.5c7.8 13 12.4 30.5 6.6 40 7.6 48.5 12.3 97.7 11.2 145.8z"/>
			<g id="g10718">
				<path id="path10409" fill-rule="evenodd" class="s3" d="m255.2 288.4l-6.2-29.8-75.8 36.7-0.3 7.6z"/>
				<path id="path10433" fill-rule="evenodd" class="s18" d="m222.6 277.3l6.6-2.7 1.7 4.1-6.8 2.4z"/>
				<path id="path10427" fill-rule="evenodd" class="s19" d="m231.8 273.5l6.1-2.6 1.9 4.8-6.2 2.1z"/>
				<path id="path10417" fill-rule="evenodd" class="s18" d="m240.6 270l6.9-2.9 2 5-7.1 2.5z"/>
				<path id="path10411" fill-rule="evenodd" class="s7" d="m249 258.5l0.7 3.7-73.1 32.1-3.3 0.9z"/>
				<path id="path10457" fill-rule="evenodd" class="s18" d="m185.8 292.3l6.1-2.4 0.9 2.3-6.2 2.2z"/>
				<path id="path10451" fill-rule="evenodd" class="s19" d="m194.9 288.7l6.4-2.7 1 2.7-6.5 2.3z"/>
				<path id="path10445" fill-rule="evenodd" class="s18" d="m203.9 285l6.6-2.8 1.3 3.3-6.8 2.3z"/>
				<path id="path10439" fill-rule="evenodd" class="s20" d="m213.3 281l6.7-2.8 1.6 3.9-6.8 2.4z"/>
				<path id="path10413" fill-rule="evenodd" class="s21" d="m251.6 271.6l-66.9 23.6"/>
				<path id="path10415" fill-rule="evenodd" class="s21" d="m250.4 265.8l-67.8 27.7"/>
				<path id="path10419" fill-rule="evenodd" class="s21" d="m239.6 270.3l2 4.6"/>
				<path id="path10421" fill-rule="evenodd" class="s21" d="m238.8 270.6l1.9 4.7"/>
				<path id="path10423" fill-rule="evenodd" class="s21" d="m249.2 266.3l2.1 5.3"/>
				<path id="path10425" fill-rule="evenodd" class="s21" d="m248.3 266.7l2.2 5.2"/>
				<path id="path10429" fill-rule="evenodd" class="s21" d="m231 273.9l1.9 4.2"/>
				<path id="path10431" fill-rule="evenodd" class="s21" d="m230 274.2l1.9 4.2"/>
				<path id="path10435" fill-rule="evenodd" class="s21" d="m221.8 277.6l1.5 3.7"/>
				<path id="path10437" fill-rule="evenodd" class="s21" d="m220.9 277.9l1.6 3.8"/>
				<path id="path10441" fill-rule="evenodd" class="s21" d="m212.2 281.5l1.5 3.2"/>
				<path id="path10443" fill-rule="evenodd" class="s21" d="m211.4 281.8l1.4 3.3"/>
				<path id="path10447" fill-rule="evenodd" class="s21" d="m203.1 285.3l1 2.8"/>
				<path id="path10449" fill-rule="evenodd" class="s21" d="m202.2 285.7l1.1 2.8"/>
				<path id="path10453" fill-rule="evenodd" class="s21" d="m194.1 289l0.7 2.5"/>
				<path id="path10455" fill-rule="evenodd" class="s21" d="m193 289.4l0.9 2.5"/>
				<path id="path10459" fill-rule="evenodd" class="s21" d="m185 292.6l0.8 2.1"/>
				<path id="path10461" fill-rule="evenodd" class="s21" d="m184.2 292.9l0.9 2.1"/>
				<path id="path10467" fill-rule="evenodd" class="s18" d="m243 280.6l7.2-2.1 1.5 5.2-7.4 1.6z"/>
				<path id="path10477" fill-rule="evenodd" class="s19" d="m233.9 283l6.3-1.8 1.5 4.9-6.5 1.4z"/>
				<path id="path10483" fill-rule="evenodd" class="s18" d="m224.3 285.8l6.9-2 1.1 4.3-6.9 1.6z"/>
				<path id="path10489" fill-rule="evenodd" class="s20" d="m214.7 288.4l6.9-2 1.2 4-7.1 1.7z"/>
				<path id="path10495" fill-rule="evenodd" class="s18" d="m204.9 291.4l6.8-2.1 1 3.4-7.2 1.6z"/>
				<path id="path10501" fill-rule="evenodd" class="s19" d="m195.5 293.9l6.7-1.9 0.7 2.9-6.7 1.5z"/>
				<path id="path10507" fill-rule="evenodd" class="s18" d="m186.5 296.5l6-1.6 0.6 2.3-6 1.4z"/>
				<path id="path10463" fill-rule="evenodd" class="s21" d="m254.1 283.3l-69.5 16"/>
				<path id="path10465" fill-rule="evenodd" class="s21" d="m252.9 277.6l-70 19.8"/>
				<path id="path10469" fill-rule="evenodd" class="s21" d="m242 280.8l1.4 4.8"/>
				<path id="path10471" fill-rule="evenodd" class="s21" d="m241.1 280.9l1.4 4.9"/>
				<path id="path10473" fill-rule="evenodd" class="s21" d="m252 277.9l1.5 5.4"/>
				<path id="path10475" fill-rule="evenodd" class="s21" d="m251.1 278.1l1.5 5.5"/>
				<path id="path10479" fill-rule="evenodd" class="s21" d="m233 283.4l1.4 4.3"/>
				<path id="path10481" fill-rule="evenodd" class="s21" d="m232 283.6l1.4 4.3"/>
				<path id="path10485" fill-rule="evenodd" class="s21" d="m223.4 286l1.1 3.9"/>
				<path id="path10487" fill-rule="evenodd" class="s21" d="m222.5 286.2l1.2 4"/>
				<path id="path10491" fill-rule="evenodd" class="s21" d="m213.5 288.8l1.1 3.4"/>
				<path id="path10493" fill-rule="evenodd" class="s21" d="m212.6 289l1.1 3.5"/>
				<path id="path10497" fill-rule="evenodd" class="s21" d="m204 291.6l0.7 2.9"/>
				<path id="path10499" fill-rule="evenodd" class="s21" d="m203 291.9l0.8 2.8"/>
				<path id="path10503" fill-rule="evenodd" class="s21" d="m194.5 294.2l0.7 2.5"/>
				<path id="path10505" fill-rule="evenodd" class="s21" d="m193.6 294.5l0.7 2.6"/>
				<path id="path10509" fill-rule="evenodd" class="s21" d="m185.8 296.6l0.6 2.2"/>
				<path id="path10511" fill-rule="evenodd" class="s21" d="m185.2 296.8l0.5 2.1"/>
				<path id="path10513" fill-rule="evenodd" class="s1" d="m185.4 295.6l66.6-22.2"/>
				<path id="path10515" fill-rule="evenodd" class="s1" d="m185.6 296.1l66.9-20.5"/>
				<path id="path10517" fill-rule="evenodd" class="s1" d="m184.7 299.9l69.6-15.3"/>
				<path id="path10519" fill-rule="evenodd" class="s1" d="m183.7 300.6l71.2-13.8"/>
				<path id="path10521" fill-rule="evenodd" class="s1" d="m179.2 293.6l70.7-30.3"/>
				<path id="path10523" fill-rule="evenodd" class="s1" d="m181 293.5l69.2-29"/>
				<path id="path10525" fill-rule="evenodd" class="s3" d="m172.9 303c7.9-1.8 13.7-1 12.6-6.9-0.8-4.3-8.2-2.3-12.3-0.9z"/>
			</g>
			<g id="g18488">
				<path id="path11979" fill-rule="evenodd" class="s5" d="m156.3 474.3l17-170.3 88.6-0.1c1.1 4.7 5.3 13.4 0.3 26 7.6 48.3 12.2 97.1 11.2 145.1z"/>
				<path id="path11981" fill-rule="evenodd" class="s6" d="m273.1 474.6c-90.4-15.2-106.9-83.4-100.1-171.3l82.4-14.5c7.8 13 12.6 31.4 6.7 40.9 7.6 48.5 12.1 96.8 11 144.9z"/>
				<path id="path7097" fill-rule="evenodd" class="s14" d="m255.2 288.8l-66.8 130.9"/>
				<path id="path12065" fill-rule="evenodd" class="s14" d="m251.2 289.5l-64.6 126.7"/>
				<path id="path7100" fill-rule="evenodd" class="s14" d="m184.9 412.4l62.4-122.2"/>
				<path id="path12069" fill-rule="evenodd" class="s14" d="m243.2 290.9l-60 117.6"/>
				<path id="path7103" fill-rule="evenodd" class="s14" d="m181.7 404.4l57.5-112.8"/>
				<path id="path12073" fill-rule="evenodd" class="s14" d="m235.2 292.3l-55 107.9"/>
				<path id="path7106" fill-rule="evenodd" class="s14" d="m178.8 395.7l52.4-102.7"/>
				<path id="path12077" fill-rule="evenodd" class="s14" d="m227.3 293.7l-49.7 97.3"/>
				<path id="path7109" fill-rule="evenodd" class="s14" d="m176.4 386.2l46.8-91.8"/>
				<path id="path12081" fill-rule="evenodd" class="s14" d="m219.2 295.2l-43.8 85.8"/>
				<path id="path7112" fill-rule="evenodd" class="s14" d="m174.5 375.7l40.7-79.8"/>
				<path id="path12085" fill-rule="evenodd" class="s14" d="m211.2 296.5l-37.5 73.6"/>
				<path id="path12087" fill-rule="evenodd" class="s14" d="m173 364.3l34.2-67"/>
				<path id="path12089" fill-rule="evenodd" class="s14" d="m203.2 298l-30.7 60.3"/>
				<path id="path12091" fill-rule="evenodd" class="s14" d="m172 352l27.2-53.3"/>
				<path id="path12093" fill-rule="evenodd" class="s14" d="m195.2 299.4l-23.4 45.9"/>
				<path id="path12095" fill-rule="evenodd" class="s14" d="m171.7 338.5l19.6-38.5"/>
				<path id="path12101" fill-rule="evenodd" class="s14" d="m187.2 300.8l-15.5 30.5"/>
				<path id="path12103" fill-rule="evenodd" class="s14" d="m171.9 323.8l11.4-22.3"/>
				<path id="path12105" fill-rule="evenodd" class="s14" d="m179.2 302.2l-7.1 14"/>
				<path id="path12107" fill-rule="evenodd" class="s14" d="m172.7 308l2.5-5.1"/>
				<path id="path12109" fill-rule="evenodd" class="s14" d="m257.3 292l-67 131.1"/>
				<path id="path12111" fill-rule="evenodd" class="s14" d="m192.3 426.4l66.7-130.7"/>
				<path id="path12113" fill-rule="evenodd" class="s14" d="m260.7 299.6l-66.4 129.9"/>
				<path id="path12115" fill-rule="evenodd" class="s14" d="m196.4 432.5l65.7-128.7"/>
				<path id="path12117" fill-rule="evenodd" class="s14" d="m263.4 308.5l-64.7 126.8"/>
				<path id="path12119" fill-rule="evenodd" class="s14" d="m200.9 438.1l63.5-124.4"/>
				<path id="path12121" fill-rule="evenodd" class="s14" d="m264.7 320.2l-61.4 120.4"/>
				<path id="path12123" fill-rule="evenodd" class="s14" d="m205.6 443.1l56.9-111.4"/>
				<path id="path12125" fill-rule="evenodd" class="s14" d="m263.3 337.2l-55.2 108.2"/>
				<path id="path12127" fill-rule="evenodd" class="s14" d="m210.5 447.7l53.6-104.9"/>
				<path id="path12129" fill-rule="evenodd" class="s14" d="m264.9 348.3l-51.8 101.6"/>
				<path id="path12131" fill-rule="evenodd" class="s14" d="m215.7 451.8l50-97.8"/>
				<path id="path12133" fill-rule="evenodd" class="s14" d="m266.4 359.6l-48 94.2"/>
				<path id="path12135" fill-rule="evenodd" class="s14" d="m221.1 455.6l46-90.2"/>
				<path id="path12137" fill-rule="evenodd" class="s14" d="m267.8 371.1l-44 86.2"/>
				<path id="path12139" fill-rule="evenodd" class="s14" d="m226.6 459l41.9-82.1"/>
				<path id="path12141" fill-rule="evenodd" class="s14" d="m269.1 383l-39.6 77.6"/>
				<path id="path12143" fill-rule="evenodd" class="s14" d="m232.4 462l37.4-73.3"/>
				<path id="path12145" fill-rule="evenodd" class="s14" d="m270.3 394.9l-35 68.5"/>
				<path id="path12147" fill-rule="evenodd" class="s14" d="m238.3 464.7l32.5-63.8"/>
				<path id="path12149" fill-rule="evenodd" class="s14" d="m271.2 407.2l-29.9 58.8"/>
				<path id="path12151" fill-rule="evenodd" class="s14" d="m244.3 467.2l27.4-53.8"/>
				<path id="path12153" fill-rule="evenodd" class="s14" d="m272.2 419.7l-24.8 48.5"/>
				<path id="path12155" fill-rule="evenodd" class="s14" d="m250.5 469.3l22-43.1"/>
				<path id="path12157" fill-rule="evenodd" class="s14" d="m272.8 432.8l-19.2 37.4"/>
				<path id="path12159" fill-rule="evenodd" class="s14" d="m256.9 471.1l16.2-31.8"/>
				<path id="path12161" fill-rule="evenodd" class="s14" d="m273.2 446.1l-13.1 25.8"/>
				<path id="path12163" fill-rule="evenodd" class="s14" d="m263.3 472.7l10-19.6"/>
				<path id="path12165" fill-rule="evenodd" class="s14" d="m273.4 460.1l-6.8 13.3"/>
				<path id="path12167" fill-rule="evenodd" class="s14" d="m269.9 474l3.4-6.6"/>
				<path id="path15477" fill-rule="evenodd" class="s1" d="m273.1 474.6c-90.5-15.2-106.9-83.4-100.1-171.3l82.4-14.5c7.8 13 12.5 31.4 6.6 40.9 7.7 48.5 12.2 96.8 11.1 144.9z"/>
			</g>
			<path id="path18544" fill-rule="evenodd" class="s22" d="m176.3 286.6c0 0.5-0.1 1-0.2 1.4q-0.3 0.6-0.6 0.6-0.3 0-0.6-0.6c-0.1-0.4-0.2-0.9-0.2-1.4 0-0.6 0.1-1.1 0.2-1.5q0.3-0.6 0.6-0.6 0.3 0 0.6 0.6c0.1 0.4 0.2 0.9 0.2 1.5z"/>
			<path id="path3150" fill-rule="evenodd" class="s23" d="m311 173.3c-0.1 4.6-0.3 9.1-0.1 13.7"/>
			<path id="path29166" fill-rule="evenodd" class="s6" d="m165 49.3l0.3-4.4 39.9-1.3 7.4 18.9-33-3.4z"/>
			<path id="path12008" fill-rule="evenodd" class="s24" d="m173.3 107.8c-5.5-0.6-10.1-2.4-14.7-4.7-2.5 12.4-9.7 38.6-15.8 48.7l17.1 5.8c2.3-13 6.1-36.6 13.4-49.8z"/>
			<g id="g29152">
				<path id="path7778" fill-rule="evenodd" class="s25" d="m224.2 60.3l2.4 38 4.2 25.1c-0.4 3.1 2 6.9 0.8 9.3-2.8 5.5-10.6 6.8-20.8 7.9-13.6 1.5-21.4-1.4-24.1-15.2-1.3-4.6-1.8-10-2.7-14.2-4.8 1.5-26.3-3.9-25.4-8.7 0.4-0.9 0.8-2.7 1.1-4.8 0-2-0.8-2.8-2.2-3-0.7 0.2-1.7-3.7 0.5-4.2-2.2 0.1-2.1-2.6-1.7-3.6 0.4-1.1 0.6-2.5 0.4-3.4-4.5-0.2-7.9-3.1-5.6-7.9 2.2-4.5 8.3-12.7 11.6-18.1-0.2-2.1 0.9-6.2 2.5-9.2 6.5-0.8 35-1.9 35.1 11.7z"/>
				<path id="path7780" fill-rule="evenodd" class="s26" d="m200.1 62.1c-1.2 32.3-10 50.2-39.2 44"/>
				<path id="path7782" fill-rule="evenodd" class="s24" d="m197.3 59.5c-2.5-0.6-4.9-1.5-7.1-2.8-4-2.5-7-5.8-12.7-7-4.5-0.8-8.6-0.4-11.2 0.8-2.7 1.1-1.5 3.3 0.6 2.5 2.1-0.8 5.9-1.5 9.6-0.8 3.6 0.8 9.2 5.1 12.7 7 3.5 1.9 5.4 2.3 7.9 2.8 0.4-0.9 0.4-1.7 0.2-2.5z"/>
				<path id="path7784" fill-rule="evenodd" class="s24" d="m197.5 63.6c-6.7-0.8-8.4-0.9-13.9-3-7.3-2.5-15.7-5.9-19.5 0.6-1.6 2.6-2.9 3.5 1.1 3.2 10.3 2.4 12.6 0.1 17.2-0.9 3.4 0.6 9 1.8 14.6 3.1 0.4-1 0.6-1.9 0.5-3z"/>
				<path id="path7786" fill-rule="evenodd" class="s1" d="m177.1 59.4c-3.7-1.5-7.2-2.3-10.1-0.2 0.3 2 1 3.6 2.7 4.4 2.1 0.4 5.6 0.2 6.9-0.9 1.3-1.2 1.7-2.7 0.5-3.3z"/>
				<path id="path7788" fill-rule="evenodd" class="s5" d="m181.1 62.1c-1.6-0.5-2.5-1.1-3.5-1.6 0.1 1.1-0.4 1.8-0.9 2.4 0.6 0.3 3.7-0.6 4.4-0.8z"/>
				<path id="path7790" fill-rule="evenodd" class="s5" d="m167.1 60.1c-1.2 1.4-1.6 1.9-1.8 3.3 1.6-0.2 3 0.5 4.4 0.2-1.8-1.1-2.4-2-2.6-3.5z"/>
				<path id="path7792" fill-rule="evenodd" class="s1" d="m156.3 86.9c3-1.3 5.6 0.5 7.9 1.5m2.7 0.5c-0.9 0.1-1.8-0.1-2.8-0.5z"/>
				<path id="path7792 copy" fill-rule="evenodd" class="s1" d="m157.1 94.1c3.4-0.7 7-2.9 10.7-1.3"/>
				<path id="path7796" fill-rule="evenodd" class="s1" d="m159.9 77.2c4.5 3.6 2.1 5.8 0 5.7-2.1-0.1-5.1-3.6-5.8-1.6-0.8 2 3.3 1.3 3.3 0.7"/>
				<path id="path7798" fill-rule="evenodd" class="s1" d="m167.5 90.7c-0.3-0.1-9.6-0.1-9.6-0.1"/>
				<path id="path16847" fill-rule="evenodd" class="s27" d="m157.7 82.1c-1.6-1-3.2-2.1-3.7-0.8-0.7 2 3.4 1.3 3.3 0.7"/>
			</g>
			<g id="g29076">
				<path id="path12452" fill-rule="evenodd" class="s6" d="m207 78.4c-3 9.4-1.3 101.8-2.3 116.6 24.7 0.1 25.9-18 26.3-37.1 0.3-13.7 0.9-24.5 1.6-34.5l28.9 3.9c3.6-3.8 10.6-8 10.7-11.3 3.5-18.9-1.7-50-12-71.2-15.2-30.9-39.7-33-58.4-30.4-16.7 2.2-34.7 7.8-36.3 30.4 17.5-1.7 31 0.7 42.5 6.2"/>
				<path id="path12456" fill-rule="evenodd" class="s1" d="m209.3 77.6c-2.2 39.5-1.3 78.2-1.7 117.2"/>
				<path id="path12458" fill-rule="evenodd" class="s28" d="m208.8 98.9l-0.4 5.6c19.2 5.4 37.1 13.3 54.7 21.2l0.6-0.6c-18-9.4-36.1-18.6-54.9-26.2z"/>
				<path id="path12460" fill-rule="evenodd" class="s28" d="m208.3 108l-0.1 5c18.2 3.7 36 8.9 54 13.6l0.7-0.7c-18-6.2-35.4-13.1-54.6-17.9z"/>
				<path id="path12462" fill-rule="evenodd" class="s28" d="m172.9 26.7c0.3 1.4 0.9 2.2 2.1 2 17.6-10.4 34.1-12.6 48.3-9.7 14.1 2.9 37.4 12.1 49.9 77.2l-2.1-16.7c-8.3-42.9-28.9-65.1-57.4-65.1-12.3-0.1-28.5 2.3-40.8 12.3z"/>
				<path id="path12464" fill-rule="evenodd" class="s28" d="m176.4 29.7l1.7 3.2c0.1 0 1-0.4 1.1-0.4 59.8-23.9 78.4 8.5 94.1 71.6l-0.1-4.7c-11.7-59.4-36.2-96.9-95.5-70.5-0.2 0.1-1.1 0.7-1.3 0.8z"/>
				<path id="path12466" fill-rule="evenodd" class="s28" d="m174.2 36.4l3.9 1.2c0.1 0 1.3-0.4 1.4-0.4 66.2-23.8 79.4 24 93.3 74.3l0.3-4.2c-14.8-62.4-35.6-96.5-94.1-72.8-0.2 0-4.6 1.8-4.8 1.9z"/>
				<path id="path12468" fill-rule="evenodd" class="s28" d="m179.3 39.8c-3.3 1.7-5.9 3.5-4.9 4.5 5-1.1 8.2-2.5 8.4-2.6 59.9-23 77.3 33.3 89.2 75.3 0.5-1.3 0.4-2.1 0.6-3.6-14.9-55.5-35.3-97.4-91.7-74.2-0.1 0-1.4 0.6-1.6 0.6z"/>
				<path id="path12470" fill-rule="evenodd" class="s28" d="m181.7 44.4c2.3 0.2 4.6 0.2 6.3 0.7 49-18.4 69.4 35.5 82.8 73.8l0.6-0.8c-11.1-40.8-34-95.8-84.3-75.8-0.1 0.1-5.3 2.1-5.4 2.1z"/>
				<path id="path12472" fill-rule="evenodd" class="s28" d="m193.6 45.9l5.5 1.5c35-9.3 57.5 43.7 70.5 72.8l0.8-0.9c-10.7-27.9-35-87.8-74.8-74.3-0.2 0-1.6 0.5-2 0.9z"/>
				<path id="path12474" fill-rule="evenodd" class="s28" d="m206.4 50.1l1.9 2c26.4 3.6 46.2 44.8 60.3 69l0.8-0.7c-11.1-22.6-33.6-71-60.5-71-0.5 0-1.6 0.1-2.5 0.7z"/>
				<path id="path12476" fill-rule="evenodd" class="s28" d="m218.4 59.3l-1.4 3.8c15.8 9.3 41.6 45.2 50.6 58.9l0.8-0.7c-16.9-27.1-33.6-53.7-50-62z"/>
				<path id="path12478" fill-rule="evenodd" class="s28" d="m216.1 65.5l-1.9 2.9c15.5 11.1 41.6 41.3 52.5 54.3l0.7-0.6c-10.1-13.3-31-42.9-51.3-56.6z"/>
				<path id="path12480" fill-rule="evenodd" class="s28" d="m212.4 71.5l-2.1 3.9c15 9.8 42.2 35.4 55.4 48.2l0.8-0.7c-12.9-13.1-36.9-40.9-54.1-51.4z"/>
				<path id="path12482" fill-rule="evenodd" class="s28" d="m209.2 79.2l-0.3 4.5c17.7 11.7 37 25.5 55.9 40.7l0.6-0.7c-17.5-16.1-37.1-31.3-56.2-44.5z"/>
				<path id="path12484" fill-rule="evenodd" class="s28" d="m208.7 87.7l-0.2 6.6c14.9 6.2 37.3 19.8 55.4 30.7l0.6-0.5c-17.7-12.4-36.7-24.6-55.8-36.8z"/>
				<path id="path12486" fill-rule="evenodd" class="s28" d="m207.8 116.9l0.1 4.6c17.3 1.2 36.7 3.8 53.7 5.8l0.3-0.4c-17.9-4.1-36.3-7.4-54.1-10z"/>
				<path id="path12488" fill-rule="evenodd" class="s28" d="m207.9 125v3.3h24.4l0.1-3.3z"/>
				<path id="path12490" fill-rule="evenodd" class="s28" d="m207.9 131.5v3.2h23.9l0.3-3.2z"/>
				<path id="path12492" fill-rule="evenodd" class="s28" d="m207.8 138.7v3.2h23.6l0.2-3.2z"/>
				<path id="path12494" fill-rule="evenodd" class="s28" d="m207.8 145.2v3.2h23.3l0.2-3.2z"/>
				<path id="path12496" fill-rule="evenodd" class="s28" d="m207.8 151.7v3.2h23.2v-3.2z"/>
				<path id="path12498" fill-rule="evenodd" class="s28" d="m207.8 158v3.3h23l0.1-3.3z"/>
				<path id="path12500" fill-rule="evenodd" class="s28" d="m207.6 164.6v3.3h22.9l0.3-3.3z"/>
				<path id="path12502" fill-rule="evenodd" class="s28" d="m207.6 171.3v3.3h22.2l0.3-3.3z"/>
				<path id="path12504" fill-rule="evenodd" class="s28" d="m207.8 177.4v3.3h20.4l0.9-3.3z"/>
				<path id="path12506" fill-rule="evenodd" class="s28" d="m207.6 183v3.2h17.8l1.9-3.2z"/>
				<path id="path12508" fill-rule="evenodd" class="s28" d="m207.6 189v3.2h11c1.8-1 3.4-2.1 4.4-3.2z"/>
				<path id="path15417" fill-rule="evenodd" class="s6" d="m164.9 44.7c-1.4 0-2.8-1.3-3.3-3.3-0.8-2.8-1.3-6.3-1.9-9.5-0.1-1 0-2 1.2-3q0-0.3-0.2-0.3c-1.5 0.1-2.8 0-3.5-1-0.1-0.3 0-0.4 0.1-0.6 1.1-0.8 2.6-0.8 3.2-0.3 1.7-0.1 4.9 0.2 5.4 4.9 0.2 1.4-0.6 3.9-0.7 5.5 0 0.5-0.1 1.3 0.1 1.8 1.1 2.5 5.3 2.1 7.8 1.9 1-0.2 2.2-0.3 3-1-0.8-0.5-2.3-0.3-3.4-0.4-1.8 0-3.4-0.2-4.8-1-1.5-0.9-0.3-3.8 0.9-5.1 1.3-1.4 2.9-1.2 4.8-1.2 0.9 0.1 0.2-0.3-0.3-0.5-1.2-0.4-3 0.4-2.9-1.1 0-1.4 1.9-3.4 2.7-4.4 3-3.3 6.2-5.2 8.9-6.3 2.5-1.3 3.9-2 4-1.6-6.5 2.7-15.4 9.3-11.7 10.3 1.1 0.5 2.2 0.9 3 1.9 0.9 1.2 1.1 3.2-0.2 4.2-1.4 1.1-3.3 0.6-4.9 0.7-0.7 0-2.2 0.2-2 0.7 0.2 0.4 4.5-0.2 6.9 0.6 1.5 0.4 2.6 2.1 2.2 3.7-0.3 1.8-2.1 3.2-3.8 3.6-3.4 0.5-6.4 0.8-10.6 0.8z"/>
				<path id="path4601" fill-rule="evenodd" class="s20" d="m164.5 37.5c-0.9 0.2-2 0.3-3 0.1 0 0 1 0.2 0-0.1q0.4 1.9 1 4.6c-0.1-1.4 1.9-1.4 2.1-0.7-0.2-1.6 0-0.1 0-0.1-0.2-1.5-0.2-2.7-0.1-3.8z"/>
				<path id="path22388" fill-rule="evenodd" class="s1" d="m164.5 41.3c-0.5-5.6 1.1-8.5 0.6-10.3-0.5-2.5-2.2-2.3-2.5-2.3-0.3 0-1.9 0.2-2.1 2.7 0 1.8 0.6 4.5 2 10.7"/>
				<path id="path4623" fill-rule="evenodd" class="s29" d="m160.8 33.7c1.3 0.6 2.9 0.7 4.2-0.2-0.1 1.1-0.4 2.4-0.5 4-0.9 0.2-2 0.3-3 0.1-0.3-1.6-0.6-2.8-0.7-3.9z"/>
				<path id="path22392" fill-rule="evenodd" class="s1" d="m160.8 33.8c1.3 0.5 2.8 0.6 4.2-0.2"/>
				<path id="path4633" fill-rule="evenodd" class="s28" d="m160.7 33.8c1.4 0.5 2.9 0.6 4.3-0.2 0.2-1.1 0.3-1.9 0.1-2.6-0.5-2.5-2.2-2.3-2.5-2.3-0.3 0-2 0.2-2.1 2.7 0 0.6 0.1 1.4 0.2 2.4z"/>
				<path id="path22394" fill-rule="evenodd" class="s1" d="m161.5 37.6c1 0.2 2 0.1 3-0.1"/>
				<path id="path2654" fill-rule="evenodd" class="s20" d="m165.1 28.9l-0.2-0.1c-0.8-0.5-1.3-1.2-2.6-1.5-0.7-0.2-1.6 0-2.4 0.2-0.4 0.1-0.7 0.1-1.1-0.2-0.3-0.3-1 0-1.5 0h-0.1q0-0.2 0.1-0.3c1.1-0.8 2.6-0.8 3.2-0.3 1.3-0.1 3.4 0 4.6 2.2z"/>
				<path id="path22396" fill-rule="evenodd" class="s1" d="m157.5 27.3c0.5 0 1.1-0.3 1.4 0 0.4 0.3 0.8 0.3 1.2 0.2 0.8-0.2 1.6-0.4 2.4-0.2 1.2 0.3 1.7 1 2.5 1.5"/>
				<path id="path22398" fill-rule="evenodd" class="s30" d="m159.9 27.1q0 0.1-0.1 0.2-0.2 0.1-0.3 0.1-0.2 0-0.3-0.1-0.1-0.1-0.1-0.2 0-0.1 0.1-0.2 0.1-0.1 0.3-0.1 0.1 0 0.3 0.1 0.1 0.1 0.1 0.2z"/>
				<path id="path23371" fill-rule="evenodd" class="s1" d="m162.5 42.1c-0.1-1.4 1.9-1.4 2.1-0.6"/>
				<path id="path23373" fill-rule="evenodd" class="s1" d="m162.5 42.1c0.8-0.2 1.5-0.2 2.2-0.6"/>
				<path id="path23375" fill-rule="evenodd" class="s1" d="m163.3 43.1c0.8-0.2 1.4-0.7 1.8-1.1"/>
				<path id="path23377" fill-rule="evenodd" class="s1" d="m164.2 43.5c0.6-0.3 1-0.5 1.4-1.1"/>
				<g id="g7619">
					<path id="path7593" fill-rule="evenodd" class="s1" d="m164.5 41.3c-0.5-5.6 1-8.5 0.6-10.3-0.5-2.5-2.2-2.3-2.5-2.3-0.3 0-2 0.2-2.1 2.7 0 1.8 0.6 4.5 2 10.7"/>
					<path id="path7597" fill-rule="evenodd" class="s1" d="m160.7 33.8c1.4 0.5 2.9 0.6 4.3-0.2"/>
					<path id="path7601" fill-rule="evenodd" class="s1" d="m161.5 37.6c1 0.2 2 0.1 3-0.1"/>
					<path id="path7609" fill-rule="evenodd" class="s21" d="m162.5 42.1c-0.1-1.4 1.9-1.4 2.1-0.6"/>
				</g>
				<path id="path22390" fill-rule="evenodd" class="s6" d="m163.1 41.1c-0.7-4.2-0.2-7.9-0.9-12.3q0.5-0.2 0.9-0.1c0.8 2.8 0.2 8.5 0.9 12.3"/>
				<path id="path14436" fill-rule="evenodd" class="s31" d="m162.2 42.4c1.1 2.4 4 2.1 8.2 1.6"/>
				<path id="path17345" fill-rule="evenodd" class="s32" d="m162.6 42.6c1.2 1.3 3.3 1.9 7.6 1"/>
				<path id="path19287" fill-rule="evenodd" class="s21" d="m162.5 42c-0.1-0.8 1.4-1.5 2.1-0.6"/>
				<path id="path24138" fill-rule="evenodd" class="s6" d="m261.8 127.3c4.5 0.7 9.1 1.3 13.6 2.7-1.2-4.2-2.5-7.6-4.2-11.4z"/>
				<path id="path24140" fill-rule="evenodd" class="s28" d="m273.8 125.4c-1.8 0.5-3.4 1.9-4.6 3l1.9 0.4c1.1-1 1.6-1.4 3.2-1.8z"/>
				<path id="path24142" fill-rule="evenodd" class="s28" d="m272.7 122.6c-2.6 1-5.2 3.1-7.1 5.2l1.9 0.3c1.8-1.9 3.4-3 5.8-4z"/>
				<path id="path24144" fill-rule="evenodd" class="s28" d="m271.7 119.8c-2 1.2-6.4 4.7-9.1 7.5l1.9 0.4c1.4-1.6 6-5.4 7.8-6.3z"/>
			</g>
			<g id="g29148">
				<path id="path2721" fill-rule="evenodd" class="s33" d="m204.3 66.6c-6.3 3-3.9 10.4-1.8 13.7 1.2 2.5 4 1.9 4.8 0.7 0.9-1.4 1.7-3.1 2.8-4.8 9.8-12.5 8.4-16 8.5-16.4 0-0.8-2-6.3-5.4-6-3 0.3-9.7 3.6-7 9.9 0.5 1.1-2.8 0.6-1.7 1.9"/>
				<path id="path7776" fill-rule="evenodd" class="s34" d="m206.6 73.1q0.1-0.1 0.1-0.1v0.1c-2.8 1.9-2.6 3-2.9 3.7-0.2 0.7 0.7-0.3 4.1-2.3 4.7-6.8 5.8-11.6 0.7-12.8l-0.8 4.8c-6.3-8.1 1.9-12.4 5.3-12.7 3.5-0.3 5.5 5.2 5.4 6 0 0.4 1.3 3.9-8.4 16.4-1.2 1.7-2 3.4-2.8 4.8-0.8 1.2-3.6 1.8-4.9-0.7-2.1-3.3-1.9-7.8 4.4-10.7m-0.1 3.4l1.1-6.5q0.3 0.4 0.7 0.8c1.6 1.8 0 3.4-1.8 5.7z"/>
			</g>
			<path id="path32521" fill-rule="evenodd" class="s5" d="m172.8 303.4c-30.6 57.8-60.6 114.7-93.8 171.9l191.7-0.2"/>
			<g id="g58011">
				<path id="path32569" fill-rule="evenodd" class="s14" d="m143.6 373.9l-45.7 69.6"/>
				<path id="path32571" fill-rule="evenodd" class="s14" d="m152.8 380.7l-54.8 66.1"/>
				<path id="path32573" fill-rule="evenodd" class="s14" d="m156.7 393.1l-59.7 57.6"/>
				<path id="path32575" fill-rule="evenodd" class="s14" d="m162.7 403.9l-67.3 51"/>
				<path id="path32577" fill-rule="evenodd" class="s14" d="m161.8 418l-67.4 40.7"/>
				<path id="path32579" fill-rule="evenodd" class="s14" d="m166.8 421.3l-71.9 38.7"/>
				<path id="path32581" fill-rule="evenodd" class="s14" d="m95.2 461.1l86.7-41.9"/>
				<path id="path32583" fill-rule="evenodd" class="s14" d="m228.6 401.9l-133.1 60.6"/>
				<path id="path32585" fill-rule="evenodd" class="s14" d="m235.3 413.7l-137 50.4"/>
				<path id="path32587" fill-rule="evenodd" class="s14" d="m241.2 424l-141.8 42.3"/>
				<path id="path32589" fill-rule="evenodd" class="s14" d="m247 434.3l-147.1 34.3"/>
				<path id="path32591" fill-rule="evenodd" class="s14" d="m254.2 446.8l-153.7 24.5"/>
				<path id="path57022" fill-rule="evenodd" class="s14" d="m258.2 453.9l-155.9 18.4"/>
				<path id="path57024" fill-rule="evenodd" class="s14" d="m266.5 468.2l-164.4 6.1"/>
				<path id="path32593" fill-rule="evenodd" class="s14" d="m262.7 461.7l-154.7 11.4"/>
				<path id="path57028" fill-rule="evenodd" class="s14" d="m244.3 429.3l-145.6 38.2"/>
				<path id="path57030" fill-rule="evenodd" class="s14" d="m238.3 419.2l-140 46.2"/>
				<path id="path57032" fill-rule="evenodd" class="s14" d="m232 407.8l-136 55.9"/>
				<path id="path57038" fill-rule="evenodd" class="s14" d="m159.5 399.5l-62.5 52.6"/>
				<path id="path57034" fill-rule="evenodd" class="s14" d="m148.7 377.4l-50.7 67.5"/>
				<path id="path57036" fill-rule="evenodd" class="s14" d="m155.6 385.7l-58.2 63.3"/>
				<path id="path57040" fill-rule="evenodd" class="s14" d="m165.2 409.7l-70.3 47.2"/>
				<path id="path57026" fill-rule="evenodd" class="s14" d="m250.8 440.6l-151.1 29.5"/>
			</g>
			<g id="g50039">
				<path id="path46348" fill-rule="evenodd" class="s16" d="m208.1 297.2l24.8 96.4-14.9 4.2-13.7-99.9"/>
				<g id="g45323">
					<path id="path45325" fill-rule="evenodd" class="s6" d="m201.8 470.1c0.5 1.3 2.7 2.7 4.4 2.7 2.1-0.1 4.2-2 5-5 1.2-4.3 2-9.7 2.9-14.5 0.1-1.5-0.1-2.9-1.8-4.6q-0.1-0.3 0.3-0.4c2.2 0.2 4.2 0.1 5.4-1.5 0-0.4-0.1-0.6-0.3-0.8-1.6-1.3-3.9-1.3-4.8-0.6-2.6-0.1-7.4 0.3-8.2 7.5-0.3 2.1 0.9 5.9 1 8.4 0 0.8 0.2 1.9-0.1 2.6-1.3 2.3-3.1-8.9-3.8-17"/>
					<path id="path45327" fill-rule="evenodd" class="s20" d="m206.8 461.8c1.4 0.4 3 0.5 4.5 0.2 0 0-1.5 0.3 0-0.1q-0.5 2.8-1.5 6.9c0.1-2-2.8-2.1-3.1-1 0.2-2.4 0-0.2 0-0.2 0.2-2.2 0.2-4.1 0.1-5.8z"/>
					<path id="path45329" fill-rule="evenodd" class="s1" d="m206.8 467.6c0.7-8.4-1.6-12.8-1-15.6 0.9-3.7 3.4-3.6 3.9-3.5 0.5 0 3 0.3 3.1 4.1 0.1 2.7-0.9 6.8-2.9 16.2"/>
					<path id="path45331" fill-rule="evenodd" class="s29" d="m212.5 456.2c-2.1 0.7-4.4 0.9-6.5-0.4 0.3 1.6 0.6 3.6 0.8 6.1 1.4 0.3 3 0.4 4.5 0.1 0.6-2.5 0.9-4.3 1.2-5.8z"/>
					<path id="path45333" fill-rule="evenodd" class="s1" d="m212.5 456.2c-2.1 0.8-4.4 0.9-6.5-0.3"/>
					<path id="path45335" fill-rule="evenodd" class="s28" d="m212.5 456.2c-2 0.8-4.4 0.9-6.4-0.3-0.3-1.6-0.5-2.9-0.2-3.9 0.8-3.7 3.4-3.6 3.8-3.5 0.5 0 3 0.3 3.1 4.1 0.1 1 0 2.1-0.3 3.6z"/>
					<path id="path45337" fill-rule="evenodd" class="s1" d="m211.3 462c-1.4 0.3-3 0.2-4.5-0.2"/>
					<path id="path45339" fill-rule="evenodd" class="s20" d="m205.9 448.8l0.3-0.1c1.3-0.8 2-1.8 3.9-2.2 1.1-0.4 2.4-0.1 3.6 0.1 0.6 0.3 1.2 0.2 1.7-0.2 0.6-0.4 1.5 0 2.3 0h0.3c-0.1-0.2-0.2-0.3-0.2-0.4-1.7-1.3-4-1.3-4.9-0.6-2-0.1-5.2 0.1-7 3.4z"/>
					<path id="path45341" fill-rule="evenodd" class="s1" d="m217.5 446.4c-0.8 0-1.8-0.4-2.3 0-0.5 0.4-1.1 0.5-1.7 0.2-1.2-0.2-2.5-0.5-3.6-0.1-1.9 0.4-2.7 1.4-3.9 2.2"/>
					<path id="path45343" fill-rule="evenodd" class="s30" d="m213.9 446.1q0 0.2 0.1 0.3 0.2 0.1 0.4 0.2 0.2-0.1 0.4-0.2 0.2-0.1 0.2-0.3 0-0.2-0.2-0.4-0.2-0.1-0.4-0.1-0.2 0-0.4 0.1-0.1 0.2-0.1 0.4z"/>
					<path id="path45345" fill-rule="evenodd" class="s1" d="m209.8 468.8c0.2-2-2.8-2.1-3.1-0.9"/>
					<path id="path45347" fill-rule="evenodd" class="s1" d="m209.9 468.9c-1.3-0.3-2.4-0.4-3.5-1"/>
					<path id="path45349" fill-rule="evenodd" class="s1" d="m208.6 470.3c-1.2-0.2-2.1-0.9-2.7-1.6"/>
					<path id="path45351" fill-rule="evenodd" class="s1" d="m207.3 471c-0.5-0.2-0.9-0.5-1.3-0.8"/>
					<g id="g45353">
						<path id="path45355" fill-rule="evenodd" class="s1" d="m206.8 467.6c0.7-8.4-1.6-12.8-0.9-15.6 0.8-3.7 3.4-3.6 3.8-3.5 0.5 0 3 0.3 3.1 4.1 0.1 2.7-0.8 6.8-2.9 16.2"/>
						<path id="path45357" fill-rule="evenodd" class="s1" d="m212.5 456.2c-2 0.8-4.4 0.9-6.4-0.3"/>
						<path id="path45359" fill-rule="evenodd" class="s1" d="m211.4 462c-1.5 0.3-3.1 0.2-4.5-0.2"/>
						<path id="path45361" fill-rule="evenodd" class="s21" d="m209.8 468.8c0.2-2-2.8-2.1-3.1-0.9"/>
					</g>
					<path id="path45363" fill-rule="evenodd" class="s6" d="m208.9 467.3c1.1-6.3 0.4-12 1.4-18.7-0.5-0.2-0.9-0.2-1.4-0.1-1.2 4.3-0.2 12.8-1.3 18.7"/>
					<path id="path45365" fill-rule="evenodd" class="s35" d="m210.3 469.2c-0.8 1.8-2.3 2.6-4.2 2.9"/>
					<path id="path45367" fill-rule="evenodd" class="s36" d="m209.7 469.7c-0.8 0.9-2 1.5-3.6 1.9"/>
					<path id="path45369" fill-rule="evenodd" class="s21" d="m209.9 468.7c0.1-1.3-2.2-2.3-3.2-0.9"/>
				</g>
				<g id="g45138">
					<path id="path45140" fill-rule="evenodd" class="s6" d="m169.8 470.2c-0.3 1.2-1.6 2.6-3.3 2.6-2.1-0.1-4.2-2-5-5-1.2-4.3-2-9.7-3-14.5 0-1.5 0.2-2.9 1.9-4.6q0.1-0.3-0.3-0.4c-2.2 0.2-4.3 0.1-5.4-1.5 0-0.4 0.1-0.6 0.2-0.8 1.7-1.3 4-1.3 4.9-0.6 2.6-0.1 7.4 0.3 8.2 7.5 0.3 2.1-0.9 5.9-1 8.4 0 0.8-0.2 1.9 0.1 2.6 1.2 2.3 3.1-8.9 3.8-17"/>
					<path id="path45142" fill-rule="evenodd" class="s20" d="m165.9 461.8c-1.4 0.4-3.1 0.5-4.5 0.2 0 0 1.4 0.3-0.1-0.1q0.6 2.8 1.6 6.9c-0.1-2 2.8-2.1 3.1-1-0.2-2.4 0-0.2 0-0.2-0.2-2.2-0.2-4.1-0.1-5.8z"/>
					<path id="path45144" fill-rule="evenodd" class="s1" d="m165.9 467.6c-0.7-8.4 1.6-12.8 0.9-15.6-0.8-3.7-3.4-3.6-3.8-3.5-0.5 0-3 0.3-3.1 4.1-0.1 2.7 0.9 6.8 2.9 16.2"/>
					<path id="path45146" fill-rule="evenodd" class="s29" d="m160.2 456.2c2.1 0.7 4.4 0.9 6.5-0.4-0.3 1.6-0.7 3.6-0.8 6.1-1.4 0.3-3.1 0.4-4.5 0.1-0.6-2.5-1-4.3-1.2-5.8z"/>
					<path id="path45148" fill-rule="evenodd" class="s1" d="m160.2 456.2c2.1 0.8 4.4 0.9 6.4-0.3"/>
					<path id="path45150" fill-rule="evenodd" class="s28" d="m160.2 456.2c2 0.8 4.3 0.9 6.4-0.3 0.3-1.6 0.5-2.9 0.2-3.9-0.8-3.7-3.4-3.6-3.8-3.5-0.5 0-3 0.3-3.1 4.1-0.1 1 0 2.1 0.3 3.6z"/>
					<path id="path45152" fill-rule="evenodd" class="s1" d="m161.3 462c1.5 0.3 3.1 0.2 4.5-0.2"/>
					<path id="path45154" fill-rule="evenodd" class="s20" d="m166.8 448.8l-0.3-0.1c-1.3-0.8-2-1.8-3.9-2.2-1.2-0.4-2.4-0.1-3.6 0.1-0.7 0.3-1.2 0.2-1.8-0.2-0.5-0.4-1.4 0-2.2 0h-0.3c0.1-0.2 0.2-0.3 0.2-0.4 1.7-1.3 4-1.3 4.9-0.6 1.9-0.1 5.1 0.1 7 3.4z"/>
					<path id="path45156" fill-rule="evenodd" class="s1" d="m155.2 446.4c0.8 0 1.7-0.4 2.2 0 0.6 0.4 1.1 0.5 1.8 0.2 1.2-0.2 2.4-0.5 3.6-0.1 1.9 0.4 2.6 1.4 3.9 2.2"/>
					<path id="path45158" fill-rule="evenodd" class="s30" d="m158.8 446.1q0 0.2-0.1 0.3-0.2 0.1-0.4 0.2-0.2-0.1-0.4-0.2-0.2-0.1-0.2-0.3 0-0.2 0.2-0.4 0.2-0.1 0.4-0.1 0.2 0 0.4 0.1 0.1 0.2 0.1 0.4z"/>
					<path id="path45160" fill-rule="evenodd" class="s1" d="m162.9 468.8c-0.2-2 2.8-2.1 3.1-0.9"/>
					<path id="path45162" fill-rule="evenodd" class="s1" d="m162.8 468.9c1.3-0.3 2.3-0.4 3.4-1"/>
					<path id="path45164" fill-rule="evenodd" class="s1" d="m164.1 470.3c1.2-0.2 2.1-0.9 2.7-1.6"/>
					<path id="path45166" fill-rule="evenodd" class="s1" d="m165.3 471c0.6-0.2 1-0.5 1.4-0.8"/>
					<g id="g45168">
						<path id="path45170" fill-rule="evenodd" class="s1" d="m165.9 467.6c-0.7-8.4 1.6-12.8 0.9-15.6-0.8-3.7-3.4-3.6-3.8-3.5-0.5 0-3 0.3-3.1 4.1-0.2 2.7 0.8 6.8 2.9 16.2"/>
						<path id="path45172" fill-rule="evenodd" class="s1" d="m160.2 456.2c2 0.8 4.3 0.9 6.4-0.3"/>
						<path id="path45174" fill-rule="evenodd" class="s1" d="m161.3 462c1.5 0.3 3.1 0.2 4.5-0.2"/>
						<path id="path45176" fill-rule="evenodd" class="s21" d="m162.8 468.8c-0.1-2 2.9-2.1 3.2-0.9"/>
					</g>
					<path id="path45178" fill-rule="evenodd" class="s6" d="m163.8 467.3c-1.1-6.3-0.4-12-1.4-18.7 0.4-0.2 0.9-0.2 1.3-0.1 1.3 4.3 0.3 12.8 1.4 18.7"/>
					<path id="path45180" fill-rule="evenodd" class="s35" d="m162.4 469.2c0.8 1.8 2.2 2.6 4.2 2.9"/>
					<path id="path45182" fill-rule="evenodd" class="s36" d="m162.9 469.7c0.9 0.9 2 1.5 3.7 1.9"/>
					<path id="path45184" fill-rule="evenodd" class="s21" d="m162.8 468.7c-0.1-1.3 2.2-2.3 3.2-0.9"/>
				</g>
				<path id="path32537" fill-rule="evenodd" class="s37" d="m176.4 302.5l-22.2 118.3 17.8 4.2 7.7-123.1"/>
				<g id="g44417">
					<path id="path36009" fill-rule="evenodd" class="s6" d="m178.3 302l-8.7 171.3h32.3l0.8-175.3z"/>
					<path id="path39203" fill-rule="evenodd" class="s37" d="m181.4 303.6l-0.2 5.6h18.6v-5.6z"/>
					<path id="path39193" fill-rule="evenodd" class="s38" d="m181 313l-0.3 5.6h19l0.1-5.6z"/>
					<path id="path39183" fill-rule="evenodd" class="s37" d="m180.5 322.5l-0.3 5.6h19.5v-5.7z"/>
					<path id="path39173" fill-rule="evenodd" class="s16" d="m180.1 331.9l-0.3 5.6h19.8v-5.6z"/>
					<path id="path39163" fill-rule="evenodd" class="s37" d="m179.6 341.4l-0.4 5.6h20.3l0.1-5.6z"/>
					<path id="path39153" fill-rule="evenodd" class="s38" d="m179.1 350.9l-0.3 5.6h20.6l0.1-5.7z"/>
					<path id="path39143" fill-rule="evenodd" class="s37" d="m178.6 360.4l-0.2 5.6h21v-5.7z"/>
					<path id="path39133" fill-rule="evenodd" class="s16" d="m178.1 369.8l-0.2 5.6h21.4v-5.6z"/>
					<path id="path39123" fill-rule="evenodd" class="s37" d="m177.7 379.2l-0.3 5.6h21.9v-5.6z"/>
					<path id="path38082" fill-rule="evenodd" class="s37" d="m173.9 455l-0.3 5.6h25.3v-5.7z"/>
					<path id="path39053" fill-rule="evenodd" class="s16" d="m174.4 445.5l-0.3 5.6h24.8v-5.6z"/>
					<path id="path39063" fill-rule="evenodd" class="s37" d="m174.8 436l-0.2 5.6h24.3v-5.6z"/>
					<path id="path39073" fill-rule="evenodd" class="s38" d="m175.3 426.6l-0.3 5.6h24.1v-5.7z"/>
					<path id="path39083" fill-rule="evenodd" class="s37" d="m175.8 417.1l-0.3 5.6h23.6v-5.6z"/>
					<path id="path39093" fill-rule="evenodd" class="s16" d="m176.3 407.7l-0.3 5.6h23.2v-5.6z"/>
					<path id="path39103" fill-rule="evenodd" class="s37" d="m176.7 398.2l-0.3 5.6h22.8v-5.6z"/>
					<path id="path39113" fill-rule="evenodd" class="s38" d="m177.2 388.7l-0.3 5.6h22.3v-5.6z"/>
					<path id="path36033" fill-rule="evenodd" class="s5" d="m173.6 460.5l7.9-158.9"/>
					<path id="path36035" fill-rule="evenodd" class="s5" d="m199.8 298.4l-0.9 162.1"/>
					<path id="path36081" fill-rule="evenodd" class="s1" d="m170.3 462.9h31.5"/>
					<path id="path36083" fill-rule="evenodd" class="s1" d="m170.3 462.2h31.6"/>
					<path id="path36085" fill-rule="evenodd" class="s1" d="m170.3 461.4h31.5"/>
					<path id="path36087" fill-rule="evenodd" class="s1" d="m170.3 460.6h31.5"/>
					<path id="path36089" fill-rule="evenodd" class="s1" d="m174 454.9h24.9"/>
					<path id="path36091" fill-rule="evenodd" class="s1" d="m174 453.7h24.8"/>
					<path id="path36093" fill-rule="evenodd" class="s1" d="m174 452.4h24.9"/>
					<path id="path38080" fill-rule="evenodd" class="s1" d="m174 451.2h24.9"/>
					<path id="path39055" fill-rule="evenodd" class="s1" d="m174.4 445.5h24.5"/>
					<path id="path39057" fill-rule="evenodd" class="s1" d="m174.4 444.2h24.5"/>
					<path id="path39059" fill-rule="evenodd" class="s1" d="m174.4 443h24.5"/>
					<path id="path39061" fill-rule="evenodd" class="s1" d="m174.5 441.7h24.4"/>
					<path id="path39065" fill-rule="evenodd" class="s1" d="m174.8 436h24.1"/>
					<path id="path39067" fill-rule="evenodd" class="s1" d="m174.9 434.7h24.1"/>
					<path id="path39069" fill-rule="evenodd" class="s1" d="m175 433.5h23.9"/>
					<path id="path39071" fill-rule="evenodd" class="s1" d="m175 432.2h23.9"/>
					<path id="path39075" fill-rule="evenodd" class="s1" d="m175.4 426.5h23.6"/>
					<path id="path39077" fill-rule="evenodd" class="s1" d="m175.3 425.3h23.7"/>
					<path id="path39079" fill-rule="evenodd" class="s1" d="m175.4 424h23.7"/>
					<path id="path39081" fill-rule="evenodd" class="s1" d="m175.5 422.8h23.6"/>
					<path id="path39085" fill-rule="evenodd" class="s1" d="m175.8 417h23.2"/>
					<path id="path39087" fill-rule="evenodd" class="s1" d="m175.9 415.8h23.2"/>
					<path id="path39089" fill-rule="evenodd" class="s1" d="m175.9 414.5h23.2"/>
					<path id="path39091" fill-rule="evenodd" class="s1" d="m176 413.3h23.1"/>
					<path id="path39095" fill-rule="evenodd" class="s1" d="m176.3 407.6h22.8"/>
					<path id="path39097" fill-rule="evenodd" class="s1" d="m176.3 406.4h22.8"/>
					<path id="path39099" fill-rule="evenodd" class="s1" d="m176.4 405.1h22.7"/>
					<path id="path39101" fill-rule="evenodd" class="s1" d="m176.5 403.9h22.7"/>
					<path id="path39105" fill-rule="evenodd" class="s1" d="m176.7 398.2h22.5"/>
					<path id="path39107" fill-rule="evenodd" class="s1" d="m176.7 396.9h22.5"/>
					<path id="path39109" fill-rule="evenodd" class="s1" d="m176.8 395.7h22.4"/>
					<path id="path39111" fill-rule="evenodd" class="s1" d="m176.9 394.4h22.3"/>
					<path id="path39115" fill-rule="evenodd" class="s1" d="m177.2 388.7h22"/>
					<path id="path39117" fill-rule="evenodd" class="s1" d="m177.3 387.4h22"/>
					<path id="path39119" fill-rule="evenodd" class="s1" d="m177.4 386.2h21.8"/>
					<path id="path39121" fill-rule="evenodd" class="s1" d="m177.4 384.9h21.9"/>
					<path id="path39125" fill-rule="evenodd" class="s1" d="m177.7 379.2h21.6"/>
					<path id="path39127" fill-rule="evenodd" class="s1" d="m177.7 378h21.6"/>
					<path id="path39129" fill-rule="evenodd" class="s1" d="m177.8 376.7h21.5"/>
					<path id="path39131" fill-rule="evenodd" class="s1" d="m177.8 375.4h21.5"/>
					<path id="path39135" fill-rule="evenodd" class="s1" d="m178.1 369.7h21.3"/>
					<path id="path39137" fill-rule="evenodd" class="s1" d="m178.3 368.5h21"/>
					<path id="path39139" fill-rule="evenodd" class="s1" d="m178.3 367.2h21"/>
					<path id="path39141" fill-rule="evenodd" class="s1" d="m178.3 366h21"/>
					<path id="path39145" fill-rule="evenodd" class="s1" d="m178.6 360.3h20.8"/>
					<path id="path39147" fill-rule="evenodd" class="s1" d="m178.7 359.1h20.7"/>
					<path id="path39149" fill-rule="evenodd" class="s1" d="m178.8 357.8h20.6"/>
					<path id="path39151" fill-rule="evenodd" class="s1" d="m178.8 356.6h20.6"/>
					<path id="path39155" fill-rule="evenodd" class="s1" d="m179.1 350.8h20.3"/>
					<path id="path39157" fill-rule="evenodd" class="s1" d="m179.2 349.6h20.2"/>
					<path id="path39159" fill-rule="evenodd" class="s1" d="m179.2 348.3h20.3"/>
					<path id="path39161" fill-rule="evenodd" class="s1" d="m179.3 347.1h20.1"/>
					<path id="path39165" fill-rule="evenodd" class="s1" d="m179.5 341.4h20"/>
					<path id="path39167" fill-rule="evenodd" class="s1" d="m179.7 340.1h19.8"/>
					<path id="path39169" fill-rule="evenodd" class="s1" d="m179.6 338.9h19.9"/>
					<path id="path39171" fill-rule="evenodd" class="s1" d="m179.7 337.6h19.9"/>
					<path id="path39175" fill-rule="evenodd" class="s1" d="m180.1 331.9h19.4"/>
					<path id="path39177" fill-rule="evenodd" class="s1" d="m180 330.6h19.6"/>
					<path id="path39179" fill-rule="evenodd" class="s1" d="m180.2 329.4h19.4"/>
					<path id="path39181" fill-rule="evenodd" class="s1" d="m180.2 328.1h19.4"/>
					<path id="path39185" fill-rule="evenodd" class="s1" d="m180.5 322.4h19.1"/>
					<path id="path39187" fill-rule="evenodd" class="s1" d="m180.5 321.2h19.1"/>
					<path id="path39189" fill-rule="evenodd" class="s1" d="m180.6 319.9h19.1"/>
					<path id="path39191" fill-rule="evenodd" class="s1" d="m180.6 318.7h19.1"/>
					<path id="path39195" fill-rule="evenodd" class="s1" d="m181 313h18.7"/>
					<path id="path39197" fill-rule="evenodd" class="s1" d="m181 311.8h18.7"/>
					<path id="path39199" fill-rule="evenodd" class="s1" d="m181 310.5h18.7"/>
					<path id="path39201" fill-rule="evenodd" class="s1" d="m181.1 309.2h18.6"/>
					<path id="path43081" fill-rule="evenodd" class="s1" d="m181.5 303.5h18.2"/>
					<path id="path43083" fill-rule="evenodd" class="s1" d="m181.5 302.3h18.2"/>
					<path id="path43085" fill-rule="evenodd" class="s1" d="m184.3 301h15.4"/>
					<path id="path43087" fill-rule="evenodd" class="s1" d="m191.9 299.8h7.8"/>
					<g id="g39906">
						<path id="path39908" fill-rule="evenodd" class="s14" d="m170.4 470.3c0-2 1.3-5 2.4-6.9 1 2 2.2 5 2.2 6.8 0 3.6-4.5 3.4-4.6 0.1z"/>
						<path id="path39910" fill-rule="evenodd" class="s14" d="m171 470.2c0-1.4 1-3.6 1.8-5 0.7 1.4 1.6 3.7 1.6 5 0 2.6-3.3 2.5-3.4 0z"/>
						<path id="path39912" fill-rule="evenodd" class="s15" d="m171.1 470.2c0.2-0.3 0.8-0.7 1.6-0.7 0.8 0 1.3 0.3 1.7 0.6"/>
						<path id="path39914" fill-rule="evenodd" class="s15" d="m171.6 467.8c0.4-0.3 0.9-0.4 1.2-0.4 0.3 0 0.8 0.2 1 0.4"/>
					</g>
					<g id="g44367">
						<path id="path44369" fill-rule="evenodd" class="s14" d="m175.5 470.3c0-2 1.3-5 2.4-6.9 1 2 2.2 5 2.2 6.8 0 3.6-4.5 3.4-4.6 0.1z"/>
						<path id="path44371" fill-rule="evenodd" class="s14" d="m176.1 470.2c0-1.4 1-3.6 1.8-5 0.7 1.4 1.6 3.7 1.6 5 0 2.6-3.3 2.5-3.4 0z"/>
						<path id="path44373" fill-rule="evenodd" class="s15" d="m176.2 470.2c0.2-0.3 0.8-0.7 1.6-0.7 0.8 0 1.3 0.3 1.7 0.6"/>
						<path id="path44375" fill-rule="evenodd" class="s15" d="m176.7 467.8c0.3-0.3 0.9-0.4 1.2-0.4 0.2 0 0.8 0.2 1 0.4"/>
					</g>
					<g id="g44377">
						<path id="path44379" fill-rule="evenodd" class="s14" d="m180.7 470.3c0-2 1.3-5 2.4-6.9 1 2 2.2 5 2.2 6.8 0 3.6-4.5 3.4-4.6 0.1z"/>
						<path id="path44381" fill-rule="evenodd" class="s14" d="m181.3 470.2c0-1.4 1-3.6 1.8-5 0.7 1.4 1.6 3.7 1.6 5 0 2.6-3.3 2.5-3.4 0z"/>
						<path id="path44383" fill-rule="evenodd" class="s15" d="m181.3 470.2c0.3-0.3 0.9-0.7 1.7-0.7 0.8 0 1.3 0.3 1.6 0.6"/>
						<path id="path44385" fill-rule="evenodd" class="s15" d="m181.9 467.8c0.3-0.3 0.9-0.4 1.1-0.4 0.3 0 0.9 0.2 1.1 0.4"/>
					</g>
					<g id="g44387">
						<path id="path44389" fill-rule="evenodd" class="s14" d="m185.9 470.3c0-2 1.3-5 2.4-6.9 1 2 2.2 5 2.2 6.8 0 3.6-4.5 3.4-4.6 0.1z"/>
						<path id="path44391" fill-rule="evenodd" class="s14" d="m186.5 470.2c0-1.4 1-3.6 1.8-5 0.7 1.4 1.6 3.7 1.6 5 0 2.6-3.3 2.5-3.4 0z"/>
						<path id="path44393" fill-rule="evenodd" class="s15" d="m186.6 470.2c0.2-0.3 0.8-0.7 1.6-0.7 0.8 0 1.3 0.3 1.7 0.6"/>
						<path id="path44395" fill-rule="evenodd" class="s15" d="m187.1 467.8c0.3-0.3 0.9-0.4 1.2-0.4 0.3 0 0.8 0.2 1 0.4"/>
					</g>
					<g id="g44397">
						<path id="path44399" fill-rule="evenodd" class="s14" d="m191.2 470.3c0-2 1.3-5 2.4-6.9 1 2 2.2 5 2.2 6.8 0 3.6-4.5 3.4-4.6 0.1z"/>
						<path id="path44401" fill-rule="evenodd" class="s14" d="m191.8 470.2c0-1.4 0.9-3.6 1.8-5 0.7 1.4 1.6 3.7 1.6 5 0 2.6-3.3 2.5-3.4 0z"/>
						<path id="path44403" fill-rule="evenodd" class="s15" d="m191.8 470.2c0.3-0.3 0.9-0.7 1.7-0.7 0.8 0 1.3 0.3 1.6 0.6"/>
						<path id="path44405" fill-rule="evenodd" class="s15" d="m192.4 467.8c0.3-0.3 0.9-0.4 1.1-0.4 0.3 0 0.9 0.2 1.1 0.4"/>
					</g>
					<g id="g44407">
						<path id="path44409" fill-rule="evenodd" class="s14" d="m196.5 470.3c0-2 1.3-5 2.4-6.9 1 2 2.2 5 2.2 6.8 0 3.6-4.5 3.4-4.6 0.1z"/>
						<path id="path44411" fill-rule="evenodd" class="s14" d="m197.1 470.2c0-1.4 1-3.6 1.8-5 0.7 1.4 1.6 3.7 1.6 5 0 2.6-3.3 2.5-3.4 0z"/>
						<path id="path44413" fill-rule="evenodd" class="s15" d="m197.1 470.2c0.3-0.3 0.9-0.7 1.7-0.7 0.8 0 1.3 0.3 1.6 0.6"/>
						<path id="path44415" fill-rule="evenodd" class="s15" d="m197.7 467.8c0.3-0.3 0.9-0.4 1.2-0.4 0.2 0 0.8 0.2 1 0.4"/>
					</g>
				</g>
				<path id="rect34034" fill-rule="evenodd" class="s39" d="m155.9 473.1h60.7v1.6h-60.7z"/>
				<path id="path46344" fill-rule="evenodd" class="s16" d="m174.3 302.9l-29.4 89 13.8 4.8 18-94.3"/>
				<path id="path46346" fill-rule="evenodd" class="s37" d="m204.8 297.8l16 118.4-18.6 3.6-1-121.6"/>
				<path id="path46350" fill-rule="evenodd" class="s37" d="m210.6 296.6l27.5 66.4-11.5 6.2-19.1-72"/>
				<path id="path46342" fill-rule="evenodd" class="s37" d="m172.9 303.2l-34.1 70.6 10.4 5.3 25.2-76.1"/>
				<g id="g50023">
					<path id="path19323" fill-rule="evenodd" class="s40" d="m215.2 439.9c0 2.7-1.8 3.8-4.3 3.8-2.4 0-4.1-1.3-4.1-3.8 0-2.6 1.7-3.8 4.1-3.8 2.5 0 4.3 1.2 4.3 3.8z"/>
					<path id="path31198" fill-rule="evenodd" class="s41" d="m216.8 439.9c0 3.5-2.4 5.1-5.7 5.1-3.2 0-5.6-1.7-5.5-5.1 0-3.4 2.3-5.1 5.5-5.1 3.3 0 5.7 1.6 5.7 5.1z"/>
					<path id="path28287" fill-rule="evenodd" class="s42" d="m216.9 439.9c0 3.6-2.5 5.2-5.8 5.2-3.3 0-5.7-1.8-5.6-5.2 0-3.5 2.3-5.2 5.6-5.2 3.3 0 5.8 1.6 5.8 5.2z"/>
					<path id="path21264" fill-rule="evenodd" class="s43" d="m216.9 439.9c0 3.6-2.5 5.2-5.8 5.2-3.3 0-5.7-1.8-5.6-5.2 0-3.5 2.3-5.2 5.6-5.2 3.3 0 5.8 1.6 5.8 5.2z"/>
				</g>
				<g id="g50029">
					<path id="path50031" fill-rule="evenodd" class="s40" d="m165.4 439.9c0 2.7-1.9 3.8-4.3 3.8-2.4 0-4.2-1.3-4.1-3.8 0-2.6 1.7-3.8 4.1-3.8 2.4 0 4.3 1.2 4.3 3.8z"/>
					<path id="path50033" fill-rule="evenodd" class="s41" d="m167 439.9c0 3.5-2.5 5.1-5.7 5.1-3.2 0-5.6-1.7-5.5-5.1 0-3.4 2.3-5.1 5.5-5.1 3.2 0 5.7 1.6 5.7 5.1z"/>
					<path id="path50035" fill-rule="evenodd" class="s42" d="m167.1 439.9c0 3.6-2.5 5.2-5.8 5.2-3.3 0-5.7-1.8-5.6-5.2 0-3.5 2.3-5.2 5.6-5.2 3.3 0 5.8 1.6 5.8 5.2z"/>
					<path id="path50037" fill-rule="evenodd" class="s43" d="m167.1 439.9c0 3.6-2.5 5.2-5.8 5.2-3.3 0-5.7-1.8-5.6-5.2 0-3.5 2.3-5.2 5.6-5.2 3.3 0 5.8 1.6 5.8 5.2z"/>
				</g>
			</g>
			<path id="path50229" fill-rule="evenodd" class="s44" d="m210.7 296.3l-37.9 6.6-0.3 0.6 38.2-6.7z"/>
			<path id="path51204" fill-rule="evenodd" class="s0" d="m227.7 395.3l45.1 79.1v0.3l-2.4 0.1-44.8-78.8z"/>
			<path id="path32523" fill-rule="evenodd" class="s0" d="m98.3 442c0.6 4.6-0.2 10.3-3.8 16.3 3.5 4.2 6.3 8.6 7.1 13.2 4.9 0.7 9.8 0.4 13.8 3.8h-36.4z"/>
			<path id="path32525" fill-rule="evenodd" class="s15" d="m91.7 464.1c0 0.3-0.1 0.6-0.3 0.8-0.3 0.2-0.5 0.4-0.8 0.4-0.3 0-0.6-0.2-0.8-0.4-0.2-0.2-0.3-0.5-0.3-0.8 0-0.3 0.1-0.5 0.3-0.7 0.2-0.3 0.5-0.4 0.8-0.4 0.3 0 0.5 0.1 0.8 0.4 0.2 0.2 0.3 0.4 0.3 0.7z"/>
			<path id="path57020" fill-rule="evenodd" class="s15" d="m96.1 471.4c0 0.3-0.1 0.6-0.3 0.8-0.2 0.2-0.5 0.3-0.8 0.3-0.3 0-0.6-0.1-0.8-0.3-0.2-0.2-0.3-0.5-0.3-0.8 0-0.3 0.1-0.6 0.3-0.8 0.2-0.2 0.5-0.3 0.8-0.3 0.3 0 0.6 0.1 0.8 0.3 0.2 0.2 0.3 0.5 0.3 0.8z"/>
			<path id="path32529" fill-rule="evenodd" class="s15" d="m79.5 475.1c0.7-0.7 14.3-7.6 14.3-7.6l-14.4 7.3"/>
		</g>
	</g>
</svg>