<svg version="1.2" xmlns="http://www.w3.org/2000/svg" viewBox="0 0 300 820" width="300" height="820">
	<title>Pharaoh_with_double_crown (2) (1)</title>
	<style>
		.s0 { fill: #fac53a;stroke: #c13c1b;stroke-width: .4 } 
		.s1 { fill: none;stroke: #000000;stroke-width: .4 } 
		.s2 { fill: #a13c2a;stroke: #000000;stroke-linecap: round;stroke-linejoin: round;stroke-width: .4 } 
		.s3 { fill: #fac53a;stroke: #000000;stroke-linecap: round;stroke-linejoin: round;stroke-width: .4 } 
		.s4 { fill: #0044aa;stroke: #000000;stroke-linecap: round;stroke-linejoin: round;stroke-width: .4 } 
		.s5 { fill: #ffffff;stroke: #000000;stroke-width: .4 } 
		.s6 { fill: #fac53a;stroke: #000000;stroke-width: .4 } 
		.s7 { fill: #ffffff;stroke: #000000;stroke-linecap: round;stroke-linejoin: round;stroke-width: .4 } 
		.s8 { fill: none;stroke: #0044aa;stroke-linejoin: round;stroke-width: 4.8 } 
		.s9 { fill: none;stroke: #308d57;stroke-width: 3.7 } 
		.s10 { fill: none;stroke: #c13c1b;stroke-width: 3 } 
		.s11 { fill: none;stroke: #0044aa;stroke-width: 4.4 } 
		.s12 { fill: none;stroke: #fac53a;stroke-width: 10.9 } 
		.s13 { fill: none;stroke: #000000;stroke-linecap: round;stroke-linejoin: round;stroke-width: .5 } 
		.s14 { fill: none;stroke: #c13c1b;stroke-width: .4 } 
		.s15 { fill: none;stroke: #c13c1b;stroke-linecap: round;stroke-linejoin: round;stroke-width: .4 } 
		.s16 { fill: #0044aa;stroke: #000000;stroke-width: .4 } 
		.s17 { fill: #002255;stroke: #000000;stroke-linecap: round;stroke-linejoin: round;stroke-width: .4 } 
		.s18 { fill: #0044aa;stroke: #0044aa;stroke-width: .4 } 
		.s19 { fill: #c13c1b;stroke: #c13c1b;stroke-width: .4 } 
		.s20 { fill: #308d57 } 
		.s21 { fill: none;stroke: #000000;stroke-linecap: round;stroke-linejoin: round;stroke-width: .4 } 
		.s22 { opacity: .7;fill: #000000 } 
		.s23 { fill: #000000;stroke: #000000;stroke-width: .4 } 
		.s24 { fill: #a13c2a;stroke: #000000;stroke-width: .4 } 
		.s25 { fill: none;stroke: #000000;stroke-width: 1.5 } 
		.s26 { opacity: .7;fill: #000000;stroke: #000000;stroke-width: .4 } 
		.s27 { fill: #a13c2a } 
		.s28 { fill: none;stroke: #000000;stroke-width: .7 } 
		.s29 { fill: #c13c1b } 
		.s30 { fill: #0044aa } 
		.s31 { fill: #000000;stroke: #000000;stroke-linecap: round;stroke-linejoin: round;stroke-width: .4 } 
		.s32 { fill: none;stroke: #000000;stroke-linecap: round;stroke-linejoin: round;stroke-width: .4;stroke-dasharray: 0.546852,1.0937 } 
		.s33 { fill: none;stroke: #000000;stroke-linecap: round;stroke-linejoin: round;stroke-width: .4;stroke-dasharray: 0.109371,1.3124500000000001 } 
		.s34 { fill: #c13c1b;stroke: #000000;stroke-width: .4 } 
		.s35 { fill: #308d57;stroke: #000000;stroke-width: .4 } 
		.s36 { fill: #fac53a;stroke: #c13c1b;stroke-linecap: round;stroke-linejoin: round;stroke-width: .4 } 
		.s37 { fill: #fac53a;stroke: #fac53a;stroke-linecap: round;stroke-linejoin: round;stroke-width: 3.2 } 
		.s38 { fill: none;stroke: #ffffff;stroke-linecap: round;stroke-linejoin: round;stroke-width: .6 } 
		.s39 { fill: none;stroke: #000000;stroke-linecap: round;stroke-linejoin: round;stroke-width: .7 } 
		.s40 { fill: none;stroke: #fac53a;stroke-linecap: round;stroke-linejoin: round;stroke-width: .6 } 
		.s41 { fill: #000000 } 
		.s42 { opacity: .5;fill: #ffffff;stroke: #ffffff;stroke-linecap: round;stroke-linejoin: round;stroke-width: 2.9 } 
		.s43 { fill: none;stroke: #000000;stroke-linecap: round;stroke-linejoin: round;stroke-width: 2.9 } 
		.s44 { fill: none;stroke: #c13c1b;stroke-linecap: round;stroke-linejoin: round;stroke-width: 2.4 } 
		.s45 { fill: #ffffff;stroke: #000000;stroke-width: .5 } 
		.s46 { fill: none;stroke: #000000;stroke-width: .5 } 
		.s47 { fill: #c13c1b;stroke: #000000;stroke-width: .6 } 
	</style>
	<path class="s0" d="m250.4 602.9l-0.3 12.3c0.1 17.8 0.6 36.6 4.2 49.6l19.3 143.8 11.1-1.3c-8.4-48.1-10.1-94.9-15.2-142.3-3-31.2-9.4-22.3-19.1-62.1z"/>
	<g>
		<path class="s1" d="m281.7 325.9h-30.2"/>
		<path class="s1" d="m282.2 334.9l-30.2 0.5"/>
		<g>
			<path class="s2" d="m200.3 265l39.1 1.2c19.4 6.2 35.5 12.9 41.5 34 2.1 12.1 0.1 16.4 0.9 25.6l0.6 9.6c1.3 20.6 1.9 41.4 0.3 62.7-1.2 18.4 2.7 38.1 3.1 56.5-0.6 15.4-4.4 26.9-5.1 40.4l-19.3-1.5c-8.8-49.9-3.7-66.3-5.9-89.2-3.2-28.1-3.2-55.3-4.3-82.8-11.9 21.5-24.3 42.2-31.2 70.4v4.7l6.5 29.9c3.5 4.9 13.5 27 6.2 39.7 8.3 48.3 12.2 97.8 11.7 146.2l0.6 15.7c1.4 21.5 10 43 9.6 66.4-0.3 23.5-4.6 46.5-7.7 68.9-1.2 25.8 2.4 30.4 1.5 39.8-0.9 9.5-6.2 9-11.5 9-5.5-0.1-10.8-1-11-4.6-5.7-1.6-13.6 4.9-72.3 2.6-2.5-0.3-2.7-4-2.9-6.7 2.6-0.7 5.3-1 8.2-0.6 19.5-9.5 38.6-13.6 58.7-31.5 0.9-1 1.7-2.3 1.5-5.8-2.5-35.4-10.2-72.1-13.3-107.5l-0.9-5.6c-2.7-6.9-5.1-15.7-8.3-19.4-1.3-7.2-1.9-14.4-6.5-21.6l-15-0.4c-6.7 19.2-7.6 27-11.7 39.9-3.1 18.9-0.3 26.9-4.8 42-4.6 15.2-14.3 34.9-21.9 49.7-4.7 12.7-11.2 26-13.4 37.8-0.6 7.5 0.7 13.3-0.2 22.7-0.9 9.5-6.2 9-11.6 9-5.4-0.1-10.8-1-10.9-4.6-5.7-1.6-13.7 4.9-72.3 2.6-2.5-0.3-2.7-4-3-6.7 2.7-0.7 5.4-1 8.3-0.6 19.5-9.5 43.9-14.8 63.9-32.7 1.9-2.2 2.5-4.5 3.2-6.9l22.7-109.2c0-11.1-1.4-21.6 3.7-34.6l0.3-8.7 18.7-170.8-2.1-7.2c-2.7-6.1-0.8-12.6-0.9-18.4-2.2-17.2-5.7-34.1-9.5-50.9-2.5-5.7-4.7-12.5-6.5-19.7-1.8-0.7-2.4-2.7-1.1-4.5-1.2-5.5-2.2-11.1-2.7-16.4l-0.9-0.2-1.2 11.1c-0.5 2.6-0.4 5.3-0.8 7.9-3.5 19.7-7 39.1-19 73.8l-4 8.7c-9 26.2-22.2 46.4-35.9 66l-17-12.3c9.8-24.3 16.8-49.6 31.6-72.3l2.7-6.4c1-18.9 3.4-45.5 8.4-66.4l2-15.6c-5.6-25.9 6.4-43.1 29.3-47l37.9-7.3"/>
			<g>
				<path class="s3" d="m251.3 323.6l30.3-0.5 1.1 17.2h-31z"/>
				<path class="s4" d="m251.3 325.6l30.4-0.1 0.3 5-30.5 0.3z"/>
				<path class="s4" d="m251.6 332.6l30.5 0.1 0.5 5.5h-30.8z"/>
			</g>
			<path class="s3" d="m253 613.2c-0.4-2.6-1.6-5.5-2-8.5-4.3-34.2-4.9-92.7-15.1-137.5 3-8.1 1.8-17.4-0.4-25.1-2.1-7.6-5.2-13.5-6.8-15.8-1.1-5.3-4.5-21.1-5.6-32.3-0.1-0.5-0.6-1-1.1-1-0.3 0.1-0.6 0.2-0.8 0.4-0.2 0.2-0.3 0.6-0.3 0.9 1.2 11.4 4.6 27.5 5.7 32.6q0.1 0.3 0.2 0.5c1.2 1.5 4.5 7.7 6.6 15.3 2.2 7.6 3.2 16.6 0.4 24.1q-0.1 0.3-0.1 0.6c8.6 37.5 10.5 84.9 13.4 119.6 0.9 10.1 2.8 19.3 3.1 26.5"/>
		</g>
		<path class="s5" d="m127.2 611.9l16.8-171.1 88.4-0.9c1.2 4.7 6 14.3 0.5 26.5 7.6 48.4 12.4 97.3 11.3 145.4z"/>
		<path class="s6" d="m244.2 612.1c-90.4-15.2-106.9-83.4-100.2-171.3l82.4-14.6c7.8 13 12.4 30.7 6.5 40.2 7.6 48.4 12.4 97.5 11.3 145.7z"/>
		<path class="s7" d="m123.6 269.1l32.9-6.5 46.5-3.7 35.8 7.4c-6.7 34-29.8 46.1-56.5 46.7-25.2 0.6-37-5.9-45.3-14.7-7.9-8.3-12-21.4-13.4-29.2z"/>
	</g>
	<g>
		<path class="s8" d="m137.3 266.4c5 24.5 19.3 33.6 45.6 32.6 26.4-1.1 39.6-18 41.2-34.5 0-0.2 0-0.5 0.1-1.1"/>
		<path class="s9" d="m149.9 264.1c4.8 18.6 15.3 22.7 32.5 22 16.1-0.6 28-11.2 27.9-24.4-0.1-0.5 0.1-0.8 0.1-1.1"/>
		<path class="s10" d="m141.6 265.8c3.7 17.2 12.8 30 41 28.8 24.6-1.1 36.4-17.7 36.8-31.6 0-0.1 0-0.4 0.1-0.7"/>
		<path class="s11" d="m153.9 263.1c2.5 8.2 5.2 20.4 28.5 18.6 15.3-1.2 22.6-10.3 23.2-18.8 0.1-0.9 0.1-3.1 0.2-3.3"/>
		<path class="s11" d="m145.7 264.8c4.8 23.2 22 26.5 37.2 25.6 20.5-1.3 31.6-14 32.2-27.5 0-0.2 0-1.2 0.1-1.5"/>
		<path class="s12" d="m129.1 268.2c5.4 26 19.9 40.2 52.7 39q0.2 0 0.4 0c43.6-1.7 49.1-34.3 50.7-41.9"/>
		<path class="s13" d="m123.6 269.1l32.9-6.5 46.5-3.7 35.8 7.4c-6.7 34-29.8 46.1-56.5 46.7-25.2 0.6-37-5.9-45.3-14.7-7.9-8.3-12-21.4-13.4-29.2z"/>
		<g>
			<path class="s14" d="m195.1 308.3c-0.7-2-0.3-5.3 0.2-7.6 1.6 1.6 3.8 4.3 4.3 6.1 1.1 3.5-3.5 4.7-4.5 1.5z"/>
			<path class="s14" d="m195.7 308c-0.5-1.4-0.2-3.9 0.1-5.5 1.2 1.1 2.8 3.1 3.2 4.5 0.8 2.6-2.6 3.5-3.3 1z"/>
			<path class="s15" d="m195.7 308c0.1-0.3 0.6-0.9 1.4-1.2 0.8-0.2 1.4-0.1 1.8 0.1"/>
			<path class="s15" d="m195.5 305.4c0.2-0.3 0.8-0.6 1-0.7 0.3-0.1 0.9 0 1.2 0"/>
			<path class="s14" d="m189.3 309.1c-0.4-1.9 0.3-5.3 1-7.4 1.4 1.7 3.4 4.6 3.7 6.5 0.8 3.5-3.9 4.3-4.7 0.9z"/>
			<path class="s14" d="m190 309c-0.4-1.5 0.2-4 0.7-5.6 1 1.3 2.4 3.5 2.7 4.8 0.6 2.7-2.9 3.3-3.4 0.8z"/>
			<path class="s15" d="m190 308.9c0.2-0.3 0.7-0.8 1.5-1 0.9-0.2 1.4 0 1.8 0.3"/>
			<path class="s15" d="m190.1 306.3c0.2-0.3 0.8-0.5 1-0.6 0.3 0 0.9 0.1 1.2 0.2"/>
			<path class="s14" d="m200.9 306.7c-0.8-1.8-0.8-5.3-0.5-7.5 1.7 1.4 4.2 3.9 4.9 5.6 1.4 3.4-3 5.1-4.4 1.9z"/>
			<path class="s14" d="m201.4 306.4c-0.6-1.4-0.5-3.9-0.3-5.6 1.3 1.1 3.1 2.9 3.6 4.2 1 2.5-2.2 3.7-3.3 1.4z"/>
			<path class="s15" d="m201.4 306.3c0.2-0.3 0.6-0.9 1.4-1.3 0.8-0.3 1.3-0.2 1.8 0"/>
			<path class="s15" d="m201 303.8c0.2-0.3 0.7-0.7 1-0.8 0.3-0.1 0.9-0.1 1.1-0.1"/>
			<path class="s14" d="m177.9 309.7c0-2.1 1.3-5.2 2.5-7.2 1 2 2.3 5.2 2.3 7.1 0 3.7-4.7 3.5-4.8 0.1z"/>
			<path class="s14" d="m178.5 309.6c0-1.5 1-3.8 1.8-5.3 0.8 1.5 1.8 3.9 1.8 5.3 0 2.7-3.5 2.6-3.6 0z"/>
			<path class="s15" d="m178.5 309.5c0.3-0.2 0.9-0.6 1.8-0.6 0.8 0 1.3 0.3 1.7 0.6"/>
			<path class="s15" d="m179.2 307c0.3-0.2 0.9-0.3 1.1-0.3 0.3 0 0.9 0.2 1.1 0.3"/>
			<path class="s14" d="m172.4 309.6c0-2.1 1.5-5.1 2.7-7.1 1 2.1 2.1 5.3 2.1 7.2-0.2 3.7-4.9 3.3-4.8-0.1z"/>
			<path class="s14" d="m173 309.5c0-1.5 1.1-3.7 2-5.2 0.7 1.5 1.6 3.9 1.5 5.4-0.1 2.7-3.5 2.4-3.5-0.2z"/>
			<path class="s15" d="m173 309.5c0.3-0.3 0.9-0.7 1.8-0.6 0.8 0 1.3 0.3 1.7 0.7"/>
			<path class="s15" d="m173.7 307c0.4-0.2 1-0.3 1.2-0.3 0.3 0 0.9 0.2 1.1 0.4"/>
			<path class="s14" d="m183.7 309.6c-0.3-2 0.7-5.2 1.6-7.3 1.3 1.8 2.9 4.9 3.1 6.8 0.4 3.6-4.3 3.9-4.7 0.5z"/>
			<path class="s14" d="m184.3 309.5c-0.2-1.5 0.5-3.9 1.2-5.4 0.9 1.3 2.2 3.6 2.3 5 0.3 2.7-3.2 2.9-3.5 0.4z"/>
			<path class="s15" d="m184.3 309.4c0.2-0.2 0.8-0.7 1.7-0.8 0.8-0.1 1.3 0.1 1.7 0.4"/>
			<path class="s15" d="m184.6 306.9c0.3-0.3 0.9-0.5 1.2-0.5 0.3 0 0.8 0.1 1.1 0.2"/>
			<path class="s14" d="m134.7 289.6c1.7-1.1 5-1.7 7.3-1.9-1.1 2-3.1 4.8-4.7 5.9-3 2-5.5-2.1-2.6-4z"/>
			<path class="s14" d="m135.1 290.1c1.2-0.8 3.7-1.3 5.4-1.4-0.8 1.5-2.3 3.6-3.5 4.3-2.2 1.5-4-1.5-1.9-2.9z"/>
			<path class="s15" d="m135.1 290.1c0.4 0.1 1.1 0.3 1.6 1.1 0.4 0.7 0.4 1.2 0.4 1.7"/>
			<path class="s15" d="m137.6 289.2c0.3 0.1 0.8 0.6 0.9 0.8 0.2 0.2 0.3 0.8 0.3 1.1"/>
			<path class="s14" d="m132.1 284.9c1.7-1 5.1-1.3 7.4-1.2-1.3 1.9-3.5 4.5-5.2 5.4-3.2 1.7-5.3-2.6-2.2-4.2z"/>
			<path class="s14" d="m132.4 285.4c1.3-0.7 3.8-0.9 5.5-0.9-0.9 1.4-2.6 3.4-3.8 4-2.4 1.3-3.9-1.9-1.7-3.1z"/>
			<path class="s15" d="m132.5 285.4c0.3 0.1 1 0.4 1.4 1.2 0.4 0.8 0.3 1.3 0.2 1.8"/>
			<path class="s15" d="m135 284.7c0.3 0.2 0.7 0.7 0.8 0.9 0.2 0.3 0.2 0.9 0.2 1.2"/>
			<path class="s14" d="m137.9 294.2c1.5-1.4 4.7-2.5 6.9-3-0.8 2.1-2.3 5.3-3.7 6.5-2.7 2.4-5.7-1.2-3.2-3.5z"/>
			<path class="s14" d="m138.3 294.6c1.1-1 3.5-1.8 5.2-2.2-0.6 1.6-1.7 3.9-2.8 4.8-2 1.8-4.2-0.9-2.4-2.6z"/>
			<path class="s15" d="m138.4 294.6c0.3 0 1.1 0.2 1.7 0.8 0.5 0.7 0.6 1.2 0.6 1.7"/>
			<path class="s15" d="m140.7 293.3c0.4 0.1 0.8 0.5 1 0.7 0.2 0.2 0.4 0.8 0.5 1.1"/>
			<path class="s14" d="m128.2 274.6c1.9-0.6 5.3-0.1 7.5 0.5-1.6 1.5-4.4 3.6-6.2 4.1-3.6 0.9-4.6-3.7-1.3-4.6z"/>
			<path class="s14" d="m128.4 275.2c1.4-0.5 3.9-0.1 5.6 0.3-1.3 1.2-3.3 2.7-4.7 3.1-2.6 0.7-3.3-2.7-0.9-3.4z"/>
			<path class="s15" d="m128.5 275.1c0.3 0.2 0.8 0.7 1.1 1.6 0.2 0.8 0 1.3-0.2 1.8"/>
			<path class="s15" d="m131.1 275.1c0.3 0.2 0.5 0.8 0.6 1 0.1 0.3 0 0.9-0.1 1.2"/>
			<path class="s14" d="m126.8 269.2c2-0.5 5.4 0.2 7.5 0.9-1.7 1.4-4.5 3.4-6.4 3.8-3.5 0.8-4.4-3.9-1.1-4.7z"/>
			<path class="s14" d="m127 269.8c1.5-0.3 4 0.1 5.6 0.6-1.3 1.1-3.4 2.6-4.8 2.9-2.6 0.6-3.2-2.9-0.8-3.5z"/>
			<path class="s15" d="m127.1 269.8c0.3 0.2 0.8 0.7 1 1.6 0.2 0.8 0 1.3-0.2 1.8"/>
			<path class="s15" d="m129.7 269.9c0.3 0.2 0.5 0.8 0.6 1 0 0.3 0 0.9-0.1 1.2"/>
			<path class="s14" d="m129.9 279.9c1.8-0.8 5.3-0.6 7.5-0.2-1.5 1.6-4 4-5.8 4.6-3.4 1.3-4.9-3.2-1.7-4.4z"/>
			<path class="s14" d="m130.1 280.4c1.4-0.5 3.9-0.4 5.6-0.1-1.1 1.2-3 3-4.3 3.5-2.5 0.9-3.6-2.4-1.3-3.3z"/>
			<path class="s15" d="m130.2 280.4c0.3 0.2 0.9 0.6 1.2 1.4 0.3 0.8 0.2 1.4 0 1.9"/>
			<path class="s15" d="m132.8 280.1c0.3 0.2 0.6 0.8 0.7 1 0.1 0.3 0.1 0.9 0.1 1.2"/>
			<path class="s14" d="m146.1 301.6c1.1-1.7 3.9-3.6 5.9-4.7-0.2 2.2-0.8 5.6-1.8 7.2-1.9 3.1-5.8 0.5-4.1-2.5z"/>
			<path class="s14" d="m146.7 301.9c0.8-1.3 2.8-2.7 4.3-3.5-0.1 1.7-0.5 4.2-1.3 5.4-1.4 2.3-4.3 0.3-3-1.9z"/>
			<path class="s15" d="m146.7 301.9c0.4-0.1 1.1-0.1 1.9 0.3 0.7 0.5 0.9 1 1.1 1.5"/>
			<path class="s15" d="m148.6 300.1c0.4 0 0.9 0.2 1.2 0.3 0.2 0.2 0.6 0.6 0.7 0.9"/>
			<path class="s14" d="m141.7 298.2c1.3-1.6 4.4-3 6.5-3.8-0.5 2.2-1.6 5.5-2.8 6.9-2.5 2.8-5.9-0.5-3.7-3.1z"/>
			<path class="s14" d="m142.2 298.6c1-1.2 3.3-2.3 4.9-2.8-0.4 1.6-1.3 4-2.2 5.1-1.8 2-4.3-0.4-2.7-2.3z"/>
			<path class="s15" d="m142.3 298.5c0.3 0 1.1 0.1 1.7 0.6 0.7 0.6 0.8 1.1 0.9 1.6"/>
			<path class="s15" d="m144.4 297c0.4 0.1 0.9 0.3 1.1 0.5 0.2 0.2 0.5 0.7 0.6 1"/>
			<path class="s14" d="m151 304.4c0.8-1.9 3.4-4.1 5.3-5.4 0.1 2.2-0.1 5.7-1 7.4-1.5 3.3-5.7 1.1-4.3-2z"/>
			<path class="s14" d="m151.6 304.6c0.6-1.4 2.5-3 3.9-4 0 1.7-0.1 4.2-0.7 5.5-1.2 2.4-4.3 0.8-3.2-1.5z"/>
			<path class="s15" d="m151.6 304.6c0.4-0.2 1.1-0.3 1.9 0.1 0.8 0.4 1.1 0.8 1.3 1.3"/>
			<path class="s15" d="m153.3 302.5c0.3 0 0.9 0.1 1.2 0.2 0.2 0.2 0.7 0.6 0.8 0.8"/>
			<path class="s14" d="m161.5 308c0.4-1.9 2.4-4.7 3.9-6.4 0.6 2.1 1.2 5.5 0.8 7.4-0.8 3.6-5.4 2.4-4.7-1z"/>
			<path class="s14" d="m162.1 308.1c0.3-1.4 1.8-3.5 2.9-4.8 0.4 1.6 0.9 4.2 0.6 5.5-0.6 2.7-4 1.8-3.5-0.7z"/>
			<path class="s15" d="m162.2 308.1c0.3-0.2 1-0.5 1.8-0.3 0.8 0.1 1.2 0.5 1.5 0.9"/>
			<path class="s15" d="m163.3 305.7c0.3-0.1 0.9-0.1 1.2-0.1 0.3 0.1 0.8 0.4 1 0.6"/>
			<path class="s14" d="m156.2 306.5c0.6-1.9 2.8-4.5 4.5-6 0.4 2.2 0.7 5.6 0.1 7.5-1.2 3.4-5.6 1.8-4.6-1.5z"/>
			<path class="s14" d="m156.8 306.7c0.4-1.5 2.1-3.4 3.3-4.5 0.3 1.6 0.5 4.2 0.1 5.5-0.8 2.6-4.1 1.4-3.4-1z"/>
			<path class="s15" d="m156.8 306.6c0.4-0.1 1.1-0.4 1.9-0.1 0.8 0.3 1.2 0.7 1.4 1.1"/>
			<path class="s15" d="m158.2 304.4c0.4-0.1 1-0.1 1.2 0 0.3 0.1 0.8 0.5 1 0.7"/>
			<path class="s14" d="m166.8 309c0.2-2 1.9-5 3.2-6.8 0.8 2.1 1.8 5.4 1.6 7.3-0.4 3.6-5.1 3-4.8-0.5z"/>
			<path class="s14" d="m167.5 309c0.1-1.5 1.3-3.7 2.3-5 0.6 1.5 1.3 4 1.2 5.4-0.3 2.7-3.8 2.2-3.5-0.4z"/>
			<path class="s15" d="m167.5 309c0.3-0.2 0.9-0.6 1.8-0.5 0.8 0.1 1.3 0.4 1.6 0.8"/>
			<path class="s15" d="m168.3 306.5c0.4-0.1 1-0.2 1.3-0.2 0.3 0.1 0.8 0.3 1 0.5"/>
			<path class="s14" d="m211.6 302.1c-1.2-1.6-1.9-5-2.1-7.2 2 1 4.9 2.9 6 4.5 2.1 3-1.9 5.5-3.9 2.7z"/>
			<path class="s14" d="m212.1 301.7c-0.9-1.2-1.4-3.7-1.6-5.3 1.5 0.7 3.6 2.1 4.4 3.3 1.6 2.2-1.3 4.1-2.8 2z"/>
			<path class="s15" d="m212 301.7c0.1-0.4 0.4-1.1 1.1-1.6 0.7-0.5 1.2-0.5 1.7-0.4"/>
			<path class="s15" d="m211.1 299.3c0.1-0.4 0.5-0.8 0.7-1 0.3-0.2 0.9-0.3 1.1-0.3"/>
			<path class="s14" d="m206.5 304.8c-1.1-1.8-1.5-5.2-1.5-7.5 1.9 1.3 4.7 3.4 5.6 5 1.8 3.2-2.4 5.4-4.1 2.4z"/>
			<path class="s14" d="m207 304.4c-0.8-1.3-1.1-3.8-1.1-5.5 1.4 0.9 3.4 2.5 4.1 3.7 1.4 2.4-1.7 4-3 1.8z"/>
			<path class="s15" d="m207 304.3c0.1-0.3 0.4-1 1.1-1.4 0.8-0.5 1.3-0.4 1.8-0.3"/>
			<path class="s15" d="m206.2 301.8c0.2-0.3 0.7-0.7 0.9-0.8 0.2-0.2 0.8-0.3 1.1-0.3"/>
			<path class="s14" d="m216.4 298.9c-1.4-1.4-2.6-4.6-3.1-6.8 2.1 0.7 5.2 2.1 6.6 3.5 2.5 2.7-1.1 5.8-3.5 3.3z"/>
			<path class="s14" d="m216.8 298.5c-1-1.1-1.9-3.5-2.3-5.1 1.6 0.5 3.9 1.6 4.9 2.6 1.8 2-0.8 4.3-2.6 2.5z"/>
			<path class="s15" d="m216.8 298.4c0-0.3 0.2-1.1 0.8-1.7 0.6-0.6 1.2-0.7 1.7-0.7"/>
			<path class="s15" d="m215.5 296.2c0.1-0.4 0.4-0.9 0.6-1.1 0.2-0.2 0.8-0.4 1.1-0.5"/>
			<path class="s14" d="m224.8 290.9c-1.8-1-3.8-3.8-4.9-5.8 2.2 0.1 5.6 0.7 7.3 1.6 3.1 1.9 0.6 5.9-2.4 4.2z"/>
			<path class="s14" d="m225 290.3c-1.3-0.7-2.8-2.8-3.6-4.2 1.7 0 4.2 0.4 5.4 1.1 2.3 1.4 0.5 4.4-1.8 3.1z"/>
			<path class="s15" d="m225 290.3c-0.1-0.4-0.1-1.2 0.3-1.9 0.4-0.7 0.9-1 1.4-1.1"/>
			<path class="s15" d="m223.1 288.4c0-0.3 0.2-0.9 0.3-1.1 0.2-0.3 0.7-0.7 0.9-0.8"/>
			<path class="s14" d="m220.8 295.2c-1.5-1.2-3.1-4.3-3.9-6.4 2.2 0.5 5.5 1.5 6.9 2.7 2.9 2.3-0.2 5.8-3 3.7z"/>
			<path class="s14" d="m221.2 294.7c-1.2-0.9-2.3-3.2-3-4.8 1.7 0.4 4.1 1.1 5.2 2 2.1 1.7-0.2 4.3-2.2 2.8z"/>
			<path class="s15" d="m221.2 294.6c-0.1-0.3 0-1.1 0.5-1.7 0.6-0.7 1.1-0.9 1.6-1"/>
			<path class="s15" d="m219.6 292.6c0-0.4 0.3-0.9 0.5-1.2 0.2-0.2 0.7-0.5 0.9-0.6"/>
			<path class="s14" d="m227.9 286.2c-1.8-0.9-4-3.6-5.2-5.5 2.3 0 5.7 0.3 7.4 1.2 3.2 1.8 0.8 5.8-2.2 4.3z"/>
			<path class="s14" d="m228.1 285.6c-1.3-0.7-2.9-2.7-3.8-4.1 1.7 0 4.2 0.3 5.5 1 2.3 1.3 0.6 4.3-1.7 3.1z"/>
			<path class="s15" d="m228.1 285.6c-0.1-0.4-0.2-1.1 0.2-1.9 0.4-0.8 0.9-1 1.4-1.2"/>
			<path class="s15" d="m226.1 283.8c0-0.3 0.2-0.9 0.3-1.2 0.1-0.2 0.6-0.6 0.8-0.8"/>
			<path class="s14" d="m232.5 276.2c-2-0.6-4.5-2.9-6.1-4.5 2.3-0.4 5.7-0.7 7.5-0.1 3.5 1.2 1.9 5.6-1.4 4.6z"/>
			<path class="s14" d="m232.6 275.6c-1.4-0.5-3.3-2.1-4.5-3.4 1.7-0.2 4.2-0.4 5.6 0 2.6 0.9 1.4 4.1-1.1 3.4z"/>
			<path class="s15" d="m232.6 275.5c-0.2-0.3-0.4-1-0.2-1.8 0.3-0.8 0.8-1.2 1.2-1.5"/>
			<path class="s15" d="m230.3 274.2c-0.1-0.4 0-1 0.1-1.2 0.1-0.3 0.4-0.8 0.7-1"/>
			<path class="s14" d="m230.5 281.2c-1.8-0.7-4.2-3.2-5.6-5 2.2-0.2 5.7-0.1 7.4 0.6 3.4 1.4 1.4 5.7-1.8 4.4z"/>
			<path class="s14" d="m230.7 280.6c-1.4-0.5-3.1-2.3-4.1-3.7 1.6-0.1 4.2-0.1 5.5 0.5 2.5 1 1 4.2-1.4 3.2z"/>
			<path class="s15" d="m230.7 280.6c-0.1-0.3-0.3-1.1 0-1.9 0.4-0.8 0.8-1.1 1.3-1.3"/>
			<path class="s15" d="m228.6 279.1c-0.1-0.4 0-1 0.1-1.3 0.1-0.2 0.5-0.7 0.8-0.8"/>
			<path class="s14" d="m234.2 270.9c-2-0.3-4.8-2.3-6.5-3.8 2.2-0.6 5.6-1.2 7.4-0.8 3.6 0.7 2.5 5.3-0.9 4.7z"/>
			<path class="s14" d="m234.3 270.3c-1.5-0.3-3.6-1.7-4.8-2.8 1.6-0.5 4.1-0.9 5.5-0.6 2.6 0.5 1.8 3.9-0.7 3.4z"/>
			<path class="s15" d="m234.2 270.3c-0.2-0.3-0.5-1-0.3-1.8 0.2-0.9 0.6-1.3 1-1.6"/>
			<path class="s15" d="m231.9 269.2c-0.2-0.4-0.2-1-0.1-1.2 0-0.3 0.3-0.8 0.6-1.1"/>
		</g>
	</g>
	<path class="s16" d="m250.4 601.8l-1.2 0.3 0.8 12.1c0.1 17.7 0.6 36.5 4.2 49.5l5.2-8.4 10 8.6c-3-31.2-9.3-22.3-19-62.1z"/>
	<g>
		<path class="s15" d="m255.5 671.1l5.9-8.3 7.8 6.7"/>
		<path class="s15" d="m256.5 678.3l5.7-8 7.6 6.4"/>
		<path class="s15" d="m257.6 685.9l5.4-7.8 7.4 6.2"/>
		<path class="s15" d="m258.6 693.9l5.5-7.6 7.1 5.9"/>
		<path class="s15" d="m259.6 701.3l5.3-7.5 7.1 5.9"/>
		<path class="s15" d="m260.7 709.1l5-7.2 6.9 5.8"/>
		<path class="s15" d="m261.9 716.8l4.9-7 6.7 5.7"/>
		<path class="s15" d="m262.9 724.1l4.7-6.7 6.5 5.4"/>
		<path class="s15" d="m263.8 731l4.6-6.6 6.3 5.3"/>
		<path class="s15" d="m264.5 738.4l4.8-6.5 6.1 5"/>
		<path class="s15" d="m265.4 745.6l4.9-6.2 5.8 5"/>
		<path class="s15" d="m266.4 753l4.5-5.7 6.2 4.5"/>
		<path class="s15" d="m267.4 760.3l4.6-5.6 5.7 4.1"/>
		<path class="s15" d="m270 779.2l4.4-5.2 5.5 3.5"/>
		<path class="s15" d="m269.1 773.3l4.4-5.5 5.7 3.9"/>
		<path class="s15" d="m268.4 766.7l4.4-5.2 5.5 3.7"/>
		<path class="s15" d="m270.9 785.7l4.5-5.2 5.3 3.9"/>
		<path class="s15" d="m271.8 791.9l4.2-5 5.5 3.5"/>
		<path class="s15" d="m273.3 804.1l4.4-5 5.7 3.5"/>
		<path class="s15" d="m272.6 797.9l4.2-4.8 5.6 3.6"/>
		<path class="s15" d="m273.6 806.4l10.2-1.6"/>
	</g>
	<g>
		<path class="s17" d="m265.2 597.3c2.7-0.9 4.9-0.5 7.1 0l-1.3-33.7 16.1 1.1c-0.5-2.4-0.7-4.9 0-7.3l-16.1 1.1c3.4-6 8.1-11.3 9.8-20.1 3.4-17.8-5.6-17-11.9-17.1-6.9 0-17 1-12.8 17.9 2 7.7 6.7 13.8 10.5 19.3l-18.1-1.1c0.6 2.4 0.6 4.9 0 7.3l18.1-1.1z"/>
		<path class="s7" d="m266.6 553.6c-3.5-4.7-6.8-9.3-7.7-15.4-1.7-12.3 4.7-13.7 9.9-13.7 4.6 0 11.4 0.6 8.3 13.6-1.4 6.1-3.6 11.5-6.1 15.5-1.5 2.1-3.2 1.7-4.4 0z"/>
		<path class="s2" d="m280.6 501.1l-19.8-0.6c-1 5-3.5 10.3-5.9 15.5-3.1 5-3.3 11.4-2.4 17.5l-0.4 5.8c9 1 0.3-10.9 6-15.3l0.9 8.2c1.6 1.6 3.2 2.8 4.5 0.3q2.4 2.7 4.8-0.3c1.9 2.5 3.5 0.8 5.1 0 1.8 1.4 3.7 1.9 4.9-1.3 0.4-8.7 3-17.1 2.3-29.8z"/>
		<g>
			<path class="s3" d="m260.6 489.3l20.8 0.2-0.8 13.1-19.9-0.7z"/>
			<path class="s4" d="m260.6 491.2l20.7 0.3-0.2 4.1-20.4-0.4z"/>
			<path class="s3" d="m260.4 489.3l20.9 0.2-0.6 13.1-20.2-0.7z"/>
			<path class="s4" d="m260.4 491.2l20.9 0.3-0.3 4.1-20.5-0.4z"/>
			<path class="s4" d="m260.5 496.5l20.5 0.3-0.3 4-20.2-0.3z"/>
		</g>
		<path class="s2" d="m49.1 477.2c-10.2 1.6-22.7 5.4-31 19l-5.1 3.2c2.7 5.9 8.1 2.5 9.8-0.6-1 2.7-0.5 4.5 2.7 4.5-0.7 2.6 0.2 4 3.3 4.1-1.6 2.5 0.3 4.8 3 4.2-0.9 3.3 0.8 4.7 2.5 4.7 4.6 2 25-23.4 27.1-25.6"/>
		<path id="Layer copy" class="s2" d="m49.1 477.2c-10.2 1.6-22.7 5.4-31 19l-5.1 3.2c2.7 5.9 8.1 2.5 9.8-0.6-1 2.7-0.5 4.5 2.7 4.5-0.7 2.6 0.2 4 3.3 4.1-1.6 2.5 0.3 4.8 3 4.2-0.9 3.3 0.8 4.7 2.5 4.7 4.6 2 25-23.4 27.1-25.6"/>
		<path class="s17" d="m22.7 285.5c0.8-7.1-0.4-13.4 2.6-22 3.5-10.6 7.1-12.5 11.3-18 1.5-1.3 4.1 0.1 3.3 2.5-4.8 4.5-8.3 10.6-9.7 14.1 1.5-0.1 8.4-0.7 8.6 6.5l-0.1 492.9c7.8 8.9 1.1 15.7 1.6 23.4-0.8 0.4-1.5 0.2-1.5-0.5-1.1-8.5 1.8-12.1-0.1-16.5-0.9-2.1-2.6-2-3.6-0.3-2.1 3.9 0.9 6.3 0.1 16.7-0.1 0.8-1 1-1.4 0.5-0.5-7.7-5.8-14.3 1.3-23.3v-492.3c-0.4-4-4.8-4.4-7 0.1-2.5 5.3-1.4 10.9-2.1 16.3-1.1 3.5-3.4 2.2-3.3-0.1z"/>
		<path id="Layer copy 2" class="s2" d="m49.1 477.2c-10.2 1.6-22.7 5.4-31 19l-5.1 3.2c2.7 5.9 8.1 2.5 9.8-0.6-1 2.7-0.5 4.5 2.7 4.5-0.7 2.6 0.2 4 3.3 4.1-1.6 2.5 0.3 4.8 3 4.2"/>
		<g>
			<path class="s3" d="m49.5 464l21.4 12.7-9.2 13.9-17.6-12.7z"/>
			<path class="s4" d="m48.8 465.8l20.9 13-2.7 4-19.7-13.1z"/>
			<path class="s4" d="m46.5 471.9l18.9 13.1-2.9 4.3-17.7-13.1z"/>
		</g>
		<path class="s2" d="m35.7 488c3.6-2.8 8-2.4 4.6 1.8 2.9-2.8 9-2.3 3 3.5 5.5-3.4 5.8 1.1 3 3.6 3.7-2.3 4.7 1.3 0.9 5-3.8 4.7-8.2 9.5-12.5 14.2q-0.1 0.2-0.4 0.2c-1.7-0.1-3.4-1.3-2.4-4.5-2.8 0.5-4.7-1.7-3.1-4.3-3 0-3.9-1.5-3.2-4.1-3.3 0-4.1-1.2-3.1-4q0.2-0.3 0.4-0.5c4.6-5 8.8-8.5 12.7-10.8m0.8-0.5c-0.3 1.2 0.9 2.9 3 2.9m0.8-0.5c-0.8 1.4 1.6 3.4 3 3.3m0.3-0.2c-1.2 1.5 0.6 4.7 3.2 3.4m-0.5 0.5c-0.7 1.6 0.6 3.3 2.1 3.6m-19.5 6.9c0.6-0.3 14.5-14.2 14.5-14.2m-17.6 10.1c0.8-0.8 14.6-13.6 14.6-13.6m-8.3 22l14.4-15"/>
		<path class="s7" d="m40.2 490c-0.2 0.2-0.2 0.5-0.8 0.5-2.5 0-3.1-2.5-3-2.9 3.4-2.3 7.1-1.6 3.9 2.3 3-2.8 9.1-2.4 3 3.4 5.5-3.4 5.9 1 3.1 3.5 3.3-2 4.4 0.7 1.9 3.8-1.5-0.3-2.8-2-1.9-3.8-2.5 1.2-4.1-2.2-3.1-3.6-1.5 0.2-3.9-1.8-3.1-3.2z"/>
	</g>
	<g>
		<g>
			<path class="s3" d="m88.4 322.8l34 1.3-1.9 17.5-34.7-2.3z"/>
			<path class="s4" d="m88.2 324.6l33.9 1.9-0.6 5-34.2-1.7z"/>
			<path class="s4" d="m87.1 331.7l34.2 2-0.6 5.4-34.5-1.9z"/>
		</g>
		<path class="s6" d="m244.2 612.1c-90.4-15.2-106.9-83.4-100.2-171.3l82.4-14.6c7.8 13 12.4 30.6 6.6 40.1 7.6 48.4 12.3 97.6 11.2 145.8z"/>
		<path class="s3" d="m226.2 426.1l-6.3-29.8-75.8 36.7-0.3 7.6z"/>
	</g>
	<g>
		<path class="s18" d="m193.5 415l6.6-2.8 1.7 4.1-6.8 2.4z"/>
		<path class="s19" d="m202.8 411.1l6-2.5 1.9 4.7-6.2 2.1z"/>
		<path class="s18" d="m211.5 407.6l6.9-2.9 2.1 5-7.2 2.5z"/>
	</g>
	<path class="s7" d="m219.9 396.2l0.7 3.6-73.1 32.1-3.3 0.9z"/>
	<g>
		<path class="s18" d="m156.7 429.9l6.1-2.4 0.9 2.3-6.2 2.3z"/>
		<path class="s19" d="m165.8 426.3l6.4-2.7 1 2.8-6.5 2.3z"/>
		<path class="s18" d="m174.8 422.7l6.6-2.8 1.3 3.2-6.8 2.4z"/>
	</g>
	<path class="s20" d="m184.2 418.6l6.7-2.8 1.7 3.9-6.9 2.4z"/>
	<g>
		<path class="s21" d="m222.5 409.3l-66.9 23.5"/>
		<path class="s21" d="m221.3 403.4l-67.8 27.7"/>
		<g>
			<path class="s21" d="m210.5 408l2 4.6"/>
			<path class="s21" d="m209.7 408.2l1.9 4.7"/>
			<path class="s21" d="m220.1 403.9l2.1 5.3"/>
			<path class="s21" d="m219.3 404.3l2.1 5.2"/>
			<path class="s21" d="m201.9 411.5l1.9 4.2"/>
			<path class="s21" d="m200.9 411.9l1.9 4.1"/>
			<path class="s21" d="m192.7 415.3l1.5 3.7"/>
			<path class="s21" d="m191.8 415.5l1.6 3.9"/>
			<path class="s21" d="m183.1 419.1l1.5 3.3"/>
			<path class="s21" d="m182.3 419.5l1.4 3.3"/>
			<path class="s21" d="m174 423l1 2.7"/>
			<path class="s21" d="m173.1 423.4l1.1 2.7"/>
			<path class="s21" d="m165 426.7l0.7 2.4"/>
			<path class="s21" d="m163.9 427l0.9 2.5"/>
			<path class="s21" d="m155.9 430.3l0.8 2"/>
			<path class="s21" d="m155.1 430.5l0.9 2.1"/>
		</g>
	</g>
	<g>
		<path class="s18" d="m213.9 418.2l7.2-2.1 1.5 5.2-7.4 1.7z"/>
		<path class="s19" d="m204.8 420.7l6.3-1.9 1.5 4.9-6.5 1.4z"/>
		<path class="s18" d="m195.2 423.5l6.9-2 1.1 4.2-6.9 1.6z"/>
	</g>
	<path class="s20" d="m185.6 426l6.9-2 1.2 4.1-7 1.6z"/>
	<g>
		<path class="s18" d="m175.8 429l6.8-2 1 3.3-7.1 1.7z"/>
		<path class="s19" d="m166.4 431.6l6.7-1.9 0.7 2.8-6.7 1.6z"/>
		<path class="s18" d="m157.4 434.2l6-1.7 0.6 2.3-6 1.4z"/>
	</g>
	<g>
		<g>
			<path class="s21" d="m225 420.9l-69.5 16"/>
			<path class="s21" d="m223.8 415.3l-70 19.7"/>
			<g>
				<path class="s21" d="m212.9 418.4l1.4 4.8"/>
				<path class="s21" d="m212 418.6l1.4 4.9"/>
				<path class="s21" d="m222.9 415.5l1.5 5.5"/>
				<path class="s21" d="m222 415.8l1.5 5.4"/>
				<path class="s21" d="m203.9 421l1.4 4.4"/>
				<path class="s21" d="m202.9 421.2l1.4 4.4"/>
				<path class="s21" d="m194.3 423.7l1.1 3.8"/>
				<path class="s21" d="m193.4 423.8l1.2 4"/>
				<path class="s21" d="m184.4 426.4l1.1 3.4"/>
				<path class="s21" d="m183.5 426.7l1.1 3.4"/>
				<path class="s21" d="m174.9 429.2l0.7 2.9"/>
				<path class="s21" d="m173.9 429.5l0.8 2.9"/>
				<path class="s21" d="m165.4 431.9l0.7 2.4"/>
				<path class="s21" d="m164.5 432.1l0.7 2.6"/>
				<path class="s21" d="m156.8 434.3l0.5 2.2"/>
				<path class="s21" d="m156.1 434.5l0.5 2.1"/>
			</g>
		</g>
		<g>
			<path class="s1" d="m156.3 433.2l66.6-22.2"/>
			<path class="s1" d="m156.5 433.7l66.9-20.5"/>
			<path class="s1" d="m155.6 437.5l69.7-15.2"/>
			<path class="s1" d="m154.6 438.3l71.2-13.9"/>
			<path class="s1" d="m150.1 431.3l70.7-30.4"/>
			<path class="s1" d="m151.9 431.2l69.2-29"/>
		</g>
	</g>
	<g>
		<path class="s3" d="m143.8 440.6c7.9-1.8 13.7-1 12.6-6.9-0.8-4.3-8.2-2.2-12.3-0.9z"/>
		<path class="s5" d="m127.2 611.9l17-170.3 88.6-0.1c1.1 4.7 5.3 13.4 0.3 26 7.6 48.3 12.2 97.1 11.2 145.2z"/>
		<path class="s6" d="m244 612.3c-90.4-15.3-106.9-83.5-100.1-171.4l82.4-14.5c7.8 13 12.6 31.5 6.7 41 7.6 48.4 12.1 96.7 11 144.9z"/>
	</g>
	<g>
		<g>
			<path class="s14" d="m226.1 426.5l-66.8 130.9"/>
			<path class="s14" d="m222.2 427.1l-64.7 126.7"/>
			<path class="s14" d="m155.8 550l62.4-122.2"/>
			<path class="s14" d="m214.2 428.6l-60.1 117.6"/>
			<path class="s14" d="m152.6 542l57.5-112.7"/>
			<path class="s14" d="m206.1 430l-55 107.8"/>
			<path class="s14" d="m149.7 533.3l52.5-102.6"/>
			<path class="s14" d="m198.2 431.3l-49.7 97.4"/>
			<path class="s14" d="m147.3 523.8l46.8-91.7"/>
			<path class="s14" d="m190.1 432.8l-43.8 85.8"/>
			<path class="s14" d="m145.4 513.4l40.7-79.9"/>
			<path class="s14" d="m182.2 434.2l-37.6 73.6"/>
			<path class="s14" d="m143.9 502l34.2-67.1"/>
			<path class="s14" d="m174.2 435.6l-30.8 60.3"/>
			<path class="s14" d="m142.9 489.6l27.2-53.3"/>
			<path class="s14" d="m166.2 437l-23.5 46"/>
			<path class="s14" d="m142.6 476.1l19.6-38.4"/>
			<path class="s14" d="m158.1 438.4l-15.5 30.5"/>
			<path class="s14" d="m142.8 461.4l11.4-22.3"/>
			<path class="s14" d="m150.1 439.9l-7.1 13.9"/>
			<path class="s14" d="m143.6 445.6l2.5-5.1"/>
			<path class="s14" d="m228.2 429.6l-67 131.2"/>
			<path class="s14" d="m163.2 564l66.7-130.7"/>
			<path class="s14" d="m231.6 437.2l-66.4 130"/>
			<path class="s14" d="m167.3 570.2l65.7-128.7"/>
			<path class="s14" d="m234.3 446.1l-64.7 126.9"/>
			<path class="s14" d="m171.8 575.7l63.5-124.4"/>
			<path class="s14" d="m235.6 457.9l-61.4 120.3"/>
			<path class="s14" d="m176.5 580.7l56.9-111.4"/>
			<path class="s14" d="m234.2 474.8l-55.2 108.2"/>
			<path class="s14" d="m181.4 585.4l53.6-105"/>
			<path class="s14" d="m235.8 486l-51.8 101.5"/>
			<path class="s14" d="m186.6 589.5l50-97.9"/>
			<path class="s14" d="m237.3 497.2l-48 94.2"/>
			<path class="s14" d="m192 593.2l46-90.1"/>
			<path class="s14" d="m238.7 508.8l-44 86.2"/>
			<path class="s14" d="m197.5 596.6l41.9-82.1"/>
			<path class="s14" d="m240 520.6l-39.6 77.6"/>
			<path class="s14" d="m203.3 599.7l37.4-73.4"/>
			<path class="s14" d="m241.2 532.5l-35 68.6"/>
			<path class="s14" d="m209.2 602.3l32.6-63.8"/>
			<path class="s14" d="m242.2 544.9l-30 58.7"/>
			<path class="s14" d="m215.2 604.8l27.4-53.7"/>
			<path class="s14" d="m243.1 557.3l-24.8 48.5"/>
			<path class="s14" d="m221.4 607l22-43.2"/>
			<path class="s14" d="m243.7 570.4l-19.2 37.5"/>
			<path class="s14" d="m227.8 608.7l16.2-31.7"/>
			<path class="s14" d="m244.1 583.8l-13.1 25.8"/>
			<path class="s14" d="m234.2 610.4l10-19.6"/>
			<path class="s14" d="m244.3 597.7l-6.8 13.3"/>
			<path class="s14" d="m240.8 611.6l3.4-6.5"/>
		</g>
		<path class="s1" d="m244 612.3c-90.5-15.3-106.9-83.5-100.1-171.4l82.4-14.5c7.8 13 12.5 31.5 6.6 41 7.7 48.4 12.2 96.7 11.1 144.9z"/>
	</g>
	<path fill-rule="evenodd" class="s22" d="m146.4 426.2c-0.4 0-0.8-0.9-0.8-2 0-1.1 0.4-2 0.8-2 0.5 0 0.8 0.9 0.8 2 0 1.1-0.3 2-0.8 2z"/>
	<g>
		<path class="s6" d="m135.9 186.9l0.3-4.4 39.9-1.3 7.5 19-33.1-3.4z"/>
		<path id="path12008" fill-rule="evenodd" class="s23" d="m144.3 246.8c-5.5-0.6-10.1-2.4-14.7-4.7-2.5 12.4-9.7 38.6-15.8 48.7l17.1 5.8c2.3-13 6.1-36.6 13.4-49.8z"/>
		<path class="s24" d="m195.1 197.9l2.4 38 4.7 23c-0.3 13.6-6.8 17.6-20.5 19.3-13.6 1.5-21.4-1.4-24.1-15.1-1.3-4.7-1.8-10-2.7-14.2-4.8 1.4-26.3-3.9-25.4-8.8 0.4-0.9 0.8-2.7 1.1-4.7 0-2.1-0.8-2.9-2.1-3.1-0.8 0.2-1.8-3.7 0.4-4.1-2.2 0-2.1-2.6-1.7-3.7 0.4-1.1 0.7-2.5 0.4-3.3-4.5-0.2-7.9-3.2-5.6-7.9 2.2-4.6 8.3-12.7 11.6-18.2-0.2-2.1 0.9-6.1 2.5-9.2 6.5-0.7 35-1.9 35.1 11.7z"/>
		<path class="s25" d="m171 199.8c-1.2 32.3-10 50.1-39.2 43.9"/>
		<g>
			<path class="s23" d="m168.2 197.1c-2.5-0.6-4.9-1.4-7.1-2.8-4-2.4-7-5.8-12.7-6.9-4.5-0.9-8.6-0.5-11.2 0.7-2.7 1.1-1.5 3.3 0.6 2.5 2.1-0.8 5.9-1.5 9.6-0.8 3.6 0.8 9.2 5.1 12.7 7 3.5 1.9 5.4 2.3 7.9 2.8 0.4-0.9 0.4-1.7 0.2-2.5z"/>
			<path class="s23" d="m168.4 201.2c-6.6-0.8-8.4-0.9-13.9-3-7.3-2.5-15.7-5.8-19.4 0.6-1.7 2.6-3 3.6 1 3.3 10.3 2.3 12.6 0 17.2-1 3.5 0.6 9 1.9 14.6 3.1 0.4-0.9 0.7-1.9 0.5-3z"/>
			<path class="s1" d="m148 197.1c-3.6-1.6-7.2-2.4-10-0.3 0.2 2 0.9 3.7 2.6 4.4 2.1 0.5 5.7 0.3 7-0.9 1.2-1.1 1.6-2.7 0.4-3.2z"/>
			<path class="s5" d="m152.1 199.7c-1.7-0.5-2.6-1.1-3.6-1.6 0.1 1.1-0.4 1.8-0.9 2.5 0.6 0.2 3.7-0.7 4.5-0.9z"/>
			<path class="s5" d="m138 197.7c-1.2 1.4-1.6 2-1.8 3.3 1.6-0.2 3.1 0.5 4.4 0.2-1.7-1.1-2.4-1.9-2.6-3.5z"/>
		</g>
	</g>
	<g>
		<path class="s1" d="m138.7 230.5c-3.7-1.6-7.3 0.6-10.7 1.2m-0.8-7.2c4.3-1.8 7.6 2.5 10.6 2"/>
		<path class="s1" d="m130.8 214.8c4.5 3.6 2.1 5.9 0 5.8-2.1-0.1-5.1-3.6-5.8-1.7-0.8 2 3.3 1.3 3.3 0.7"/>
		<path class="s1" d="m138.4 228.4c-0.3-0.1-9.6-0.1-9.6-0.1"/>
	</g>
	<path class="s26" d="m128.6 219.7c-1.6-0.9-3.1-2.1-3.6-0.8-0.8 2 3.3 1.3 3.2 0.8"/>
	<path class="s27" d="m175.2 204.3c-6.3 2.9-3.9 10.3-1.8 13.6 1.2 2.5 4 1.9 4.8 0.7 0.9-1.3 1.7-3.1 2.8-4.8 9.8-12.5 8.4-15.9 8.5-16.4 0-0.7-1.9-6.3-5.4-6-3 0.3-9.7 3.7-7 9.9 0.5 1.1-2.8 0.6-1.6 1.9"/>
	<path class="s28" d="m177.7 207.2c-6.3 3-6.5 7.4-4.4 10.7 1.3 2.5 4.1 1.9 4.9 0.7 0.8-1.3 1.6-3.1 2.8-4.8 9.7-12.5 8.4-15.9 8.4-16.4 0.1-0.7-1.9-6.3-5.4-6-3.5 0.3-12.1 5-4.6 13.5 1.6 1.9-0.1 3.5-1.9 5.8m2-11.3c5.1 1.2 4 6-0.7 12.8-3.4 1.9-4.3 3-4.1 2.3 0.3-0.7 0.1-1.8 2.9-3.8"/>
	<path class="s5" d="m143.7 441c-30.6 57.8-60.6 114.7-93.8 171.9l191.8-0.2"/>
	<g>
		<path class="s14" d="m114.5 511.5l-45.7 69.6"/>
		<path class="s14" d="m123.7 518.3l-54.8 66.1"/>
		<path class="s14" d="m127.6 530.8l-59.7 57.6"/>
		<path class="s14" d="m133.6 541.5l-67.3 51.1"/>
		<path class="s14" d="m132.7 555.6l-67.4 40.8"/>
		<path class="s14" d="m137.7 559l-71.9 38.6"/>
		<path class="s14" d="m66.1 598.7l86.8-41.9"/>
		<path class="s14" d="m199.6 539.5l-133.2 60.7"/>
		<path class="s14" d="m206.2 551.4l-137 50.4"/>
		<path class="s14" d="m212.2 561.6l-141.8 42.3"/>
		<path class="s14" d="m217.9 571.9l-147.1 34.4"/>
		<path class="s14" d="m225.2 584.4l-153.8 24.5"/>
		<path class="s14" d="m229.1 591.6l-155.9 18.3"/>
		<path class="s14" d="m237.4 605.9l-164.4 6"/>
		<path class="s14" d="m233.6 599.3l-154.7 11.5"/>
		<path class="s14" d="m215.2 567l-145.6 38.2"/>
		<path class="s14" d="m209.2 556.8l-140 46.2"/>
		<path class="s14" d="m202.9 545.4l-136 56"/>
		<path class="s14" d="m130.4 537.1l-62.5 52.6"/>
		<path class="s14" d="m119.6 515l-50.7 67.6"/>
		<path class="s14" d="m126.5 523.4l-58.1 63.2"/>
		<path class="s14" d="m136.1 547.3l-70.3 47.2"/>
		<path class="s14" d="m221.8 578.3l-151.1 29.4"/>
	</g>
	<path class="s16" d="m179 434.8l24.8 96.5-14.9 4.2-13.7-100"/>
	<path class="s6" d="m172.7 607.7c0.6 1.3 2.7 2.7 4.4 2.7 2.1-0.1 4.2-1.9 5-4.9 1.2-4.4 2-9.7 2.9-14.6 0.1-1.4-0.1-2.9-1.8-4.5q-0.1-0.4 0.3-0.5c2.2 0.2 4.3 0.2 5.4-1.4 0-0.5-0.1-0.7-0.2-0.9-1.7-1.3-4-1.3-4.9-0.5-2.6-0.2-7.4 0.3-8.2 7.5-0.3 2.1 0.9 5.9 1 8.4 0 0.7 0.2 1.8-0.1 2.6-1.2 2.2-3.1-8.9-3.8-17.1"/>
	<path class="s20" d="m177.7 599.4c1.4 0.4 3 0.5 4.5 0.2 0 0-1.5 0.3 0 0q-0.5 2.8-1.5 6.8c0.1-2-2.8-2.1-3.1-1 0.2-2.4 0-0.1 0-0.1 0.2-2.3 0.2-4.2 0.1-5.9z"/>
	<path class="s1" d="m177.7 605.3c0.7-8.5-1.6-12.9-1-15.7 0.9-3.7 3.4-3.5 3.9-3.5 0.5 0 3 0.3 3.1 4.1 0.1 2.7-0.9 6.8-2.9 16.3"/>
	<path class="s29" d="m183.4 593.8c-2.1 0.8-4.4 1-6.5-0.3 0.3 1.6 0.7 3.6 0.8 6 1.4 0.4 3 0.4 4.5 0.1 0.6-2.4 0.9-4.3 1.2-5.8z"/>
	<path class="s1" d="m183.4 593.9c-2.1 0.7-4.4 0.9-6.4-0.4"/>
	<path class="s30" d="m183.4 593.9c-2 0.7-4.4 0.9-6.4-0.4-0.3-1.6-0.5-2.8-0.2-3.9 0.8-3.7 3.4-3.5 3.8-3.5 0.5 0 3 0.4 3.1 4.1 0.1 1 0 2.1-0.3 3.7z"/>
	<path class="s1" d="m182.3 599.6c-1.5 0.3-3.1 0.3-4.5-0.1"/>
	<path class="s20" d="m176.8 586.4l0.3-0.1c1.3-0.8 2-1.8 3.9-2.2 1.2-0.3 2.4-0.1 3.6 0.2 0.7 0.2 1.2 0.1 1.8-0.2 0.5-0.5 1.4-0.1 2.2 0l0.3-0.1c-0.1-0.2-0.2-0.3-0.2-0.4-1.7-1.3-4-1.3-4.9-0.5-2-0.1-5.2 0.1-7 3.3z"/>
	<path class="s1" d="m188.4 584.1c-0.8-0.1-1.7-0.5-2.3 0-0.5 0.3-1.1 0.4-1.7 0.2-1.2-0.3-2.5-0.5-3.6-0.2-1.9 0.4-2.6 1.4-3.9 2.2"/>
	<path fill-rule="evenodd" class="s31" d="m185.3 584.2c0.3 0 0.6-0.2 0.6-0.5 0-0.3-0.3-0.5-0.6-0.5-0.3 0-0.5 0.2-0.5 0.5 0 0.3 0.2 0.5 0.5 0.5z"/>
	<g>
		<path class="s1" d="m180.7 606.4c0.2-2-2.8-2.1-3.1-0.9"/>
		<g>
			<path class="s1" d="m180.8 606.5c-1.3-0.3-2.3-0.4-3.5-1"/>
			<path class="s1" d="m179.5 607.9c-1.2-0.1-2.1-0.9-2.7-1.6"/>
			<path class="s1" d="m178.3 608.7c-0.6-0.3-1-0.6-1.4-0.9"/>
		</g>
		<g>
			<path class="s1" d="m177.7 605.3c0.7-8.5-1.6-12.9-0.9-15.7 0.8-3.7 3.4-3.5 3.8-3.5 0.5 0 3 0.3 3.1 4.1 0.2 2.7-0.8 6.8-2.9 16.3"/>
			<path class="s1" d="m183.4 593.9c-2 0.7-4.4 0.9-6.4-0.4"/>
			<path class="s1" d="m182.3 599.6c-1.5 0.3-3.1 0.3-4.5-0.1"/>
			<path class="s21" d="m180.8 606.4c0.1-2-2.9-2.1-3.2-0.9"/>
		</g>
	</g>
	<path class="s6" d="m179.8 604.9c1.1-6.3 0.4-12 1.4-18.6-0.4-0.2-0.9-0.2-1.4-0.1-1.2 4.3-0.2 12.8-1.3 18.6"/>
	<g>
		<path class="s32" d="m181.2 606.9c-0.8 1.7-2.3 2.5-4.2 2.8"/>
		<path class="s33" d="m180.7 607.3c-0.9 0.9-2.1 1.6-3.7 1.9"/>
		<path class="s21" d="m180.8 606.3c0.1-1.2-2.2-2.3-3.2-0.8"/>
	</g>
	<path class="s6" d="m140.7 607.8c-0.3 1.2-1.6 2.6-3.3 2.6-2.1-0.1-4.2-1.9-5-4.9-1.2-4.4-2-9.7-2.9-14.6-0.1-1.4 0.1-2.9 1.8-4.5q0.1-0.4-0.3-0.5c-2.2 0.2-4.3 0.2-5.4-1.4 0-0.5 0.1-0.7 0.2-0.9 1.7-1.3 4-1.3 4.9-0.5 2.6-0.2 7.4 0.2 8.2 7.5 0.3 2.1-0.9 5.9-1 8.4 0 0.7-0.2 1.8 0.1 2.6 1.2 2.2 3.1-8.9 3.8-17.1"/>
	<path class="s20" d="m136.8 599.4c-1.4 0.4-3 0.5-4.5 0.2 0 0 1.5 0.3-0.1 0q0.6 2.8 1.6 6.8c-0.1-2 2.8-2.1 3.1-1-0.2-2.4 0-0.1 0-0.1-0.2-2.3-0.2-4.2-0.1-5.9z"/>
	<path class="s1" d="m136.8 605.3c-0.7-8.5 1.6-12.9 1-15.7-0.9-3.7-3.5-3.5-3.9-3.5-0.5 0-3 0.3-3.1 4.1-0.1 2.7 0.9 6.8 2.9 16.3"/>
	<path class="s29" d="m131.1 593.8c2.1 0.8 4.4 1 6.5-0.3-0.3 1.6-0.7 3.6-0.8 6-1.4 0.4-3 0.4-4.5 0.1-0.6-2.4-0.9-4.3-1.2-5.8z"/>
	<path class="s1" d="m131.1 593.9c2.1 0.7 4.4 0.9 6.4-0.4"/>
	<path class="s30" d="m131.1 593.9c2 0.7 4.4 0.9 6.4-0.4 0.3-1.6 0.5-2.8 0.2-3.9-0.8-3.7-3.4-3.5-3.8-3.5-0.5 0-3 0.4-3.1 4.1-0.1 1 0 2.1 0.3 3.7z"/>
	<path class="s1" d="m132.3 599.6c1.4 0.3 3 0.3 4.4-0.1"/>
	<path class="s20" d="m137.7 586.4l-0.3-0.1c-1.3-0.8-2-1.8-3.9-2.2-1.2-0.3-2.4-0.1-3.6 0.2-0.7 0.2-1.2 0.1-1.8-0.2-0.5-0.5-1.4-0.1-2.2 0l-0.3-0.1c0.1-0.2 0.2-0.3 0.2-0.4 1.7-1.3 4-1.3 4.9-0.5 2-0.1 5.2 0.1 7 3.3z"/>
	<path class="s1" d="m126.1 584.1c0.8-0.1 1.7-0.5 2.3 0 0.5 0.3 1.1 0.4 1.7 0.2 1.2-0.3 2.5-0.5 3.6-0.2 1.9 0.4 2.6 1.4 3.9 2.2"/>
	<path fill-rule="evenodd" class="s31" d="m129.2 584.2c-0.3 0-0.6-0.2-0.6-0.5 0-0.3 0.3-0.5 0.6-0.5 0.3 0 0.5 0.2 0.5 0.5 0 0.3-0.2 0.5-0.5 0.5z"/>
	<g>
		<path class="s1" d="m133.8 606.4c-0.2-2 2.8-2.1 3.1-0.9"/>
		<g>
			<path class="s1" d="m133.7 606.5c1.3-0.3 2.3-0.4 3.5-1"/>
			<path class="s1" d="m135 607.9c1.2-0.1 2.1-0.9 2.7-1.6"/>
			<path class="s1" d="m136.3 608.7c0.5-0.3 0.9-0.6 1.3-0.9"/>
		</g>
		<g>
			<path class="s1" d="m136.8 605.3c-0.7-8.5 1.6-12.9 0.9-15.7-0.8-3.7-3.4-3.5-3.8-3.5-0.5 0-3 0.3-3.1 4.1-0.2 2.7 0.8 6.8 2.9 16.3"/>
			<path class="s1" d="m131.1 593.9c2 0.7 4.4 0.9 6.4-0.4"/>
			<path class="s1" d="m132.2 599.6c1.5 0.3 3.1 0.3 4.5-0.1"/>
			<path class="s21" d="m133.7 606.4c-0.1-2 2.9-2.1 3.2-0.9"/>
		</g>
	</g>
	<path class="s6" d="m134.7 604.9c-1.1-6.3-0.4-12-1.4-18.6 0.4-0.2 0.9-0.2 1.4-0.1 1.2 4.3 0.2 12.8 1.3 18.6"/>
	<g>
		<path class="s32" d="m133.3 606.9c0.8 1.7 2.3 2.5 4.2 2.8"/>
		<path class="s33" d="m133.8 607.3c0.9 0.9 2 1.6 3.7 1.9"/>
		<path class="s21" d="m133.7 606.3c-0.1-1.2 2.2-2.3 3.2-0.8"/>
	</g>
	<g>
		<path class="s34" d="m147.3 440.2l-22.2 118.3 17.8 4.1 7.7-123.1"/>
		<path class="s6" d="m149.2 439.6l-8.7 171.4h32.3l0.8-175.4z"/>
		<g>
			<path class="s34" d="m152.3 441.2l-0.2 5.6h18.6v-5.6z"/>
			<path class="s35" d="m151.9 450.7l-0.3 5.6h19l0.1-5.6z"/>
			<path class="s34" d="m151.4 460.1l-0.3 5.6h19.5l0.1-5.6z"/>
			<path class="s16" d="m151 469.6l-0.3 5.6h19.8v-5.7z"/>
			<path class="s34" d="m150.5 479l-0.4 5.6h20.3l0.1-5.6z"/>
			<path class="s35" d="m150 488.5l-0.3 5.6h20.6l0.1-5.6z"/>
			<path class="s34" d="m149.5 498l-0.2 5.6h21v-5.6z"/>
			<path class="s16" d="m149 507.4l-0.2 5.6h21.4v-5.6z"/>
			<path class="s34" d="m148.6 516.9l-0.3 5.6h21.9v-5.6z"/>
			<path class="s34" d="m144.8 592.6l-0.3 5.6h25.3v-5.6z"/>
			<path class="s16" d="m145.3 583.1l-0.3 5.6h24.8v-5.6z"/>
			<path class="s34" d="m145.7 573.7l-0.2 5.6h24.3v-5.7z"/>
			<path class="s35" d="m146.2 564.2l-0.3 5.6h24.1v-5.6z"/>
			<path class="s34" d="m146.7 554.7l-0.3 5.6h23.6v-5.6z"/>
			<path class="s16" d="m147.2 545.3l-0.3 5.6h23.2v-5.6z"/>
			<path class="s34" d="m147.6 535.8l-0.3 5.6h22.8v-5.6z"/>
			<path class="s35" d="m148.1 526.4l-0.3 5.6h22.3v-5.7z"/>
		</g>
		<path class="s5" d="m144.5 598.1l7.9-158.9"/>
		<path class="s5" d="m170.7 436l-0.9 162.2"/>
	</g>
	<g>
		<g>
			<path class="s1" d="m141.2 600.5h31.5"/>
			<path class="s1" d="m141.2 599.8h31.6"/>
			<path class="s1" d="m141.2 599h31.5"/>
			<path class="s1" d="m141.2 598.2h31.5"/>
			<path class="s1" d="m144.9 592.6h24.9"/>
			<path class="s1" d="m144.9 591.3h24.8"/>
			<path class="s1" d="m144.9 590.1h24.9"/>
			<path class="s1" d="m144.9 588.8h24.9"/>
			<path class="s1" d="m145.3 583.1h24.5"/>
			<path class="s1" d="m145.3 581.8h24.5"/>
			<path class="s1" d="m145.4 580.6h24.4"/>
			<path class="s1" d="m145.4 579.3h24.4"/>
			<path class="s1" d="m145.7 573.6h24.1"/>
			<path class="s1" d="m145.8 572.4h24.1"/>
			<path class="s1" d="m145.9 571.1h23.9"/>
			<path class="s1" d="m145.9 569.9h23.9"/>
			<path class="s1" d="m146.3 564.1h23.6"/>
			<path class="s1" d="m146.2 562.9h23.8"/>
			<path class="s1" d="m146.3 561.6h23.7"/>
			<path class="s1" d="m146.4 560.4h23.6"/>
			<path class="s1" d="m146.7 554.7h23.2"/>
			<path class="s1" d="m146.8 553.4h23.2"/>
			<path class="s1" d="m146.8 552.2h23.3"/>
			<path class="s1" d="m146.9 550.9h23.1"/>
			<path class="s1" d="m147.2 545.3h22.9"/>
			<path class="s1" d="m147.2 544h22.9"/>
			<path class="s1" d="m147.3 542.8h22.7"/>
			<path class="s1" d="m147.4 541.5h22.7"/>
			<path class="s1" d="m147.6 535.8h22.5"/>
			<path class="s1" d="m147.6 534.5h22.5"/>
			<path class="s1" d="m147.7 533.3h22.4"/>
			<path class="s1" d="m147.8 532h22.3"/>
			<path class="s1" d="m148.1 526.3h22"/>
			<path class="s1" d="m148.2 525.1h22"/>
			<path class="s1" d="m148.3 523.8h21.8"/>
			<path class="s1" d="m148.3 522.5h21.9"/>
			<path class="s1" d="m148.6 516.9h21.6"/>
			<path class="s1" d="m148.6 515.6h21.6"/>
			<path class="s1" d="m148.7 514.4h21.6"/>
			<path class="s1" d="m148.7 513.1h21.5"/>
			<path class="s1" d="m149.1 507.4h21.2"/>
			<path class="s1" d="m149.2 506.1h21"/>
			<path class="s1" d="m149.2 504.9h21"/>
			<path class="s1" d="m149.2 503.6h21"/>
			<path class="s1" d="m149.6 498h20.7"/>
			<path class="s1" d="m149.6 496.7h20.7"/>
			<path class="s1" d="m149.7 495.5h20.6"/>
			<path class="s1" d="m149.7 494.2h20.6"/>
			<path class="s1" d="m150 488.5h20.3"/>
			<path class="s1" d="m150.1 487.2h20.2"/>
			<path class="s1" d="m150.1 486h20.3"/>
			<path class="s1" d="m150.2 484.7h20.1"/>
			<path class="s1" d="m150.4 479h20"/>
			<path class="s1" d="m150.6 477.8l19.8-0.1"/>
			<path class="s1" d="m150.5 476.5h19.9"/>
			<path class="s1" d="m150.6 475.2h19.9"/>
			<path class="s1" d="m151 469.5h19.4"/>
			<path class="s1" d="m150.9 468.3h19.6"/>
			<path class="s1" d="m151.1 467h19.4"/>
			<path class="s1" d="m151.1 465.8h19.4"/>
			<path class="s1" d="m151.4 460.1l19.1-0.1"/>
			<path class="s1" d="m151.4 458.8h19.2"/>
			<path class="s1" d="m151.5 457.6l19.1-0.1"/>
			<path class="s1" d="m151.6 456.3h19"/>
			<path class="s1" d="m151.9 450.6h18.7"/>
			<path class="s1" d="m151.9 449.4h18.7"/>
			<path class="s1" d="m151.9 448.1h18.7"/>
			<path class="s1" d="m152 446.9h18.6"/>
			<path class="s1" d="m152.4 441.2h18.2"/>
			<path class="s1" d="m152.4 439.9h18.2"/>
			<path class="s1" d="m155.2 438.7h15.4"/>
			<path class="s1" d="m162.8 437.4h7.8"/>
		</g>
		<g>
			<path class="s14" d="m141.3 607.9c0-1.9 1.3-4.9 2.4-6.8 1 1.9 2.3 5 2.2 6.8 0 3.5-4.5 3.3-4.6 0z"/>
			<path class="s14" d="m141.9 607.9c0-1.5 1-3.7 1.8-5.1 0.7 1.4 1.6 3.7 1.6 5 0 2.6-3.3 2.5-3.4 0.1z"/>
			<path class="s15" d="m142 607.8c0.2-0.2 0.8-0.6 1.6-0.6 0.9 0 1.3 0.3 1.7 0.6"/>
			<path class="s15" d="m142.6 605.4c0.3-0.2 0.8-0.3 1.1-0.3 0.3 0 0.8 0.2 1 0.3"/>
			<path class="s14" d="m146.4 607.9c0-1.9 1.3-4.9 2.4-6.8 1 1.9 2.2 5 2.2 6.8 0 3.5-4.5 3.3-4.6 0z"/>
			<path class="s14" d="m147 607.9c0-1.5 1-3.7 1.8-5.1 0.7 1.4 1.6 3.7 1.6 5 0 2.6-3.3 2.5-3.4 0.1z"/>
			<path class="s15" d="m147.1 607.8c0.2-0.2 0.8-0.6 1.6-0.6 0.8 0 1.3 0.3 1.7 0.6"/>
			<path class="s15" d="m147.6 605.4c0.3-0.2 0.9-0.3 1.2-0.3 0.3 0 0.8 0.2 1 0.3"/>
			<path class="s14" d="m151.6 607.9c0-1.9 1.3-4.9 2.4-6.8 1 1.9 2.2 5 2.2 6.8 0 3.5-4.5 3.3-4.6 0z"/>
			<path class="s14" d="m152.2 607.9c0-1.5 1-3.7 1.8-5.1 0.7 1.4 1.6 3.7 1.6 5 0 2.6-3.3 2.5-3.4 0.1z"/>
			<path class="s15" d="m152.2 607.8c0.3-0.2 0.9-0.6 1.7-0.6 0.8 0 1.3 0.3 1.7 0.6"/>
			<path class="s15" d="m152.8 605.4c0.3-0.2 0.9-0.3 1.2-0.3 0.2 0 0.8 0.2 1 0.3"/>
			<path class="s14" d="m156.8 607.9c0-1.9 1.3-4.9 2.4-6.8 1 1.9 2.2 5 2.2 6.8 0 3.5-4.5 3.3-4.6 0z"/>
			<path class="s14" d="m157.4 607.9c0-1.5 1-3.7 1.8-5.1 0.7 1.4 1.6 3.7 1.6 5 0 2.6-3.3 2.5-3.4 0.1z"/>
			<path class="s15" d="m157.5 607.8c0.2-0.2 0.8-0.6 1.6-0.6 0.8 0 1.3 0.3 1.7 0.6"/>
			<path class="s15" d="m158 605.4c0.3-0.2 0.9-0.3 1.2-0.3 0.3 0 0.8 0.2 1 0.3"/>
			<path class="s14" d="m162.1 607.9c0-1.9 1.3-4.9 2.4-6.8 1 1.9 2.2 5 2.2 6.8 0 3.5-4.5 3.3-4.6 0z"/>
			<path class="s14" d="m162.7 607.9c0-1.5 1-3.7 1.8-5.1 0.7 1.4 1.6 3.7 1.6 5 0 2.6-3.3 2.5-3.4 0.1z"/>
			<path class="s15" d="m162.7 607.8c0.3-0.2 0.9-0.6 1.7-0.6 0.8 0 1.3 0.3 1.6 0.6"/>
			<path class="s15" d="m163.3 605.4c0.3-0.2 0.9-0.3 1.1-0.3 0.3 0 0.9 0.2 1.1 0.3"/>
			<path class="s14" d="m167.4 607.9c0-1.9 1.3-4.9 2.4-6.8 1 1.9 2.2 5 2.2 6.8 0 3.5-4.5 3.3-4.6 0z"/>
			<path class="s14" d="m168 607.9c0-1.5 1-3.7 1.8-5.1 0.7 1.4 1.6 3.7 1.6 5 0 2.6-3.3 2.5-3.4 0.1z"/>
			<path class="s15" d="m168 607.8c0.3-0.2 0.9-0.6 1.7-0.6 0.8 0 1.3 0.3 1.7 0.6"/>
			<path class="s15" d="m168.6 605.4c0.3-0.2 0.9-0.3 1.2-0.3 0.2 0 0.8 0.2 1 0.3"/>
		</g>
	</g>
	<path class="s36" d="m126.8 610.7h60.7v1.6h-60.7z"/>
	<path class="s16" d="m145.2 440.5l-29.4 89.1 13.8 4.7 18-94.3"/>
	<g>
		<path class="s34" d="m175.7 435.4l16 118.5-18.6 3.5-1-121.5"/>
		<path class="s34" d="m181.5 434.3l27.6 66.3-11.6 6.2-19.1-72"/>
		<path class="s34" d="m143.8 440.9l-34.1 70.5 10.4 5.3 25.2-76.1"/>
	</g>
	<path class="s37" d="m186.1 577.5c0 2.7-1.8 3.9-4.2 3.9-2.5 0-4.2-1.3-4.2-3.9 0-2.5 1.7-3.8 4.2-3.8 2.4 0 4.2 1.2 4.2 3.8z"/>
	<g>
		<path class="s38" d="m187.7 577.5c0 3.6-2.4 5.1-5.7 5.1-3.2 0-5.6-1.7-5.5-5.1 0.1-3.4 2.3-5.1 5.5-5.1 3.3 0 5.7 1.6 5.7 5.1z"/>
		<path class="s39" d="m187.8 577.5c0 3.6-2.5 5.2-5.8 5.2-3.3 0-5.7-1.7-5.6-5.2 0-3.5 2.3-5.2 5.6-5.2 3.3 0 5.8 1.6 5.8 5.2z"/>
		<path class="s40" d="m187.8 577.5c0 3.6-2.5 5.2-5.8 5.2-3.3 0-5.7-1.7-5.6-5.2 0-3.5 2.3-5.2 5.6-5.2 3.3 0 5.8 1.6 5.8 5.2z"/>
	</g>
	<path class="s37" d="m136.3 577.5c0 2.7-1.8 3.9-4.3 3.9-2.4 0-4.2-1.3-4.1-3.9 0-2.5 1.7-3.8 4.1-3.8 2.5 0 4.3 1.2 4.3 3.8z"/>
	<g>
		<path class="s38" d="m137.9 577.5c0 3.6-2.5 5.1-5.7 5.1-3.2 0-5.6-1.7-5.5-5.1 0-3.4 2.3-5.1 5.5-5.1 3.2 0 5.7 1.6 5.7 5.1z"/>
		<path class="s39" d="m138 577.5c0 3.6-2.5 5.2-5.8 5.2-3.3 0-5.7-1.7-5.6-5.2 0-3.5 2.3-5.2 5.6-5.2 3.3 0 5.8 1.6 5.8 5.2z"/>
		<path class="s40" d="m138 577.5c0 3.6-2.5 5.2-5.8 5.2-3.3 0-5.7-1.7-5.6-5.2 0-3.5 2.3-5.2 5.6-5.2 3.3 0 5.8 1.6 5.8 5.2z"/>
	</g>
	<path class="s41" d="m181.6 433.9l-37.9 6.7-0.3 0.6 38.3-6.8z"/>
	<path class="s0" d="m198.6 533l45.1 79v0.3l-2.4 0.2-44.8-78.9z"/>
	<path class="s0" d="m69.2 579.6c0.6 4.6-0.1 10.3-3.8 16.3 3.5 4.3 6.3 8.6 7.1 13.3 4.9 0.6 9.8 0.4 13.9 3.7h-36.5z"/>
	<g>
		<path fill-rule="evenodd" class="s15" d="m61.5 602.9c-0.6 0-1.1-0.5-1.1-1.1 0-0.6 0.5-1.1 1.1-1.1 0.6 0 1.1 0.5 1.1 1.1 0 0.6-0.5 1.1-1.1 1.1z"/>
		<path fill-rule="evenodd" class="s15" d="m65.9 610.2c-0.6 0-1.1-0.5-1.1-1.2 0-0.6 0.5-1.1 1.1-1.1 0.6 0 1.1 0.5 1.1 1.1 0 0.7-0.5 1.2-1.1 1.2z"/>
		<path class="s15" d="m50.4 612.8c0.7-0.7 14.4-7.7 14.4-7.7l-14.5 7.4"/>
	</g>
	<g>
		<path class="s42" d="m119 44.7c0 5.2-0.3 9.9-11.8 10.2-11 0.4-10.1 0.1-8.7-9.4 0.7-5.1 4.2-10.1 9-10.1 4.8 0 11.5 4.1 11.5 9.3z"/>
		<path class="s43" d="m189.3 150.4c-36.2 14.1-100.9-69.3-91.5-106 0.3-1.3 0.7-2.7 1.3-3.9q0.1 0 0.1 0c2.9-5.4 9.8-7.8 15.3-5 5 2.6 7.3 8.9 4.6 13.9-2.3 4.4-7.8 6.4-12.3 4-3.7-2-5.4-6.8-3.3-10.7 1.8-3.1 5.9-4.5 9.1-2.6 2.5 1.4 3.7 4.8 2 7.4-1.2 1.9-3.9 2.8-5.8 1.4-1.3-0.9-1.9-2.9-0.8-4.2 0.6-0.7 2-1.1 2.6-0.1"/>
		<path class="s44" d="m189.3 150.4c-36.2 14.1-100.9-69.3-91.5-106 0.3-1.3 0.7-2.7 1.3-3.9q0.1 0 0.1 0c2.9-5.4 9.8-7.8 15.3-5 5 2.6 7.3 8.9 4.6 13.9-2.3 4.4-7.8 6.4-12.3 4-3.7-2-5.4-6.8-3.3-10.7 1.8-3.1 5.9-4.5 9.1-2.6 2.5 1.4 3.7 4.8 2 7.4-1.2 1.9-3.9 2.8-5.8 1.4-1.3-0.9-1.9-2.9-0.8-4.2 0.6-0.7 2-1.1 2.6-0.1"/>
	</g>
	<g>
		<path class="s45" d="m141.6 155.1c-0.4-45 30-76.2 37.6-86.5 7.7-10.5 23.5-23.8 18.6-36.8 12-20.5 30.4-14.5 27.7 10.5-11.3 9.9-10 28.3-10.5 38-0.5 9.7 1.8 59-13.6 110.2l0.1-0.1c-5.1-2.3-18.5-7.7-18.9-17.3l-1.8-11.1-7.9 0.9c-1.9-15.9-25.4-9.9-31.3-7.8z"/>
		<path class="s46" d="m197.9 31.8c10.1 2.5 19.3 6 27.5 10.4"/>
		<path class="s47" d="m224.7 145l34.1-136-4.7-1.1c-41.6 141.1-48.6 141.1-128.2 132.8-0.5-0.1-0.9 1.6-0.7 2.2 0.4 1.1 1.8 2.7 2.4 4.6 5.1 12.7 8 25.4 8.3 38.3 16.1-0.6 25.9-0.4 33.8 12 34.3-0.2 19.3 21.9 28.1 40 11.2-31.1 19.1-61.7 26.9-92.8z"/>
	</g>
	<path class="s27" d="m177.6 207.2c-6.3 2.9-6.5 7.4-4.4 10.7 1.3 2.5 4.1 1.9 4.9 0.7 0.8-1.4 1.6-3.1 2.8-4.8 9.8-12.5 8.4-15.9 8.4-16.4 0.1-0.8-1.9-6.3-5.3-6-3.6 0.3-12.2 4.9-4.7 13.5 1.7 1.8-0.1 3.5-1.9 5.8"/>
	<path class="s28" d="m177.6 207.2c-6.3 2.9-6.5 7.4-4.4 10.7 1.3 2.5 4.1 1.9 4.9 0.7 0.8-1.4 1.6-3.1 2.8-4.8 9.8-12.5 8.4-15.9 8.4-16.4 0.1-0.8-1.9-6.3-5.3-6-3.6 0.3-12.2 4.9-4.7 13.5 1.7 1.8-0.1 3.5-1.9 5.8m2.1-11.4c5 1.2 3.9 6-0.8 12.9-3.4 1.9-4.3 2.9-4.1 2.2 0.3-0.7 0.1-1.8 2.9-3.7"/>
</svg>