<?xml version="1.0" encoding="UTF-8"?>
<!DOCTYPE svg PUBLIC "-//W3C//DTD SVG 1.1//EN" "http://www.w3.org/Graphics/SVG/1.1/DTD/svg11.dtd">
<svg version="1.1" xmlns="http://www.w3.org/2000/svg" xmlns:xlink="http://www.w3.org/1999/xlink" width="100%" height="100%" viewBox="-462 -462 1824 1824">
 <title>epicyclic gearing animation</title>
 <desc>CSS animation of epicyclic gearing with 56-tooth ring gear locked (1), 24-tooth sun gear locked (2), carrier with 16-tooth planetary gears locked (3), and direct drive (4) by CMG Lee. Numbers denote relative angular speed. Shapes are from http://commons.wikimedia.org/wiki/File:Epicyclic_Gearing_Stationary.svg.</desc>
 <style type="text/css">
text  { stroke:none; cursor:default; }
.tick { stroke-opacity:0.5; stroke-width:6; stroke-linecap:round; }
.fig  { font-size:200px; }
@keyframes         rot_c { from { transform:         rotate(0deg);   }
                           to   { transform:         rotate(360deg); } }
@-moz-keyframes    rot_c { from { -moz-transform:    rotate(0deg);   }
                           to   { -moz-transform:    rotate(360deg); } }
@-webkit-keyframes rot_c { from { -webkit-transform: rotate(0deg);   }
                           to   { -webkit-transform: rotate(360deg); } }
@keyframes         rot_a { from { transform:         rotate(360deg); }
                           to   { transform:         rotate(0deg);   } }
@-moz-keyframes    rot_a { from { -moz-transform:    rotate(360deg); }
                           to   { -moz-transform:    rotate(0deg);   } }
@-webkit-keyframes rot_a { from { -webkit-transform: rotate(360deg); }
                           to   { -webkit-transform: rotate(0deg);   } }
.rot_sun, .rot_ring_s { animation:         rot_c 21s linear infinite;
                        -moz-animation:    rot_c 21s linear infinite;
                        -webkit-animation: rot_c 21s linear infinite; } /* 140 */
.rot_carrier_r        { animation:         rot_c 70s linear infinite;
                        -moz-animation:    rot_c 70s linear infinite;
                        -webkit-animation: rot_c 70s linear infinite; } /* 42 */
.rot_carrier_s        { animation:         rot_c 30s linear infinite;
                        -moz-animation:    rot_c 30s linear infinite;
                        -webkit-animation: rot_c 30s linear infinite; } /* 98 */
.rot_planet_s         { animation:         rot_c 20s linear infinite;
                        -moz-animation:    rot_c 20s linear infinite;
                        -webkit-animation: rot_c 20s linear infinite; } /* 147 */
.rot_planet_r         { animation:         rot_a 20s linear infinite;
                        -moz-animation:    rot_a 20s linear infinite;
                        -webkit-animation: rot_a 20s linear infinite; } /* -147 */
.rot_planet_c         { animation:         rot_a 14s linear infinite;
                        -moz-animation:    rot_a 14s linear infinite;
                        -webkit-animation: rot_a 14s linear infinite; } /* -210 */
.rot_ring_c           { animation:         rot_a 49s linear infinite;
                        -moz-animation:    rot_a 49s linear infinite;
                        -webkit-animation: rot_a 49s linear infinite; } /* -60 */
 </style>
 <defs>
  <g id="carrier_planet">
   <circle cx="257" cy="0" r="51"/>
   <circle cx="257" cy="0" r="9" fill="#6666ff"/>
  </g>
  <g id="carrier" fill="#1ab31a">
   <path transform="translate(-468,-469)" d="M 718.278,468.75 L 761.054,468.75 675.44,675.44 468.75,761.054 262.06,675.44 176.446,468.75 262.06,262.06 468.75,176.446 675.44,262.06 761.054,468.75 718.278,468.75 645.193,292.307 468.75,219.222 292.307,292.307 219.222,468.75 292.307,645.193 468.75,718.278 645.193,645.193 Z"/>
   <use xlink:href="#carrier_planet"/>
   <use xlink:href="#carrier_planet" transform="rotate(90)"/>
   <use xlink:href="#carrier_planet" transform="rotate(180)"/>
   <use xlink:href="#carrier_planet" transform="rotate(270)"/>
   <path class="tick" d="M 0,-275 V -300"/>
  </g>
  <g id="planet" fill="#6666ff">
   <path transform="translate(-468,-469) translate(-257,0)" d="M 830.85,424.705 L 830.557,424.005 830.26,423.306 822.045,420.75 814.743,420.523 807.968,421.475 800.202,423.386 799.066,421.542 797.885,419.727 796.66,417.941 795.391,416.186 800.129,409.742 803.6,403.847 806.185,397.014 806.967,388.446 806.436,387.904 805.901,387.366 805.362,386.831 804.82,386.299 796.253,387.081 789.419,389.666 783.525,393.138 777.081,397.875 775.325,396.607 773.54,395.382 771.724,394.201 769.88,393.065 771.791,385.298 772.743,378.524 772.516,371.221 769.96,363.006 769.262,362.709 768.561,362.416 767.859,362.128 767.155,361.844 759.539,365.846 754.214,370.849 750.097,376.312 745.957,383.155 743.85,382.655 741.731,382.206 739.602,381.81 737.464,381.466 736.257,373.559 734.544,366.936 731.54,360.276 726.034,353.665 725.275,353.658 724.516,353.655 723.757,353.658 722.998,353.665 717.493,360.276 714.489,366.936 712.776,373.559 711.569,381.466 709.431,381.81 707.302,382.206 705.183,382.655 703.076,383.155 698.935,376.312 694.818,370.849 689.494,365.846 681.878,361.844 681.174,362.128 680.471,362.416 679.771,362.709 679.073,363.006 676.517,371.221 676.289,378.524 677.241,385.298 679.152,393.065 677.309,394.201 675.493,395.382 673.707,396.607 671.952,397.875 665.508,393.138 659.614,389.666 652.78,387.081 644.213,386.299 643.671,386.831 643.132,387.366 642.597,387.904 642.066,388.446 642.848,397.014 645.432,403.847 648.904,409.742 653.642,416.186 652.373,417.941 651.148,419.727 649.967,421.542 648.831,423.386 641.064,421.475 634.29,420.523 626.988,420.75 618.773,423.306 618.475,424.005 618.183,424.705 617.894,425.407 617.611,426.111 621.612,433.728 626.615,439.052 632.078,443.169 638.921,447.31 638.421,449.417 637.972,451.535 637.576,453.664 637.232,455.803 629.325,457.009 622.702,458.722 616.043,461.727 609.432,467.232 609.424,467.991 609.422,468.75 609.424,469.509 609.432,470.268 616.043,475.773 622.702,478.778 629.325,480.491 637.232,481.697 637.576,483.836 637.972,485.965 638.421,488.083 638.921,490.19 632.078,494.331 626.615,498.448 621.612,503.772 617.611,511.389 617.894,512.093 618.183,512.795 618.475,513.495 618.773,514.194 626.988,516.75 634.29,516.977 641.064,516.025 648.831,514.114 649.967,515.958 651.148,517.773 652.373,519.559 653.642,521.314 648.904,527.758 645.432,533.653 642.848,540.486 642.066,549.054 642.597,549.596 643.132,550.134 643.671,550.669 644.213,551.201 652.78,550.419 659.614,547.834 665.508,544.362 671.952,539.625 673.707,540.893 675.493,542.118 677.309,543.299 679.152,544.435 677.241,552.202 676.289,558.976 676.517,566.279 679.073,574.494 679.771,574.791 680.471,575.084 681.174,575.372 681.878,575.656 689.494,571.654 694.818,566.651 698.935,561.188 703.076,554.345 705.183,554.845 707.302,555.294 709.431,555.69 711.569,556.034 712.776,563.941 714.489,570.564 717.493,577.224 722.998,583.835 723.757,583.842 724.516,583.845 725.275,583.842 726.034,583.835 731.54,577.224 734.544,570.564 736.257,563.941 737.464,556.034 739.602,555.69 741.731,555.294 743.85,554.845 745.957,554.345 750.097,561.188 754.214,566.651 759.539,571.654 767.155,575.656 767.859,575.372 768.561,575.084 769.262,574.791 769.96,574.494 772.516,566.279 772.743,558.976 771.791,552.202 769.88,544.435 771.724,543.299 773.54,542.118 775.325,540.893 777.081,539.625 783.525,544.362 789.419,547.834 796.253,550.419 804.82,551.201 805.362,550.669 805.901,550.134 806.436,549.596 806.967,549.054 806.185,540.486 803.6,533.653 800.129,527.758 795.391,521.314 796.66,519.559 797.885,517.773 799.066,515.958 800.202,514.114 807.968,516.025 814.743,516.977 822.045,516.75 830.26,514.194 830.557,513.495 830.85,512.795 831.138,512.093 831.422,511.389 827.421,503.772 822.418,498.448 816.954,494.331 810.111,490.19 810.612,488.083 811.06,485.965 811.457,483.836 811.801,481.697 819.707,480.491 826.33,478.778 832.99,475.773 839.601,470.268 839.609,469.509 839.611,468.75 839.609,467.991 839.601,467.232 832.99,461.727 826.33,458.722 819.707,457.009 811.801,455.803 811.457,453.664 811.06,451.535 811.06,451.535 810.612,449.417 810.111,447.31 816.954,443.169 822.418,439.052 827.421,433.728 831.422,426.111 831.138,425.407 Z"/>
   <path class="tick" d="M 0,-60 V -105"/>
  </g>
  <g id="sun" fill="#f2a600">
   <path transform="translate(-468,-469)" d="M 633.576,447.05 L 633.458,446.172 633.335,445.295 626.149,440.842 619.261,438.811 612.501,437.703 604.501,437.097 603.965,434.88 603.393,432.673 602.785,430.474 602.14,428.286 608.766,423.762 614.066,419.422 619.015,414.219 623.013,406.77 622.68,405.949 622.343,405.13 622.002,404.312 621.656,403.496 613.563,401.055 606.384,400.876 599.567,401.555 591.683,403.041 590.592,401.038 589.468,399.054 588.311,397.088 587.123,395.141 592.351,389.056 596.347,383.492 599.782,377.186 601.715,368.956 601.181,368.249 600.644,367.545 600.102,366.843 599.557,366.145 591.108,365.882 584.127,367.567 577.718,369.987 570.488,373.462 568.915,371.81 567.316,370.184 565.69,368.585 564.038,367.012 567.513,359.782 569.933,353.373 571.618,346.392 571.355,337.943 570.657,337.398 569.955,336.856 569.251,336.319 568.544,335.785 560.314,337.718 554.008,341.153 548.444,345.149 542.359,350.377 540.412,349.189 538.446,348.032 536.462,346.908 534.459,345.817 535.945,337.933 536.624,331.116 536.445,323.937 534.004,315.844 533.188,315.498 532.37,315.157 531.551,314.82 530.73,314.487 523.281,318.485 518.078,323.434 513.738,328.734 509.214,335.36 507.026,334.715 504.827,334.107 502.62,333.535 500.403,332.999 499.797,324.999 498.689,318.239 496.658,311.351 492.205,304.165 491.328,304.042 490.45,303.924 489.571,303.811 488.692,303.702 482.531,309.491 478.787,315.619 475.966,321.861 473.311,329.432 471.031,329.376 468.75,329.357 466.469,329.376 464.189,329.432 461.534,321.861 458.713,315.619 454.969,309.491 448.808,303.702 447.929,303.811 447.05,303.924 446.172,304.042 445.295,304.165 440.842,311.351 438.811,318.239 437.703,324.999 437.097,332.999 434.88,333.535 432.673,334.107 430.474,334.715 428.286,335.36 423.762,328.734 419.422,323.434 414.219,318.485 406.77,314.487 405.949,314.82 405.13,315.157 404.312,315.498 403.496,315.844 401.055,323.937 400.876,331.116 401.555,337.933 403.041,345.817 401.038,346.908 399.054,348.032 397.088,349.189 395.141,350.377 389.056,345.149 383.492,341.153 377.186,337.718 368.956,335.785 368.249,336.319 367.545,336.856 366.843,337.398 366.145,337.943 365.882,346.392 367.567,353.373 369.987,359.782 373.462,367.012 371.81,368.585 370.184,370.184 368.585,371.81 367.012,373.462 359.782,369.987 353.373,367.567 346.392,365.882 337.943,366.145 337.398,366.843 336.856,367.545 336.319,368.249 335.785,368.956 337.718,377.186 341.153,383.492 345.149,389.056 350.377,395.141 349.189,397.088 348.032,399.054 346.908,401.038 345.817,403.041 337.933,401.555 331.116,400.876 323.937,401.055 315.844,403.496 315.498,404.312 315.157,405.13 314.82,405.949 314.487,406.77 318.485,414.219 323.434,419.422 328.734,423.762 335.36,428.286 334.715,430.474 334.107,432.673 333.535,434.88 332.999,437.097 324.999,437.703 318.239,438.811 311.351,440.842 304.165,445.295 304.042,446.172 303.924,447.05 303.811,447.929 303.702,448.808 309.491,454.969 315.619,458.713 321.861,461.534 329.432,464.189 329.376,466.469 329.357,468.75 329.376,471.031 329.432,473.311 321.861,475.966 315.619,478.787 309.491,482.531 303.702,488.692 303.811,489.571 303.924,490.45 304.042,491.328 304.165,492.205 311.351,496.658 318.239,498.689 324.999,499.797 332.999,500.403 333.535,502.62 334.107,504.827 334.715,507.026 335.36,509.214 328.734,513.738 323.434,518.078 318.485,523.281 314.487,530.73 314.82,531.551 315.157,532.37 315.498,533.188 315.844,534.004 323.937,536.445 331.116,536.624 337.933,535.945 345.817,534.459 346.908,536.462 348.032,538.446 349.189,540.412 350.377,542.359 345.149,548.444 341.153,554.008 337.718,560.314 335.785,568.544 336.319,569.251 336.856,569.955 337.398,570.657 337.943,571.355 346.392,571.618 353.373,569.933 359.782,567.513 367.012,564.038 368.585,565.69 370.184,567.316 371.81,568.915 373.462,570.488 369.987,577.718 367.567,584.127 365.882,591.108 366.145,599.557 366.843,600.102 367.545,600.644 368.249,601.181 368.956,601.715 377.186,599.782 383.492,596.347 389.056,592.351 395.141,587.123 397.088,588.311 399.054,589.468 401.038,590.592 403.041,591.683 401.555,599.567 400.876,606.384 401.055,613.563 403.496,621.656 404.312,622.002 405.13,622.343 405.949,622.68 406.77,623.013 414.219,619.015 419.422,614.066 423.762,608.766 428.286,602.14 430.474,602.785 432.673,603.393 434.88,603.965 437.097,604.501 437.703,612.501 438.811,619.261 440.842,626.149 445.295,633.335 446.172,633.458 447.05,633.576 447.929,633.689 448.808,633.798 454.969,628.009 458.713,621.881 461.534,615.639 464.189,608.068 466.469,608.124 468.75,608.143 471.031,608.124 473.311,608.068 475.966,615.639 478.787,621.881 482.531,628.009 488.692,633.798 489.571,633.689 490.45,633.576 491.328,633.458 492.205,633.335 496.658,626.149 498.689,619.261 499.797,612.501 500.403,604.501 502.62,603.965 504.827,603.393 507.026,602.785 509.214,602.14 513.738,608.766 518.078,614.066 523.281,619.015 530.73,623.013 531.551,622.68 532.37,622.343 533.188,622.002 534.004,621.656 536.445,613.563 536.624,606.384 535.945,599.567 534.459,591.683 536.462,590.592 538.446,589.468 540.412,588.311 542.359,587.123 548.444,592.351 554.008,596.347 560.314,599.782 568.544,601.715 569.251,601.181 569.955,600.644 570.657,600.102 571.355,599.557 571.618,591.108 569.933,584.127 567.513,577.718 564.038,570.488 565.69,568.915 567.316,567.316 568.915,565.69 570.488,564.038 577.718,567.513 584.127,569.933 591.108,571.618 599.557,571.355 600.102,570.657 600.644,569.955 601.181,569.251 601.715,568.544 599.782,560.314 596.347,554.008 592.351,548.444 587.123,542.359 588.311,540.412 589.468,538.446 590.592,536.462 591.683,534.459 599.567,535.945 606.384,536.624 613.563,536.445 621.656,534.004 622.002,533.188 622.343,532.37 622.68,531.551 623.013,530.73 619.015,523.281 614.066,518.078 608.766,513.738 602.14,509.214 602.785,507.026 603.393,504.827 603.965,502.62 604.501,500.403 612.501,499.797 619.261,498.689 626.149,496.658 633.335,492.205 633.458,491.328 633.576,490.45 633.689,489.571 633.798,488.692 628.009,482.531 621.881,478.787 615.639,475.966 608.068,473.311 608.124,471.031 608.143,468.75 608.143,468.75 608.124,466.469 608.068,464.189 615.639,461.534 621.881,458.713 628.009,454.969 633.798,448.808 633.689,447.929 Z"/>
   <path class="tick" d="M 0,-80 V -130"/>
  </g>
  <g id="ring" fill="#ff3333">
   <path transform="translate(-468,-469)" fill-rule="evenodd" d="M 468,22 a 447,447 0 1 0 1,0 M 813.491,449.39 L 813.431,448.348 813.368,447.307 819.412,442.023 825.556,438.654 831.704,435.57 839.098,432.274 838.833,429.678 838.55,427.084 838.249,424.491 837.929,421.901 829.987,420.333 823.307,418.695 816.567,416.777 809.499,412.97 809.329,411.941 809.156,410.913 808.98,409.885 808.8,408.857 814.214,402.93 819.943,398.893 825.707,395.141 832.685,391.037 832.132,388.487 831.56,385.941 830.97,383.399 830.363,380.861 822.294,380.192 815.473,379.312 808.561,378.161 801.111,375.169 800.827,374.166 800.54,373.163 800.25,372.161 799.956,371.16 804.673,364.664 809.913,360.012 815.22,355.637 821.696,350.778 820.86,348.306 820.007,345.84 819.136,343.38 818.249,340.926 810.156,341.164 803.279,341.053 796.282,340.683 788.544,338.545 788.149,337.58 787.751,336.615 787.351,335.652 786.947,334.69 790.907,327.707 795.593,322.497 800.377,317.556 806.268,312.003 805.161,309.64 804.037,307.284 802.896,304.937 801.739,302.598 793.724,303.741 786.878,304.401 779.883,304.817 771.955,303.558 771.454,302.643 770.951,301.729 770.445,300.817 769.937,299.907 773.089,292.524 777.163,286.822 781.364,281.376 786.596,275.198 785.231,272.974 783.85,270.76 782.454,268.555 781.042,266.36 773.206,268.393 766.477,269.815 759.572,271.012 751.553,270.649 750.953,269.795 750.351,268.944 749.746,268.094 749.138,267.246 751.444,259.557 754.854,253.435 758.419,247.553 762.926,240.828 761.321,238.77 759.701,236.724 758.067,234.69 756.418,232.667 748.859,235.565 742.331,237.731 735.604,239.693 727.594,240.23 726.903,239.45 726.209,238.671 725.513,237.894 724.814,237.119 726.245,229.22 728.947,222.755 731.831,216.511 735.557,209.324 733.732,207.459 731.893,205.607 730.041,203.768 728.176,201.943 720.989,205.669 714.745,208.553 708.28,211.255 700.381,212.686 699.606,211.987 698.829,211.291 698.05,210.597 697.27,209.906 697.807,201.896 699.769,195.169 701.935,188.641 704.833,181.082 702.81,179.433 700.776,177.799 698.73,176.179 696.672,174.574 689.947,179.081 684.065,182.646 677.943,186.056 670.254,188.362 669.406,187.754 668.556,187.149 667.705,186.547 666.851,185.947 666.488,177.928 667.685,171.023 669.107,164.294 671.14,156.458 668.945,155.046 666.74,153.65 664.526,152.269 662.302,150.904 656.124,156.136 650.678,160.337 644.976,164.411 637.593,167.563 636.683,167.055 635.771,166.549 634.857,166.046 633.942,165.545 632.683,157.617 633.099,150.622 633.759,143.776 634.902,135.761 632.563,134.604 630.216,133.463 627.86,132.339 625.497,131.232 619.944,137.123 615.003,141.907 609.793,146.593 602.81,150.553 601.848,150.149 600.885,149.749 599.92,149.351 598.955,148.956 596.817,141.218 596.447,134.221 596.336,127.344 596.574,119.251 594.12,118.364 591.66,117.493 589.194,116.64 586.722,115.804 581.863,122.28 577.488,127.587 572.836,132.827 566.34,137.544 565.339,137.25 564.337,136.96 563.334,136.673 562.331,136.389 559.339,128.939 558.188,122.027 557.308,115.206 556.639,107.137 554.101,106.53 551.559,105.94 549.013,105.368 546.463,104.815 542.359,111.793 538.607,117.557 534.57,123.286 528.643,128.7 527.615,128.52 526.587,128.344 525.559,128.171 524.53,128.001 520.723,120.933 518.805,114.193 517.167,107.513 515.599,99.571 513.009,99.251 510.416,98.95 507.822,98.667 505.226,98.402 501.93,105.796 498.846,111.944 495.477,118.088 490.193,124.132 489.152,124.069 488.11,124.009 487.069,123.952 486.027,123.898 481.453,117.301 478.793,110.818 476.417,104.364 473.969,96.647 471.36,96.619 468.75,96.61 466.14,96.619 463.531,96.647 461.083,104.364 458.707,110.818 456.047,117.301 451.473,123.898 450.431,123.952 449.39,124.009 448.348,124.069 447.307,124.132 442.023,118.088 438.654,111.944 435.57,105.796 432.274,98.402 429.678,98.667 427.084,98.95 424.491,99.251 421.901,99.571 420.333,107.513 418.695,114.193 416.777,120.933 412.97,128.001 411.941,128.171 410.913,128.344 409.885,128.52 408.857,128.7 402.93,123.286 398.893,117.557 395.141,111.793 391.037,104.815 388.487,105.368 385.941,105.94 383.399,106.53 380.861,107.137 380.192,115.206 379.312,122.027 378.161,128.939 375.169,136.389 374.166,136.673 373.163,136.96 372.161,137.25 371.16,137.544 364.664,132.827 360.012,127.587 355.637,122.28 350.778,115.804 348.306,116.64 345.84,117.493 343.38,118.364 340.926,119.251 341.164,127.344 341.053,134.221 340.683,141.218 338.545,148.956 337.58,149.351 336.615,149.749 335.652,150.149 334.69,150.553 327.707,146.593 322.497,141.907 317.556,137.123 312.003,131.232 309.64,132.339 307.284,133.463 304.937,134.604 302.598,135.761 303.741,143.776 304.401,150.622 304.817,157.617 303.558,165.545 302.643,166.046 301.729,166.549 300.817,167.055 299.907,167.563 292.524,164.411 286.822,160.337 281.376,156.136 275.198,150.904 272.974,152.269 270.76,153.65 268.555,155.046 266.36,156.458 268.393,164.294 269.815,171.023 271.012,177.928 270.649,185.947 269.795,186.547 268.944,187.149 268.094,187.754 267.246,188.362 259.557,186.056 253.435,182.646 247.553,179.081 240.828,174.574 238.77,176.179 236.724,177.799 234.69,179.433 232.667,181.082 235.565,188.641 237.731,195.169 239.693,201.896 240.23,209.906 239.45,210.597 238.671,211.291 237.894,211.987 237.119,212.686 229.22,211.255 222.755,208.553 216.511,205.669 209.324,201.943 207.459,203.768 205.607,205.607 203.768,207.459 201.943,209.324 205.669,216.511 208.553,222.755 211.255,229.22 212.686,237.119 211.987,237.894 211.291,238.671 210.597,239.45 209.906,240.23 201.896,239.693 195.169,237.731 188.641,235.565 181.082,232.667 179.433,234.69 177.799,236.724 176.179,238.77 174.574,240.828 179.081,247.553 182.646,253.435 186.056,259.557 188.362,267.246 187.754,268.094 187.149,268.944 186.547,269.795 185.947,270.649 177.928,271.012 171.023,269.815 164.294,268.393 156.458,266.36 155.046,268.555 153.65,270.76 152.269,272.974 150.904,275.198 156.136,281.376 160.337,286.822 164.411,292.524 167.563,299.907 167.055,300.817 166.549,301.729 166.046,302.643 165.545,303.558 157.617,304.817 150.622,304.401 143.776,303.741 135.761,302.598 134.604,304.937 133.463,307.284 132.339,309.64 131.232,312.003 137.123,317.556 141.907,322.497 146.593,327.707 150.553,334.69 150.149,335.652 149.749,336.615 149.351,337.58 148.956,338.545 141.218,340.683 134.221,341.053 127.344,341.164 119.251,340.926 118.364,343.38 117.493,345.84 116.64,348.306 115.804,350.778 122.28,355.637 127.587,360.012 132.827,364.664 137.544,371.16 137.25,372.161 136.96,373.163 136.673,374.166 136.389,375.169 128.939,378.161 122.027,379.312 115.206,380.192 107.137,380.861 106.53,383.399 105.94,385.941 105.368,388.487 104.815,391.037 111.793,395.141 117.557,398.893 123.286,402.93 128.7,408.857 128.52,409.885 128.344,410.913 128.171,411.941 128.001,412.97 120.933,416.777 114.193,418.695 107.513,420.333 99.571,421.901 99.251,424.491 98.95,427.084 98.667,429.678 98.402,432.274 105.796,435.57 111.944,438.654 118.088,442.023 124.132,447.307 124.069,448.348 124.009,449.39 123.952,450.431 123.898,451.473 117.301,456.047 110.818,458.707 104.364,461.083 96.647,463.531 96.619,466.14 96.61,468.75 96.619,471.36 96.647,473.969 104.364,476.417 110.818,478.793 117.301,481.453 123.898,486.027 123.952,487.069 124.009,488.11 124.069,489.152 124.132,490.193 118.088,495.477 111.944,498.846 105.796,501.93 98.402,505.226 98.667,507.822 98.95,510.416 99.251,513.009 99.571,515.599 107.513,517.167 114.193,518.805 120.933,520.723 128.001,524.53 128.171,525.559 128.344,526.587 128.52,527.615 128.7,528.643 123.286,534.57 117.557,538.607 111.793,542.359 104.815,546.463 105.368,549.013 105.94,551.559 106.53,554.101 107.137,556.639 115.206,557.308 122.027,558.188 128.939,559.339 136.389,562.331 136.673,563.334 136.96,564.337 137.25,565.339 137.544,566.34 132.827,572.836 127.587,577.488 122.28,581.863 115.804,586.722 116.64,589.194 117.493,591.66 118.364,594.12 119.251,596.574 127.344,596.336 134.221,596.447 141.218,596.817 148.956,598.955 149.351,599.92 149.749,600.885 150.149,601.848 150.553,602.81 146.593,609.793 141.907,615.003 137.123,619.944 131.232,625.497 132.339,627.86 133.463,630.216 134.604,632.563 135.761,634.902 143.776,633.759 150.622,633.099 157.617,632.683 165.545,633.942 166.046,634.857 166.549,635.771 167.055,636.683 167.563,637.593 164.411,644.976 160.337,650.678 156.136,656.124 150.904,662.302 152.269,664.526 153.65,666.74 155.046,668.945 156.458,671.14 164.294,669.107 171.023,667.685 177.928,666.488 185.947,666.851 186.547,667.705 187.149,668.556 187.754,669.406 188.362,670.254 186.056,677.943 182.646,684.065 179.081,689.947 174.574,696.672 176.179,698.73 177.799,700.776 179.433,702.81 181.082,704.833 188.641,701.935 195.169,699.769 201.896,697.807 209.906,697.27 210.597,698.05 211.291,698.829 211.987,699.606 212.686,700.381 211.255,708.28 208.553,714.745 205.669,720.989 201.943,728.176 203.768,730.041 205.607,731.893 207.459,733.732 209.324,735.557 216.511,731.831 222.755,728.947 229.22,726.245 237.119,724.814 237.894,725.513 238.671,726.209 239.45,726.903 240.23,727.594 239.693,735.604 237.731,742.331 235.565,748.859 232.667,756.418 234.69,758.067 236.724,759.701 238.77,761.321 240.828,762.926 247.553,758.419 253.435,754.854 259.557,751.444 267.246,749.138 268.094,749.746 268.944,750.351 269.795,750.953 270.649,751.553 271.012,759.572 269.815,766.477 268.393,773.206 266.36,781.042 268.555,782.454 270.76,783.85 272.974,785.231 275.198,786.596 281.376,781.364 286.822,777.163 292.524,773.089 299.907,769.937 300.817,770.445 301.729,770.951 302.643,771.454 303.558,771.955 304.817,779.883 304.401,786.878 303.741,793.724 302.598,801.739 304.937,802.896 307.284,804.037 309.64,805.161 312.003,806.268 317.556,800.377 322.497,795.593 327.707,790.907 334.69,786.947 335.652,787.351 336.615,787.751 337.58,788.149 338.545,788.544 340.683,796.282 341.053,803.279 341.164,810.156 340.926,818.249 343.38,819.136 345.84,820.007 348.306,820.86 350.778,821.696 355.637,815.22 360.012,809.913 364.664,804.673 371.16,799.956 372.161,800.25 373.163,800.54 374.166,800.827 375.169,801.111 378.161,808.561 379.312,815.473 380.192,822.294 380.861,830.363 383.399,830.97 385.941,831.56 388.487,832.132 391.037,832.685 395.141,825.707 398.893,819.943 402.93,814.214 408.857,808.8 409.885,808.98 410.913,809.156 411.941,809.329 412.97,809.499 416.777,816.567 418.695,823.307 420.333,829.987 421.901,837.929 424.491,838.249 427.084,838.55 429.678,838.833 432.274,839.098 435.57,831.704 438.654,825.556 442.023,819.412 447.307,813.368 448.348,813.431 449.39,813.491 450.431,813.548 451.473,813.602 456.047,820.199 458.707,826.682 461.083,833.136 463.531,840.853 466.14,840.881 468.75,840.89 471.36,840.881 473.969,840.853 476.417,833.136 478.793,826.682 481.453,820.199 486.027,813.602 487.069,813.548 488.11,813.491 489.152,813.431 490.193,813.368 495.477,819.412 498.846,825.556 501.93,831.704 505.226,839.098 507.822,838.833 510.416,838.55 513.009,838.249 515.599,837.929 517.167,829.987 518.805,823.307 520.723,816.567 524.53,809.499 525.559,809.329 526.587,809.156 527.615,808.98 528.643,808.8 534.57,814.214 538.607,819.943 542.359,825.707 546.463,832.685 549.013,832.132 551.559,831.56 554.101,830.97 556.639,830.363 557.308,822.294 558.188,815.473 559.339,808.561 562.331,801.111 563.334,800.827 564.337,800.54 565.339,800.25 566.34,799.956 572.836,804.673 577.488,809.913 581.863,815.22 586.722,821.696 589.194,820.86 591.66,820.007 594.12,819.136 596.574,818.249 596.336,810.156 596.447,803.279 596.817,796.282 598.955,788.544 599.92,788.149 600.885,787.751 601.848,787.351 602.81,786.947 609.793,790.907 615.003,795.593 619.944,800.377 625.497,806.268 627.86,805.161 630.216,804.037 632.563,802.896 634.902,801.739 633.759,793.724 633.099,786.878 632.683,779.883 633.942,771.955 634.857,771.454 635.771,770.951 636.683,770.445 637.593,769.937 644.976,773.089 650.678,777.163 656.124,781.364 662.302,786.596 664.526,785.231 666.74,783.85 668.945,782.454 671.14,781.042 669.107,773.206 667.685,766.477 666.488,759.572 666.851,751.553 667.705,750.953 668.556,750.351 669.406,749.746 670.254,749.138 677.943,751.444 684.065,754.854 689.947,758.419 696.672,762.926 698.73,761.321 700.776,759.701 702.81,758.067 704.833,756.418 701.935,748.859 699.769,742.331 697.807,735.604 697.27,727.594 698.05,726.903 698.829,726.209 699.606,725.513 700.381,724.814 708.28,726.245 714.745,728.947 720.989,731.831 728.176,735.557 730.041,733.732 731.893,731.893 733.732,730.041 735.557,728.176 731.831,720.989 728.947,714.745 726.245,708.28 724.814,700.381 725.513,699.606 726.209,698.829 726.903,698.05 727.594,697.27 735.604,697.807 742.331,699.769 748.859,701.935 756.418,704.833 758.067,702.81 759.701,700.776 761.321,698.73 762.926,696.672 758.419,689.947 754.854,684.065 751.444,677.943 749.138,670.254 749.746,669.406 750.351,668.556 750.953,667.705 751.553,666.851 759.572,666.488 766.477,667.685 773.206,669.107 781.042,671.14 782.454,668.945 783.85,666.74 785.231,664.526 786.596,662.302 781.364,656.124 777.163,650.678 773.089,644.976 769.937,637.593 770.445,636.683 770.951,635.771 771.454,634.857 771.955,633.942 779.883,632.683 786.878,633.099 793.724,633.759 801.739,634.902 802.896,632.563 804.037,630.216 805.161,627.86 806.268,625.497 800.377,619.944 795.593,615.003 790.907,609.793 786.947,602.81 787.351,601.848 787.751,600.885 788.149,599.92 788.544,598.955 796.282,596.817 803.279,596.447 810.156,596.336 818.249,596.574 819.136,594.12 820.007,591.66 820.86,589.194 821.696,586.722 815.22,581.863 809.913,577.488 804.673,572.836 799.956,566.34 800.25,565.339 800.54,564.337 800.827,563.334 801.111,562.331 808.561,559.339 815.473,558.188 822.294,557.308 830.363,556.639 830.97,554.101 831.56,551.559 832.132,549.013 832.685,546.463 825.707,542.359 819.943,538.607 814.214,534.57 808.8,528.643 808.98,527.615 809.156,526.587 809.329,525.559 809.499,524.53 816.567,520.723 823.307,518.805 829.987,517.167 837.929,515.599 838.249,513.009 838.55,510.416 838.833,507.822 839.098,505.226 831.704,501.93 825.556,498.846 819.412,495.477 813.368,490.193 813.431,489.152 813.491,488.11 813.548,487.069 813.602,486.027 820.199,481.453 826.682,478.793 833.136,476.417 840.853,473.969 840.881,471.36 840.89,468.75 840.89,468.75 840.881,466.14 840.853,463.531 833.136,461.083 826.682,458.707 820.199,456.047 813.602,451.473 813.548,450.431 Z"/>
   <path class="tick" d="M 0,-385 V -435"/>
  </g>
  <g id="ring_140">
   <use xlink:href="#ring"/>
   <text transform="translate(0,405)" y="0.7ex">140</text>
  </g>
  <g id="sun_140">
   <use xlink:href="#sun"/>
   <text transform="translate(0,110)" y="0.7ex">140</text>
  </g>
 </defs>
 <circle cx="0" cy="0" r="9999" fill="#ffffff"/>
 <g font-family="Helvetica,Arial,sans-serif" font-size="40" text-anchor="middle" fill="#000000" stroke="#000000" stroke-linejoin="round">
  <g>
   <text class="fig" transform="translate(-390,-370)" y="0.7ex">1</text>
   <use xlink:href="#ring"/>
   <text transform="translate(0,405)" y="0.7ex">0</text>
   <use class="rot_sun" xlink:href="#sun_140"/>
   <g class="rot_carrier_r">
    <g transform="translate( 257,0)"><g class="rot_planet_r"><use xlink:href="#planet"/><text transform="translate(-4,65)" y="0.7ex">−189</text></g></g>
    <g transform="translate(-257,0)"><g class="rot_planet_r"><use xlink:href="#planet"/><text transform="translate(-4,65)" y="0.7ex">−189</text></g></g>
    <g transform="translate(0, 257)"><g class="rot_planet_r"><use xlink:href="#planet"/><text transform="translate(-4,65)" y="0.7ex">−189</text></g></g>
    <g transform="translate(0,-257)"><g class="rot_planet_r"><use xlink:href="#planet"/><text transform="translate(-4,65)" y="0.7ex">−189</text></g></g>
    <use xlink:href="#carrier"/>
    <text transform="translate(0,284)" y="0.7ex">42</text>
   </g>
  </g>
  <g transform="translate(900,0)">
   <text class="fig" transform="translate(-390,-370)" y="0.7ex">2</text>
   <use class="rot_ring_s" xlink:href="#ring_140"/>
   <use xlink:href="#sun"/>
   <text transform="translate(0,110)" y="0.7ex">0</text>
   <g class="rot_carrier_s">
    <g transform="translate( 257,0)"><g class="rot_planet_s"><use xlink:href="#planet"/><text transform="translate(0,65)" y="0.7ex">245</text></g></g>
    <g transform="translate(-257,0)"><g class="rot_planet_s"><use xlink:href="#planet"/><text transform="translate(0,65)" y="0.7ex">245</text></g></g>
    <g transform="translate(0, 257)"><g class="rot_planet_s"><use xlink:href="#planet"/><text transform="translate(0,65)" y="0.7ex">245</text></g></g>
    <g transform="translate(0,-257)"><g class="rot_planet_s"><use xlink:href="#planet"/><text transform="translate(0,65)" y="0.7ex">245</text></g></g>
    <use xlink:href="#carrier"/>
    <text transform="translate(0,284)" y="0.7ex">98</text>
   </g>
  </g>
  <g transform="translate(0,900)">
   <text class="fig" transform="translate(-390,-370)" y="0.7ex">3</text>
   <g class="rot_ring_c">
    <use xlink:href="#ring"/>
    <text transform="translate(0,405)" y="0.7ex">−60</text>
   </g>
   <use class="rot_sun" xlink:href="#sun_140"/>
   <g transform="translate( 257,0)"><g class="rot_planet_c"><use xlink:href="#planet"/><text transform="translate(-4,65)" y="0.7ex">−210</text></g></g>
   <g transform="translate(-257,0)"><g class="rot_planet_c"><use xlink:href="#planet"/><text transform="translate(-4,65)" y="0.7ex">−210</text></g></g>
   <g transform="translate(0, 257)"><g class="rot_planet_c"><use xlink:href="#planet"/><text transform="translate(-4,65)" y="0.7ex">−210</text></g></g>
   <g transform="translate(0,-257)"><g class="rot_planet_c"><use xlink:href="#planet"/><text transform="translate(-4,65)" y="0.7ex">−210</text></g></g>
   <use xlink:href="#carrier"/>
   <text transform="translate(0,285)" y="0.7ex">0</text>
  </g>
  <g transform="translate(900,900)">
   <text class="fig" transform="translate(-390,-370)" y="0.7ex">4</text>
   <g class="rot_sun">
    <use xlink:href="#ring_140"/>
    <use xlink:href="#sun_140"/>
    <use xlink:href="#planet" transform="translate( 257,0)"/>
    <use xlink:href="#planet" transform="translate(-257,0)"/>
    <use xlink:href="#planet" transform="translate(0, 257)"/>
    <use xlink:href="#planet" transform="translate(0,-257)"/>
    <use xlink:href="#carrier"/>
    <text transform="translate(0,281)" y="0.7ex">140</text>
    <text transform="translate(0,325)" y="0.7ex">140</text>
   </g>
  </g>
 </g>
</svg>