
<svg xmlns="http://www.w3.org/2000/svg" xmlns:x="http://www.w3.org/1999/xhtml" xmlns:slide="http://www.w3.org/Consortium/Offices/Presentation/xsltSlidemaker" xmlns:xlink="http://www.w3.org/1999/xlink" id="top_" xml:lang="en" viewBox="0 0 1220 886" onload="Slide_init(evt);"><!--Add keyboard event handler-->



   <g class="slideContent" transform="translate(160 80)"><!--Slide content area, to possibly give another colour-->
      <g transform="translate(10,10)">
         <svg xmlns:appl="http://www.w3.org/Consortium/Offices/Presentation/xsltSlidemaker#slideContent" preserveAspectRatio="xMidYMid" xml:space="preserve" viewBox="0 0 1024 400" width="1014.75" height="393.525">
            <defs>
    
               <g id="duck" style="stroke:none; fill:lime;">
      
                  <desc>A duck drawn with in polylines</desc>
      
                  <path d="M  0.0  112 L  20  124 L  40  129 L  60  126 L  80  120 L  100  111 L  120  104 L  140  101 L  164  106 L  170  103 L  173  80 L  178  60 L  185  39 L  200  30 L  220  30 L  240  40 L  260  61 L  280  69 L  290  68 L  288  77 L  272  85 L  250  85 L  230  85 L  215  88 L  211  95 L  215  110 L  228  120 L  241  130 L  251  149 L  252  164 L  242  181 L  221  189 L  200  191 L  180  193 L  160  192 L  140  190 L  120  190 L  100  188 L  80  182 L  61  179 L  42  171 L  30  159 L  13  140 L  00  112 Z"/>
    
               </g>
  
            </defs>
            <g id="SlideContent">
    
               <use xlink:href="#duck" transform="translate(700 130)" id="theDuck">
      
                  <desc>A drawing of the duck</desc>
    
               </use>
  
            </g>
         </svg>
      </g>
   </g>






</svg>
