<svg xmlns="http://www.w3.org/2000/svg" viewBox="0 0 800 800"><title>fcGold Token</title><g id="bcffee33-c04c-446c-9b1e-d3be9be08623" data-name="Gold Tokens"><circle cx="400" cy="400" r="252.69" style="fill:#fbe95e"/><path d="M400,609.79a210.39,210.39,0,1,1,148.17-61.62A208.29,208.29,0,0,1,400,609.79Z" style="fill:#fff;fill-rule:evenodd"/><path d="M536.45,263.55a192.4,192.4,0,0,0-244-23.87,36.82,36.82,0,0,1-52.06,51.75,193.22,193.22,0,1,0,296.07-27.88Z" style="fill:#fbe95e;fill-rule:evenodd"/><line x1="407.99" y1="156.02" x2="406.89" y2="189.69" style="fill:none;stroke:#fff;stroke-linecap:round;stroke-linejoin:round;stroke-width:9.36719588290314px"/><line x1="471.19" y1="166.53" x2="461.41" y2="198.76" style="fill:none;stroke:#fff;stroke-linecap:round;stroke-linejoin:round;stroke-width:9.36719588290314px"/><line x1="529.52" y1="193.05" x2="511.72" y2="221.65" style="fill:none;stroke:#fff;stroke-linecap:round;stroke-linejoin:round;stroke-width:9.36719588290314px"/><line x1="578.98" y1="233.79" x2="554.38" y2="256.79" style="fill:none;stroke:#fff;stroke-linecap:round;stroke-linejoin:round;stroke-width:9.36719588290314px"/><line x1="616.19" y1="285.94" x2="586.47" y2="301.79" style="fill:none;stroke:#fff;stroke-linecap:round;stroke-linejoin:round;stroke-width:9.36719588290314px"/><line x1="638.62" y1="345.96" x2="605.81" y2="353.56" style="fill:none;stroke:#fff;stroke-linecap:round;stroke-linejoin:round;stroke-width:9.36719588290314px"/><line x1="644.74" y1="409.74" x2="611.07" y2="408.58" style="fill:none;stroke:#fff;stroke-linecap:round;stroke-linejoin:round;stroke-width:9.36719588290314px"/><line x1="634.11" y1="472.93" x2="601.9" y2="463.09" style="fill:none;stroke:#fff;stroke-linecap:round;stroke-linejoin:round;stroke-width:9.36719588290314px"/><line x1="607.48" y1="531.21" x2="578.92" y2="513.35" style="fill:none;stroke:#fff;stroke-linecap:round;stroke-linejoin:round;stroke-width:9.36719588290314px"/><line x1="566.65" y1="580.59" x2="543.69" y2="555.95" style="fill:none;stroke:#fff;stroke-linecap:round;stroke-linejoin:round;stroke-width:9.36719588290314px"/><line x1="514.43" y1="617.71" x2="498.64" y2="587.96" style="fill:none;stroke:#fff;stroke-linecap:round;stroke-linejoin:round;stroke-width:9.36719588290314px"/><line x1="454.37" y1="640.03" x2="446.83" y2="607.2" style="fill:none;stroke:#fff;stroke-linecap:round;stroke-linejoin:round;stroke-width:9.36719588290314px"/><line x1="390.57" y1="646.02" x2="391.8" y2="612.36" style="fill:none;stroke:#fff;stroke-linecap:round;stroke-linejoin:round;stroke-width:9.36719588290314px"/><line x1="327.41" y1="635.28" x2="337.31" y2="603.09" style="fill:none;stroke:#fff;stroke-linecap:round;stroke-linejoin:round;stroke-width:9.36719588290314px"/><line x1="269.18" y1="608.54" x2="287.09" y2="580.01" style="fill:none;stroke:#fff;stroke-linecap:round;stroke-linejoin:round;stroke-width:9.36719588290314px"/><line x1="219.87" y1="567.62" x2="244.56" y2="544.71" style="fill:none;stroke:#fff;stroke-linecap:round;stroke-linejoin:round;stroke-width:9.36719588290314px"/><line x1="182.85" y1="515.33" x2="212.63" y2="499.59" style="fill:none;stroke:#fff;stroke-linecap:round;stroke-linejoin:round;stroke-width:9.36719588290314px"/><line x1="160.64" y1="455.23" x2="193.48" y2="447.75" style="fill:none;stroke:#fff;stroke-linecap:round;stroke-linejoin:round;stroke-width:9.36719588290314px"/><line x1="154.77" y1="391.42" x2="188.43" y2="392.71" style="fill:none;stroke:#fff;stroke-linecap:round;stroke-linejoin:round;stroke-width:9.36719588290314px"/><line x1="165.63" y1="328.28" x2="197.8" y2="338.24" style="fill:none;stroke:#fff;stroke-linecap:round;stroke-linejoin:round;stroke-width:9.36719588290314px"/><line x1="192.48" y1="270.1" x2="220.97" y2="288.06" style="fill:none;stroke:#fff;stroke-linecap:round;stroke-linejoin:round;stroke-width:9.36719588290314px"/><line x1="233.48" y1="220.87" x2="256.35" y2="245.6" style="fill:none;stroke:#fff;stroke-linecap:round;stroke-linejoin:round;stroke-width:9.36719588290314px"/><line x1="285.85" y1="183.94" x2="301.53" y2="213.75" style="fill:none;stroke:#fff;stroke-linecap:round;stroke-linejoin:round;stroke-width:9.36719588290314px"/><line x1="345.99" y1="161.85" x2="353.41" y2="194.7" style="fill:none;stroke:#fff;stroke-linecap:round;stroke-linejoin:round;stroke-width:9.36719588290314px"/><line x1="400" y1="155.88" x2="400" y2="189.56" style="fill:none;stroke:#f09035;stroke-linecap:round;stroke-linejoin:round;stroke-width:9.36719588290314px"/><line x1="463.51" y1="164.32" x2="454.79" y2="196.86" style="fill:none;stroke:#f09035;stroke-linecap:round;stroke-linejoin:round;stroke-width:9.36719588290314px"/><line x1="522.67" y1="188.94" x2="505.81" y2="218.09" style="fill:none;stroke:#f09035;stroke-linecap:round;stroke-linejoin:round;stroke-width:9.36719588290314px"/><line x1="573.43" y1="228.04" x2="549.59" y2="251.83" style="fill:none;stroke:#f09035;stroke-linecap:round;stroke-linejoin:round;stroke-width:9.36719588290314px"/><line x1="612.33" y1="278.95" x2="583.14" y2="295.76" style="fill:none;stroke:#f09035;stroke-linecap:round;stroke-linejoin:round;stroke-width:9.36719588290314px"/><line x1="636.7" y1="338.21" x2="604.15" y2="346.88" style="fill:none;stroke:#f09035;stroke-linecap:round;stroke-linejoin:round;stroke-width:9.36719588290314px"/><line x1="644.89" y1="401.76" x2="611.21" y2="401.69" style="fill:none;stroke:#f09035;stroke-linecap:round;stroke-linejoin:round;stroke-width:9.36719588290314px"/><line x1="636.33" y1="465.26" x2="603.81" y2="456.47" style="fill:none;stroke:#f09035;stroke-linecap:round;stroke-linejoin:round;stroke-width:9.36719588290314px"/><line x1="611.61" y1="524.37" x2="582.48" y2="507.46" style="fill:none;stroke:#f09035;stroke-linecap:round;stroke-linejoin:round;stroke-width:9.36719588290314px"/><line x1="572.41" y1="575.06" x2="548.66" y2="551.17" style="fill:none;stroke:#f09035;stroke-linecap:round;stroke-linejoin:round;stroke-width:9.36719588290314px"/><line x1="521.42" y1="613.86" x2="504.67" y2="584.64" style="fill:none;stroke:#f09035;stroke-linecap:round;stroke-linejoin:round;stroke-width:9.36719588290314px"/><line x1="462.12" y1="638.12" x2="453.52" y2="605.56" style="fill:none;stroke:#f09035;stroke-linecap:round;stroke-linejoin:round;stroke-width:9.36719588290314px"/><line x1="398.56" y1="646.19" x2="398.68" y2="612.51" style="fill:none;stroke:#f09035;stroke-linecap:round;stroke-linejoin:round;stroke-width:9.36719588290314px"/><line x1="335.08" y1="637.51" x2="343.92" y2="605.01" style="fill:none;stroke:#f09035;stroke-linecap:round;stroke-linejoin:round;stroke-width:9.36719588290314px"/><line x1="276.01" y1="612.68" x2="292.98" y2="583.59" style="fill:none;stroke:#f09035;stroke-linecap:round;stroke-linejoin:round;stroke-width:9.36719588290314px"/><line x1="225.4" y1="573.39" x2="249.32" y2="549.69" style="fill:none;stroke:#f09035;stroke-linecap:round;stroke-linejoin:round;stroke-width:9.36719588290314px"/><line x1="186.69" y1="522.33" x2="215.94" y2="505.64" style="fill:none;stroke:#f09035;stroke-linecap:round;stroke-linejoin:round;stroke-width:9.36719588290314px"/><line x1="162.54" y1="462.99" x2="195.11" y2="454.44" style="fill:none;stroke:#f09035;stroke-linecap:round;stroke-linejoin:round;stroke-width:9.36719588290314px"/><line x1="154.59" y1="399.41" x2="188.27" y2="399.59" style="fill:none;stroke:#f09035;stroke-linecap:round;stroke-linejoin:round;stroke-width:9.36719588290314px"/><line x1="163.38" y1="335.94" x2="195.86" y2="344.85" style="fill:none;stroke:#f09035;stroke-linecap:round;stroke-linejoin:round;stroke-width:9.36719588290314px"/><line x1="188.32" y1="276.92" x2="217.38" y2="293.94" style="fill:none;stroke:#f09035;stroke-linecap:round;stroke-linejoin:round;stroke-width:9.36719588290314px"/><line x1="227.7" y1="226.38" x2="251.36" y2="250.35" style="fill:none;stroke:#f09035;stroke-linecap:round;stroke-linejoin:round;stroke-width:9.36719588290314px"/><line x1="278.84" y1="187.77" x2="295.48" y2="217.05" style="fill:none;stroke:#f09035;stroke-linecap:round;stroke-linejoin:round;stroke-width:9.36719588290314px"/><line x1="338.23" y1="163.72" x2="346.71" y2="196.32" style="fill:none;stroke:#f09035;stroke-linecap:round;stroke-linejoin:round;stroke-width:9.36719588290314px"/><path d="M400,609.79a210.39,210.39,0,1,1,148.17-61.62A208.29,208.29,0,0,1,400,609.79Z" style="fill:none;stroke:#f09035;stroke-linecap:round;stroke-linejoin:round;stroke-width:9.36719588290314px;fill-rule:evenodd"/><circle cx="400" cy="400" r="252.69" style="fill:none;stroke:#f09035;stroke-linecap:round;stroke-linejoin:round;stroke-width:9.36719588290314px"/><path d="M424.37,454.5V433h33.31a127.84,127.84,0,0,0,1.21-15.89H389.25v-25H486.9V433h29.37v21.5H486.9v56.62H467.52l-7.27-28.61q-15.28,16.8-27.09,23.31Q413.32,517,382.74,517q-39.51,0-68-25.59-31-32.08-31-88.11,0-55.86,30.28-88.87Q342.77,283,388.49,283q31.35,0,54.2,12.11,33.17,17.42,40.58,61H453.44q-5.44-24.37-22.56-35.51t-43.14-11.12q-30.89,0-52,23.16t-21.12,69q0,39.66,17.41,64.56t56.78,24.91q30.12,0,49.81-17.41a51.34,51.34,0,0,0,13.47-19.23Z" style="fill:#fff"/></g></svg>