<?xml version="1.0"?>
<svg width="640" height="480" xmlns="http://www.w3.org/2000/svg" xmlns:xforms="http://www.w3.org/2002/xforms">
 <!-- Created with SVG-edit - https://github.com/SVG-Edit/svgedit-->
 <g class="layer">
  <title>Layer 1</title>

  <rect fill="#00ffff" font-size="16" height="52" id="svg_10" stroke="#000000" width="294" x="51.5" y="143.5"/>
  <rect fill="#ffffff" font-size="16" height="51" id="svg_9" stroke="#000000" width="293" x="48.5" y="140.5"/>
  <rect fill="#ffffff" font-size="16" height="22" id="svg_8" stroke="#000000" stroke-dasharray="null" stroke-linecap="null" stroke-linejoin="null" stroke-opacity="null" width="92" x="61.5" y="131.5"/>
  <text fill="#000000" font-family="Sans-serif" font-size="12" id="svg_7" stroke="#000000" stroke-dasharray="null" stroke-linecap="null" stroke-linejoin="null" stroke-opacity="null" stroke-width="0" style="cursor: move;" text-anchor="middle" transform="matrix(1, 0, 0, 1, 0, 0)" x="98.5" xml:space="preserve" y="146.5">Pole nr 2</text>
  <text fill="#000000" font-family="Sans-serif" font-size="16" id="svg_6" stroke="#000000" stroke-dasharray="null" stroke-linecap="null" stroke-linejoin="null" stroke-opacity="null" stroke-width="0" text-anchor="middle" transform="matrix(1, 0, 0, 1, 0, 0)" x="108.5" xml:space="preserve" y="176.5">Kuku, kuku.</text>

  <rect fill="#00ffff" font-size="16" height="52" id="svg_15" stroke="#000000" width="294" x="51.5" y="217.5"/>
  <rect fill="#ffffff" font-size="16" height="51" id="svg_14" stroke="#000000" width="293" x="48.5" y="214.5"/>
  <rect fill="#ffffff" font-size="16" height="22" id="svg_13" stroke="#000000" stroke-dasharray="null" stroke-linecap="null" stroke-linejoin="null" stroke-opacity="null" width="92" x="61.5" y="205.5"/>
  <text fill="#000000" font-family="Sans-serif" font-size="12" id="svg_12" stroke="#000000" stroke-dasharray="null" stroke-linecap="null" stroke-linejoin="null" stroke-opacity="null" stroke-width="0" style="cursor: move;" text-anchor="middle" transform="matrix(1, 0, 0, 1, 0, 0)" x="98.5" xml:space="preserve" y="220.5">Pole nr 3</text>
  <text fill="#000000" font-family="Sans-serif" font-size="16" id="svg_11" stroke="#000000" stroke-dasharray="null" stroke-linecap="null" stroke-linejoin="null" stroke-opacity="null" stroke-width="0" text-anchor="middle" transform="matrix(1, 0, 0, 1, 0, 0)" x="114.5" xml:space="preserve" y="249.5">Aj waj, aj waj.</text>

  <xforms:repeat ref="a">
   <rect fill="#00ffff" font-size="16" height="52" id="svg_20" stroke="#000000" width="294" x="50.5" y="71.5"></rect>
   <rect fill="#ffffff" font-size="16" height="51" id="svg_19" stroke="#000000" width="293" x="47.5" y="68.5"><set attribute="y" begin="xforms-refresh"><xforms:bind calculate="68.5 + 100 * index(.)"/></set></rect>
   <rect fill="#ffffff" font-size="16" height="22" id="svg_18" stroke="#000000" stroke-dasharray="null" stroke-linecap="null" stroke-linejoin="null" stroke-opacity="null" width="92" x="60.5" y="59.5"/>
   <text fill="#000000" font-family="Sans-serif" font-size="12" id="svg_17" stroke="#000000" stroke-dasharray="null" stroke-linecap="null" stroke-linejoin="null" stroke-opacity="null" stroke-width="0" text-anchor="middle" transform="matrix(1, 0, 0, 1, 0, 0)" x="97.5" xml:space="preserve" y="74.5">Pole nr 1</text>
   <text fill="#000000" font-family="Sans-serif" font-size="16" id="svg_16" stroke="#000000" stroke-dasharray="null" stroke-linecap="null" stroke-linejoin="null" stroke-opacity="null" stroke-width="0" style="cursor: move;" text-anchor="middle" transform="matrix(1, 0, 0, 1, 0, 0)" x="192.5" xml:space="preserve" y="103.5">Kukułeczka kuka, kokainy szuka.</text>
  </xforms:repeat>

  <xforms:input ref="b">
   <xforms:label>Dial</xforms:label>
   <svg>
    <circle cx="490" cy="167" fill="#ffaaaa" id="svg_21" r="125.94" stroke="#000000" stroke-dasharray="null" stroke-linecap="null" stroke-linejoin="null" stroke-opacity="null"/>
    <circle cx="491" cy="69" fill="#ffffff" fill-opacity="null" id="svg_22" r="21.4" stroke="#000000" stroke-dasharray="null" stroke-linecap="null" stroke-linejoin="null" stroke-opacity="null" transform="matrix(1, 0, 0, 1, 0, 0)"/>
    <circle cx="537" cy="79.5" fill="#ffffff" fill-opacity="null" id="svg_28" r="21.4" stroke="#000000" stroke-dasharray="null" stroke-linecap="null" stroke-linejoin="null" stroke-opacity="null"/>
    <circle cx="572" cy="109.5" fill="#ffffff" fill-opacity="null" id="svg_29" r="21.4" stroke="#000000" stroke-dasharray="null" stroke-linecap="null" stroke-linejoin="null" stroke-opacity="null" transform="matrix(1, 0, 0, 1, 0, 0)"/>
    <circle cx="445" cy="81.5" fill="#ffffff" fill-opacity="null" id="svg_30" r="21.4" stroke="#000000" stroke-dasharray="null" stroke-linecap="null" stroke-linejoin="null" stroke-opacity="null"/>
    <circle cx="408" cy="112.5" fill="#ffffff" fill-opacity="null" id="svg_31" r="21.4" stroke="#000000" stroke-dasharray="null" stroke-linecap="null" stroke-linejoin="null" stroke-opacity="null" transform="matrix(1, 0, 0, 1, 0, 0)"/>
    <circle cx="392" cy="158.5" fill="#ffffff" fill-opacity="null" id="svg_32" r="21.4" stroke="#000000" stroke-dasharray="null" stroke-linecap="null" stroke-linejoin="null" stroke-opacity="null" transform="matrix(1, 0, 0, 1, 0, 0)"/>
    <circle cx="396" cy="205.5" fill="#ffffff" fill-opacity="null" id="svg_33" r="21.4" stroke="#000000" stroke-dasharray="null" stroke-linecap="null" stroke-linejoin="null" stroke-opacity="null" transform="matrix(1, 0, 0, 1, 0, 0)"/>
    <circle cx="424" cy="244.5" fill="#ffffff" fill-opacity="null" id="svg_34" r="21.4" stroke="#000000" stroke-dasharray="null" stroke-linecap="null" stroke-linejoin="null" stroke-opacity="null" transform="matrix(1, 0, 0, 1, 0, 0)"/>
    <circle cx="468" cy="264.5" fill="#ffffff" fill-opacity="null" id="svg_35" r="21.4" stroke="#000000" stroke-dasharray="null" stroke-linecap="null" stroke-linejoin="null" stroke-opacity="null" transform="matrix(1, 0, 0, 1, 0, 0)"/>
    <circle cx="515" cy="261.5" fill="#ffffff" fill-opacity="null" id="svg_36" r="21.4" stroke="#000000" stroke-dasharray="null" stroke-linecap="null" stroke-linejoin="null" stroke-opacity="null" transform="matrix(1, 0, 0, 1, 0, 0)"/>
    <polygon cx="559" cy="168" fill="#00ffff" id="svg_37" orient="point" point="3" points="602.4637809026226,231.52345074791128 574.9087802402264,252.12097030774885 556.9732438587471,280.9029497818774 552.897851766933,248.07418888728898 536.430918258553,219.38306792482763 568.0613448172426,231.61436231971447 602.4637809026226,231.52345074791128 574.9087802402264,252.12097030774885 " r="20.92" r2="6.97" radialshift="0" shape="star" starRadiusMultiplier="3" stroke="#000000" stroke-width="NaN"/>
    <circle cx="490" cy="166.5" fill="#bf0000" id="svg_38" r="61.27" stroke="#000000" stroke-dasharray="null" stroke-linecap="null" stroke-linejoin="null" stroke-opacity="null" transform="matrix(1, 0, 0, 1, 0, 0)"/>
    <text fill="#000000" fill-opacity="null" font-family="Sans-serif" font-size="12" id="svg_39" stroke="#000000" stroke-dasharray="null" stroke-linecap="null" stroke-linejoin="null" stroke-opacity="null" stroke-width="0" text-anchor="middle" transform="matrix(1, 0, 0, 1, 0, 0)" x="572" xml:space="preserve" y="114">1</text>
    <text fill="#000000" fill-opacity="null" font-family="Sans-serif" font-size="12" id="svg_40" stroke="#000000" stroke-dasharray="null" stroke-linecap="null" stroke-linejoin="null" stroke-opacity="null" stroke-width="0" text-anchor="middle" transform="matrix(1, 0, 0, 1, 0, 0)" x="537" xml:space="preserve" y="84">2</text>
    <text fill="#000000" fill-opacity="null" font-family="Sans-serif" font-size="12" id="svg_41" stroke="#000000" stroke-dasharray="null" stroke-linecap="null" stroke-linejoin="null" stroke-opacity="null" stroke-width="0" text-anchor="middle" transform="matrix(1, 0, 0, 1, 0, 0)" x="490" xml:space="preserve" y="74">3</text>
    <text fill="#000000" fill-opacity="null" font-family="Sans-serif" font-size="12" id="svg_42" stroke="#000000" stroke-dasharray="null" stroke-linecap="null" stroke-linejoin="null" stroke-opacity="null" stroke-width="0" text-anchor="middle" transform="matrix(1, 0, 0, 1, 0, 0)" x="445" xml:space="preserve" y="86">4</text>
    <text fill="#000000" fill-opacity="null" font-family="Sans-serif" font-size="12" id="svg_43" stroke="#000000" stroke-dasharray="null" stroke-linecap="null" stroke-linejoin="null" stroke-opacity="null" stroke-width="0" text-anchor="middle" x="407" xml:space="preserve" y="117">5</text>
    <text fill="#000000" fill-opacity="null" font-family="Sans-serif" font-size="12" id="svg_44" stroke="#000000" stroke-dasharray="null" stroke-linecap="null" stroke-linejoin="null" stroke-opacity="null" stroke-width="0" text-anchor="middle" transform="matrix(1, 0, 0, 1, 0, 0)" x="392" xml:space="preserve" y="165">6</text>
    <text fill="#000000" fill-opacity="null" font-family="Sans-serif" font-size="12" id="svg_45" stroke="#000000" stroke-dasharray="null" stroke-linecap="null" stroke-linejoin="null" stroke-opacity="null" stroke-width="0" text-anchor="middle" transform="matrix(1, 0, 0, 1, 0, 0)" x="396" xml:space="preserve" y="213">7</text>
    <text fill="#000000" fill-opacity="null" font-family="Sans-serif" font-size="12" id="svg_46" stroke="#000000" stroke-dasharray="null" stroke-linecap="null" stroke-linejoin="null" stroke-opacity="null" stroke-width="0" text-anchor="middle" transform="matrix(1, 0, 0, 1, 0, 0)" x="422" xml:space="preserve" y="249">8</text>
    <text fill="#000000" fill-opacity="null" font-family="Sans-serif" font-size="12" id="svg_47" stroke="#000000" stroke-dasharray="null" stroke-linecap="null" stroke-linejoin="null" stroke-opacity="null" stroke-width="0" text-anchor="middle" transform="matrix(1, 0, 0, 1, 0, 0)" x="467" xml:space="preserve" y="268">9</text>
    <text fill="#000000" fill-opacity="null" font-family="Sans-serif" font-size="12" id="svg_48" stroke="#000000" stroke-dasharray="null" stroke-linecap="null" stroke-linejoin="null" stroke-opacity="null" stroke-width="0" text-anchor="middle" transform="matrix(1, 0, 0, 1, 0, 0)" x="514" xml:space="preserve" y="266">0</text>
    <rect fill="#ffffff" height="43" id="svg_49" stroke="#000000" stroke-dasharray="null" stroke-linecap="null" stroke-linejoin="null" stroke-opacity="null" width="98" x="443" y="146"/>

    <text fill="#000000" font-family="Sans-serif" font-size="16" id="svg_50" stroke="#000000" stroke-dasharray="null" stroke-linecap="null" stroke-linejoin="null" stroke-opacity="null" stroke-width="0" text-anchor="middle" transform="matrix(1, 0, 0, 1, 0, 0)" x="492" xml:space="preserve" y="174">
     <smilText begin="xforms-value-changed"><xforms:value value="context()"/></smilText>
    </text>
   </svg>
  </xforms:input>
 </g>
</svg>