<svg xmlns:svg="http://www.w3.org/2000/svg" xmlns="http://www.w3.org/2000/svg" xmlns:xlink="http://www.w3.org/1999/xlink" version="1.1" width="534" height="283.5" viewBox="0 0 534 283.5" id="Layer_3_copy_2" xml:space="preserve"><defs id="defs3599"><linearGradient x1="265.7" y1="72.3" x2="265.7" y2="212.4" id="SVGID_1_" gradientUnits="userSpaceOnUse" gradientTransform="matrix(0.9763,-0.2164,0.2164,0.9763,-26.4711,60.2204)"><stop id="stop3591" offset="0" style="stop-color:#d1000d;stop-opacity:1"/><stop id="stop3593" offset="1" style="stop-color:#3d0000;stop-opacity:1"/></linearGradient><linearGradient x1="265.7" y1="72.3" x2="265.7" y2="212.4" id="linearGradient3609" xlink:href="#SVGID_1_" gradientUnits="userSpaceOnUse" gradientTransform="matrix(0.9763,-0.2164,0.2164,0.9763,-26.4711,60.2204)"/></defs><path d="M38.8 269.8C28.8 263.7 23 253 22.9 241.6l0 0c0-1.8 0.2-3.6 0.5-5.5l0 0c1.5-8.6 6.3-16 13-20.9l0 0c-2.5-1.3-5-2.8-7.3-4.5l0 0C18.4 202.8 11 191.2 8.1 178.3l0 0-1.6-7C6.1 169.2 5.7 167 5.5 164.9l0 0c-0.2-1.8-0.3-3.6-0.3-5.4l0 0c0-11.2 3.4-22.2 9.9-31.5l0 0c7.6-10.8 19-18.6 32-21.5l0 0 114.4-25.4c2.4-0.5 4.8-0.8 7.1-0.8l0 0c9.2 0 18.1 3.9 24.4 10.9l0 0 1.2 1.4c0 0 0.1 0.1 0.1 0.1l0 0 0 0 0 0c0 0 0 0 0 0l0 0c0 0 0 0 0 0l0 0c0 0 0 0 0 0l0 0c0 0 0 0 0.1 0.1l0 0c0.1 0.1 0.2 0.2 0.4 0.4l0 0c0.4 0.4 0.9 0.9 1.5 1.6l0 0c1.3 1.4 3.1 3.3 5.4 5.6l0 0c4.5 4.7 10.6 11 17.3 17.9l0 0c10.4 10.8 22.2 22.8 30.9 31.4l0 0c1.3-4.4 2.8-9.5 4.3-14.8l0 0c4.1-14.2 8.6-30.3 11.8-42l0 0c2.1-7.7 3.7-13.6 4.1-15.1l0 0c1.2-4.8 3-10.5 7.4-15.6l0 0-0.1 0.1c4.8-5.7 11.2-9.4 18.3-11l0 0 169.8-37.6c2.4-0.5 4.7-0.8 7.1-0.8l0 0c6 0 11.8 1.6 17 4.7l0 0c9.9 6.1 15.8 16.8 15.8 28.2l0 0c0 1.8-0.1 3.6-0.5 5.5l0 0c-1 5.9-3.6 11.3-7.4 15.7l0 0c7.8 4.4 13.8 12 16 21.4l0 0 10.9 49.3c0.5 2.3 0.8 4.6 0.8 7l0 0c-0.1 15.1-10.4 28.7-25.7 32.2l0 0-109.9 24.4c-2.1 0.5-4.2 0.8-6.4 1l0 0c-1.6 0.1-3.2 0.2-4.7 0.2l0 0c-13 0-25.4-5-35-13.5l0 0c-10.1-9-16.4-20.9-19.7-33l0 00-0.1-0.3-1.4-2.6-11.7c-2.2 7.7-4.5 15.4-6.9 23l0 0c-3.7 11.6-7.6 23.8-13.4 35.6l0 0c-2.6 5.3-5.9 10.7-10.5 15.4l0 0c-4.6 4.7-10.7 8.7-18.3 10.4l0 0-7 1.6-0.1 0c-2.7 0.6-5.4 0.9-8.1 0.9l0 0c-10.50-20.3-4.1-27.6-10.9l0 000-0.1-0.1c00-11.9-11.2-26.5-25.2l0 0c0.2 1.8 0.3 3.6 0.3 5.4l0 0c0 11.2-3.4 22.2-9.9 31.5l0 0c-7.6 10.8-19 18.6-32 21.5l0 0-98.1 21.8c-2.3 0.5-4.7 0.8-7.1 0.8l0 0c-6 0-11.8-1.6-17-4.7l0 0zm120.3-63.9-106 23.5c-4.8 1-8.9 5.3-9.7 10.2l0 0c-0.1 0.7-0.2 1.4-0.2 2l0 0c0 4.3 2.4 8.7 6.1 10.9l0 0c1.9 1.2 4.3 1.8 6.6 1.8l0 0c0.9 0 1.8-0.1 2.7-0.3l0 0 98.1-21.7c7.9-1.7 15.1-6.6 19.8-13.3l0 0c4-5.8 6.2-12.8 6.2-19.9l0 0c0-1.1-0.1-2.3-0.2-3.4l0 0c-0.1-1.4-0.4-2.7-0.7-4.1l0 0-1.6-7.1c-1.8-8.1-6.6-15.6-13.3-20.4l0 0c-5.7-4.2-12.8-6.6-19.8-6.6l0 0c-1 0-2 0-2.9 0.1l0 0c-1.3 0.1-2.7 0.3-4 0.6l0 0-38.9 8.6-46.9 10.4-5.5-24.7 115.2-25.5 3.9 4.3c5.8 6.4 18 18.4 30.7 30.7l0 0c12.7 12.3 26.1 25 34.7 33.2l0 0c5.6 5.3 9.2 8.7 9.4 8.9l0 0c3.7 3.4 8.9 5.5 13.9 5.5l0 0c1.3 0 2.6-0.1 3.9-0.4l0 0-0.1 0 7-1.6c3.2-0.7 5.7-2.3 8.2-4.9l0 0c2.5-2.6 4.8-6.2 6.8-10.2l0 0c4.9-10 8.6-21.3 12.2-32.8l0 0c6.2-19.6 11.5-39.6 16.6-59.7l0 0 1.5-6 17-3.8 13.3 59.6 0.2 0.8c2.6 9.2 7.1 17.4 13.6 23.2l0 0c6 5.4 13.8 8.4 21.6 8.4l0 0c0.9 0 1.90 2.9-0.1l0 0c1.3-0.1 2.6-0.3 3.9-0.6l0 0 109.9-24.4c5.6-1.1 9.9-6.8 9.9-12.5l0 0c0-0.9-0.1-1.7-0.3-2.6l0 0-10.9-49.3c-1.1-5.6-6.8-9.9-12.5-9.9l0 0c-0.9 0-1.7 0.1-2.6 0.3l0 0-1.1-4.9 0 0 1.1 4.9-83.6 18.5c-4.8 1-8.9 5.3-9.7 10.2l0 0c-0.1 0.7-0.2 1.4-0.2 2l0 0c0 4.3 2.4 8.7 6.1 10.9l0 0c1.9 1.2 4.3 1.8 6.6 1.8l0 0c0.9 0 1.8-0.1 2.7-0.3l0 0 71.3-15.8 5.5 24.7-102.1 22.6-3.9-5.6c-2-2.9-2.9-5.6-3.6-7.8l0 0-0.1-0.3L354.7 84.9 475.5 58.1c4.8-1 8.9-5.3 9.7-10.2l0 0c0.1-0.7 0.2-1.4 0.2-2l0 0c0-4.3-2.4-8.7-6.1-10.9l0 0c-1.9-1.2-4.3-1.8-6.6-1.8l0 0c-0.9 0-1.8 0.1-2.7 0.3l0 0-169.8 37.6-0.1 0c-2.7 0.6-5.3 2.1-7 4.2l0 0-0.1 0.1c-1.4 1.6-2.2 3.6-3.1 7.3l0 0c-0.5 2-1.7 6.5-3.5 12.9l0 0c-1.7 6.4-4 14.4-6.4 23l0 0c-4.8 17-10.2 35.8-13.5 46.3l0 0c-1 3.1-1.7 5.4-2.4 7.1l0 0-5.1 13.4-10.9-9.3c-1.5-1.3-3.3-3-5.7-5.4l0 0c-2.4-2.3-5.3-5.2-8.5-8.5l0 0c-6.5-6.5-14.3-14.4-21.9-22.3l0 0C196.6 124.2 182 109 179.9 106.8l0 0c00-0.1-0.1-0.1-0.1l0 0c00-0.1-0.1-0.2-0.2l0 0c-0.4-0.3-0.9-0.8-1.8-1.9l0 0c-0.1-0.2-0.2-0.3-0.4-0.5l0 0c-2.4-2.3-5.6-3.6-8.8-3.6l0 0c-0.9 0-1.8 0.1-2.7 0.3l0 0-114.4 25.4c-7.9 1.7-15.1 6.6-19.8 13.3l0 0c-4 5.8-6.2 12.8-6.2 19.9l0 0c0 1.1 0.1 2.3 0.2 3.4l0 0c0.1 1.4 0.4 2.7 0.7 4.1l0 0 1.6 7c1.8 8.1 6.6 15.6 13.3 20.4l0 0c5.7 4.2 12.8 6.6 19.8 6.6l0 0c1 0 20 2.9-0.1l0 0c1.4-0.1 2.7-0.3 4-0.6l0 0 38.9-8.6 46.9-10.4 5.5 24.7 0 0z" id="path3588" fill="#fff"/><path d="m476.8 73.3-83.6 18.5c-8.9 2-15.9 9.3-17.5 18.4-1.6 9.1 2.7 18.5 10.6 23.3 5 3 11 4 16.7 2.7l61.4-13.6 1.1 4.9-85.6 19c-1-1.5-1.7-3.2-2.2-4.9l-11-49.1 110.9-24.6c8.9-2 15.9-9.3 17.5-18.4 1.6-9.1-2.7-18.5-10.6-23.3-5-3-11-4-16.7-2.7L297.9 61.2c-4.9 1-9.5 3.7-12.7 7.6-2.9 3.4-4.2 7.2-5.3 11.5-1.8 7.5-21.3 77.4-25.4 88.1-9.2-7.9-66.9-67.9-67.6-68.7-0.3-0.4-1.4-1.1-1.5-1.6-5.5-6.1-13.8-8.8-21.8-7L49.3 116.4c-10.4 2.3-19.8 8.6-25.9 17.4-6.1 8.7-8.9 19.5-7.8 30.1 0.2 1.8 0.5 3.5 0.8 5.3l1.6 7c2.3 10.5 8.5 20 17.1 26.4 8.5 6.3 19.1 9.3 29.7 8.4 1.8-0.2 3.5-0.4 5.3-0.8l38.9-8.6 37-8.2 1.1 4.9-96.2 21.3c-8.9 2-15.9 9.3-17.5 18.4-1.6 9.1 2.7 18.5 10.6 23.3 5 3 11 4 16.7 2.7l98.1-21.8c10.4-2.3 19.8-8.6 25.9-17.4 6.1-8.7 8.9-19.5 7.8-30.1-0.2-1.8-0.5-3.5-0.8-5.3l-1.6-7c-2.3-10.5-8.5-20-17.1-26.4-8.5-6.3-19.1-9.3-29.7-8.4-1.8 0.2-3.5 0.4-5.3 0.8l-38.9 8.6-37 8.2-1.1-4.9 99.6-22.1c16.5 17.9 75.3 73.3 75.3 73.3 7 6.4 17 9.7 26.8 7.6l7-1.6c10.6-2.4 17.3-11.1 21.9-20.5 5.4-10.9 9.1-22.6 12.8-34.2 6.3-19.9 11.7-40 16.8-60.3l1-0.2 11.2 49.8 0.3 1.1c3 10.6 8.4 20.7 16.7 28.1 8.8 7.8 20.4 11.8 32.1 10.7 1.7-0.2 3.4-0.4 5.1-0.8l109.9-24.4c12.1-2.7 20-15 17.3-27.1L503.9 90.6C501.2 78.5 488.8 70.7 476.8 73.3" id="path3595" fill="url(#linearGradient3609)"/></svg>